<?xml version="1.0" encoding="utf-8"?>
<svg xmlns="http://www.w3.org/2000/svg" xmlns:xlink="http://www.w3.org/1999/xlink" width="800" height="450" viewBox="0 0 3200 1800">
<defs>
  <clipPath id="clip730">
    <rect x="0" y="0" width="3200" height="1800"/>
  </clipPath>
</defs>
<path clip-path="url(#clip730)" d="M0 1800 L3200 1800 L3200 0 L0 0  Z" fill="#ffffff" fill-rule="evenodd" fill-opacity="1"/>
<defs>
  <clipPath id="clip731">
    <rect x="640" y="0" width="2241" height="1800"/>
  </clipPath>
</defs>
<path clip-path="url(#clip730)" d="M176.02 1634 L3152.76 1634 L3152.76 114.022 L176.02 114.022  Z" fill="#ffffff" fill-rule="evenodd" fill-opacity="1"/>
<defs>
  <clipPath id="clip732">
    <rect x="176" y="114" width="2978" height="1521"/>
  </clipPath>
</defs>
<polyline clip-path="url(#clip732)" style="stroke:#000000; stroke-linecap:round; stroke-linejoin:round; stroke-width:2; stroke-opacity:0.1; fill:none" points="654.068,1634 654.068,114.022 "/>
<polyline clip-path="url(#clip732)" style="stroke:#000000; stroke-linecap:round; stroke-linejoin:round; stroke-width:2; stroke-opacity:0.1; fill:none" points="1215.36,1634 1215.36,114.022 "/>
<polyline clip-path="url(#clip732)" style="stroke:#000000; stroke-linecap:round; stroke-linejoin:round; stroke-width:2; stroke-opacity:0.1; fill:none" points="1776.65,1634 1776.65,114.022 "/>
<polyline clip-path="url(#clip732)" style="stroke:#000000; stroke-linecap:round; stroke-linejoin:round; stroke-width:2; stroke-opacity:0.1; fill:none" points="2337.93,1634 2337.93,114.022 "/>
<polyline clip-path="url(#clip732)" style="stroke:#000000; stroke-linecap:round; stroke-linejoin:round; stroke-width:2; stroke-opacity:0.1; fill:none" points="2899.22,1634 2899.22,114.022 "/>
<polyline clip-path="url(#clip730)" style="stroke:#000000; stroke-linecap:round; stroke-linejoin:round; stroke-width:4; stroke-opacity:1; fill:none" points="176.02,1634 3152.76,1634 "/>
<polyline clip-path="url(#clip730)" style="stroke:#000000; stroke-linecap:round; stroke-linejoin:round; stroke-width:4; stroke-opacity:1; fill:none" points="654.068,1634 654.068,1615.11 "/>
<polyline clip-path="url(#clip730)" style="stroke:#000000; stroke-linecap:round; stroke-linejoin:round; stroke-width:4; stroke-opacity:1; fill:none" points="1215.36,1634 1215.36,1615.11 "/>
<polyline clip-path="url(#clip730)" style="stroke:#000000; stroke-linecap:round; stroke-linejoin:round; stroke-width:4; stroke-opacity:1; fill:none" points="1776.65,1634 1776.65,1615.11 "/>
<polyline clip-path="url(#clip730)" style="stroke:#000000; stroke-linecap:round; stroke-linejoin:round; stroke-width:4; stroke-opacity:1; fill:none" points="2337.93,1634 2337.93,1615.11 "/>
<polyline clip-path="url(#clip730)" style="stroke:#000000; stroke-linecap:round; stroke-linejoin:round; stroke-width:4; stroke-opacity:1; fill:none" points="2899.22,1634 2899.22,1615.11 "/>
<path clip-path="url(#clip730)" d="M627.922 1668.24 L650.144 1668.24 L650.144 1670.24 L637.598 1702.8 L632.714 1702.8 L644.519 1672.18 L627.922 1672.18 L627.922 1668.24 Z" fill="#000000" fill-rule="nonzero" fill-opacity="1" /><path clip-path="url(#clip730)" d="M659.311 1668.24 L677.667 1668.24 L677.667 1672.18 L663.593 1672.18 L663.593 1680.65 Q664.612 1680.3 665.63 1680.14 Q666.649 1679.96 667.667 1679.96 Q673.454 1679.96 676.834 1683.13 Q680.214 1686.3 680.214 1691.72 Q680.214 1697.3 676.741 1700.4 Q673.269 1703.48 666.95 1703.48 Q664.774 1703.48 662.505 1703.11 Q660.26 1702.74 657.853 1701.99 L657.853 1697.3 Q659.936 1698.43 662.158 1698.99 Q664.38 1699.54 666.857 1699.54 Q670.862 1699.54 673.2 1697.43 Q675.538 1695.33 675.538 1691.72 Q675.538 1688.11 673.2 1686 Q670.862 1683.89 666.857 1683.89 Q664.982 1683.89 663.107 1684.31 Q661.255 1684.73 659.311 1685.61 L659.311 1668.24 Z" fill="#000000" fill-rule="nonzero" fill-opacity="1" /><path clip-path="url(#clip730)" d="M1174.96 1698.87 L1182.6 1698.87 L1182.6 1672.5 L1174.29 1674.17 L1174.29 1669.91 L1182.56 1668.24 L1187.23 1668.24 L1187.23 1698.87 L1194.87 1698.87 L1194.87 1702.8 L1174.96 1702.8 L1174.96 1698.87 Z" fill="#000000" fill-rule="nonzero" fill-opacity="1" /><path clip-path="url(#clip730)" d="M1214.32 1671.32 Q1210.7 1671.32 1208.88 1674.89 Q1207.07 1678.43 1207.07 1685.56 Q1207.07 1692.67 1208.88 1696.23 Q1210.7 1699.77 1214.32 1699.77 Q1217.95 1699.77 1219.75 1696.23 Q1221.58 1692.67 1221.58 1685.56 Q1221.58 1678.43 1219.75 1674.89 Q1217.95 1671.32 1214.32 1671.32 M1214.32 1667.62 Q1220.13 1667.62 1223.18 1672.23 Q1226.26 1676.81 1226.26 1685.56 Q1226.26 1694.29 1223.18 1698.89 Q1220.13 1703.48 1214.32 1703.48 Q1208.51 1703.48 1205.43 1698.89 Q1202.37 1694.29 1202.37 1685.56 Q1202.37 1676.81 1205.43 1672.23 Q1208.51 1667.62 1214.32 1667.62 Z" fill="#000000" fill-rule="nonzero" fill-opacity="1" /><path clip-path="url(#clip730)" d="M1244.48 1671.32 Q1240.87 1671.32 1239.04 1674.89 Q1237.23 1678.43 1237.23 1685.56 Q1237.23 1692.67 1239.04 1696.23 Q1240.87 1699.77 1244.48 1699.77 Q1248.11 1699.77 1249.92 1696.23 Q1251.75 1692.67 1251.75 1685.56 Q1251.75 1678.43 1249.92 1674.89 Q1248.11 1671.32 1244.48 1671.32 M1244.48 1667.62 Q1250.29 1667.62 1253.34 1672.23 Q1256.42 1676.81 1256.42 1685.56 Q1256.42 1694.29 1253.34 1698.89 Q1250.29 1703.48 1244.48 1703.48 Q1238.67 1703.48 1235.59 1698.89 Q1232.53 1694.29 1232.53 1685.56 Q1232.53 1676.81 1235.59 1672.23 Q1238.67 1667.62 1244.48 1667.62 Z" fill="#000000" fill-rule="nonzero" fill-opacity="1" /><path clip-path="url(#clip730)" d="M1736.75 1698.87 L1744.39 1698.87 L1744.39 1672.5 L1736.08 1674.17 L1736.08 1669.91 L1744.34 1668.24 L1749.02 1668.24 L1749.02 1698.87 L1756.66 1698.87 L1756.66 1702.8 L1736.75 1702.8 L1736.75 1698.87 Z" fill="#000000" fill-rule="nonzero" fill-opacity="1" /><path clip-path="url(#clip730)" d="M1770.13 1698.87 L1786.45 1698.87 L1786.45 1702.8 L1764.5 1702.8 L1764.5 1698.87 Q1767.17 1696.12 1771.75 1691.49 Q1776.36 1686.83 1777.54 1685.49 Q1779.78 1682.97 1780.66 1681.23 Q1781.56 1679.47 1781.56 1677.78 Q1781.56 1675.03 1779.62 1673.29 Q1777.7 1671.56 1774.6 1671.56 Q1772.4 1671.56 1769.94 1672.32 Q1767.51 1673.08 1764.74 1674.63 L1764.74 1669.91 Q1767.56 1668.78 1770.01 1668.2 Q1772.47 1667.62 1774.5 1667.62 Q1779.88 1667.62 1783.07 1670.31 Q1786.26 1672.99 1786.26 1677.48 Q1786.26 1679.61 1785.45 1681.53 Q1784.67 1683.43 1782.56 1686.02 Q1781.98 1686.69 1778.88 1689.91 Q1775.78 1693.11 1770.13 1698.87 Z" fill="#000000" fill-rule="nonzero" fill-opacity="1" /><path clip-path="url(#clip730)" d="M1796.31 1668.24 L1814.67 1668.24 L1814.67 1672.18 L1800.59 1672.18 L1800.59 1680.65 Q1801.61 1680.3 1802.63 1680.14 Q1803.65 1679.96 1804.67 1679.96 Q1810.45 1679.96 1813.83 1683.13 Q1817.21 1686.3 1817.21 1691.72 Q1817.21 1697.3 1813.74 1700.4 Q1810.27 1703.48 1803.95 1703.48 Q1801.77 1703.48 1799.5 1703.11 Q1797.26 1702.74 1794.85 1701.99 L1794.85 1697.3 Q1796.94 1698.43 1799.16 1698.99 Q1801.38 1699.54 1803.86 1699.54 Q1807.86 1699.54 1810.2 1697.43 Q1812.54 1695.33 1812.54 1691.72 Q1812.54 1688.11 1810.2 1686 Q1807.86 1683.89 1803.86 1683.89 Q1801.98 1683.89 1800.11 1684.31 Q1798.25 1684.73 1796.31 1685.61 L1796.31 1668.24 Z" fill="#000000" fill-rule="nonzero" fill-opacity="1" /><path clip-path="url(#clip730)" d="M2297.54 1698.87 L2305.18 1698.87 L2305.18 1672.5 L2296.87 1674.17 L2296.87 1669.91 L2305.13 1668.24 L2309.81 1668.24 L2309.81 1698.87 L2317.45 1698.87 L2317.45 1702.8 L2297.54 1702.8 L2297.54 1698.87 Z" fill="#000000" fill-rule="nonzero" fill-opacity="1" /><path clip-path="url(#clip730)" d="M2326.94 1668.24 L2345.3 1668.24 L2345.3 1672.18 L2331.22 1672.18 L2331.22 1680.65 Q2332.24 1680.3 2333.26 1680.14 Q2334.28 1679.96 2335.3 1679.96 Q2341.08 1679.96 2344.46 1683.13 Q2347.84 1686.3 2347.84 1691.72 Q2347.84 1697.3 2344.37 1700.4 Q2340.9 1703.48 2334.58 1703.48 Q2332.4 1703.48 2330.13 1703.11 Q2327.89 1702.74 2325.48 1701.99 L2325.48 1697.3 Q2327.56 1698.43 2329.79 1698.99 Q2332.01 1699.54 2334.49 1699.54 Q2338.49 1699.54 2340.83 1697.43 Q2343.17 1695.33 2343.17 1691.72 Q2343.17 1688.11 2340.83 1686 Q2338.49 1683.89 2334.49 1683.89 Q2332.61 1683.89 2330.74 1684.31 Q2328.88 1684.73 2326.94 1685.61 L2326.94 1668.24 Z" fill="#000000" fill-rule="nonzero" fill-opacity="1" /><path clip-path="url(#clip730)" d="M2367.06 1671.32 Q2363.44 1671.32 2361.62 1674.89 Q2359.81 1678.43 2359.81 1685.56 Q2359.81 1692.67 2361.62 1696.23 Q2363.44 1699.77 2367.06 1699.77 Q2370.69 1699.77 2372.49 1696.23 Q2374.32 1692.67 2374.32 1685.56 Q2374.32 1678.43 2372.49 1674.89 Q2370.69 1671.32 2367.06 1671.32 M2367.06 1667.62 Q2372.87 1667.62 2375.92 1672.23 Q2379 1676.81 2379 1685.56 Q2379 1694.29 2375.92 1698.89 Q2372.87 1703.48 2367.06 1703.48 Q2361.24 1703.48 2358.17 1698.89 Q2355.11 1694.29 2355.11 1685.56 Q2355.11 1676.81 2358.17 1672.23 Q2361.24 1667.62 2367.06 1667.62 Z" fill="#000000" fill-rule="nonzero" fill-opacity="1" /><path clip-path="url(#clip730)" d="M2859.33 1698.87 L2866.97 1698.87 L2866.97 1672.5 L2858.66 1674.17 L2858.66 1669.91 L2866.92 1668.24 L2871.6 1668.24 L2871.6 1698.87 L2879.24 1698.87 L2879.24 1702.8 L2859.33 1702.8 L2859.33 1698.87 Z" fill="#000000" fill-rule="nonzero" fill-opacity="1" /><path clip-path="url(#clip730)" d="M2887.5 1668.24 L2909.72 1668.24 L2909.72 1670.24 L2897.18 1702.8 L2892.29 1702.8 L2904.1 1672.18 L2887.5 1672.18 L2887.5 1668.24 Z" fill="#000000" fill-rule="nonzero" fill-opacity="1" /><path clip-path="url(#clip730)" d="M2918.89 1668.24 L2937.24 1668.24 L2937.24 1672.18 L2923.17 1672.18 L2923.17 1680.65 Q2924.19 1680.3 2925.21 1680.14 Q2926.23 1679.96 2927.24 1679.96 Q2933.03 1679.96 2936.41 1683.13 Q2939.79 1686.3 2939.79 1691.72 Q2939.79 1697.3 2936.32 1700.4 Q2932.85 1703.48 2926.53 1703.48 Q2924.35 1703.48 2922.08 1703.11 Q2919.84 1702.74 2917.43 1701.99 L2917.43 1697.3 Q2919.51 1698.43 2921.74 1698.99 Q2923.96 1699.54 2926.43 1699.54 Q2930.44 1699.54 2932.78 1697.43 Q2935.11 1695.33 2935.11 1691.72 Q2935.11 1688.11 2932.78 1686 Q2930.44 1683.89 2926.43 1683.89 Q2924.56 1683.89 2922.68 1684.31 Q2920.83 1684.73 2918.89 1685.61 L2918.89 1668.24 Z" fill="#000000" fill-rule="nonzero" fill-opacity="1" /><path clip-path="url(#clip730)" d="M1474.39 1747.71 Q1467.39 1747.71 1463.25 1752.93 Q1459.14 1758.15 1459.14 1767.16 Q1459.14 1776.13 1463.25 1781.35 Q1467.39 1786.57 1474.39 1786.57 Q1481.39 1786.57 1485.46 1781.35 Q1489.57 1776.13 1489.57 1767.16 Q1489.57 1758.15 1485.46 1752.93 Q1481.39 1747.71 1474.39 1747.71 M1474.39 1742.49 Q1484.38 1742.49 1490.37 1749.21 Q1496.35 1755.89 1496.35 1767.16 Q1496.35 1778.39 1490.37 1785.11 Q1484.38 1791.79 1474.39 1791.79 Q1464.36 1791.79 1458.35 1785.11 Q1452.36 1778.42 1452.36 1767.16 Q1452.36 1755.89 1458.35 1749.21 Q1464.36 1742.49 1474.39 1742.49 Z" fill="#000000" fill-rule="nonzero" fill-opacity="1" /><path clip-path="url(#clip730)" d="M1531.74 1773.08 Q1531.74 1766.62 1529.07 1762.96 Q1526.43 1759.26 1521.78 1759.26 Q1517.13 1759.26 1514.46 1762.96 Q1511.82 1766.62 1511.82 1773.08 Q1511.82 1779.54 1514.46 1783.23 Q1517.13 1786.89 1521.78 1786.89 Q1526.43 1786.89 1529.07 1783.23 Q1531.74 1779.54 1531.74 1773.08 M1511.82 1760.63 Q1513.66 1757.45 1516.46 1755.92 Q1519.3 1754.36 1523.21 1754.36 Q1529.71 1754.36 1533.75 1759.52 Q1537.82 1764.67 1537.82 1773.08 Q1537.82 1781.48 1533.75 1786.64 Q1529.71 1791.79 1523.21 1791.79 Q1519.3 1791.79 1516.46 1790.26 Q1513.66 1788.7 1511.82 1785.52 L1511.82 1790.87 L1505.93 1790.87 L1505.93 1741.34 L1511.82 1741.34 L1511.82 1760.63 Z" fill="#000000" fill-rule="nonzero" fill-opacity="1" /><path clip-path="url(#clip730)" d="M1570.26 1756.27 L1570.26 1761.81 Q1567.77 1760.54 1565.1 1759.9 Q1562.43 1759.26 1559.56 1759.26 Q1555.2 1759.26 1553 1760.6 Q1550.84 1761.94 1550.84 1764.61 Q1550.84 1766.65 1552.4 1767.82 Q1553.96 1768.97 1558.67 1770.02 L1560.67 1770.47 Q1566.91 1771.8 1569.52 1774.25 Q1572.16 1776.67 1572.16 1781.03 Q1572.16 1786 1568.22 1788.9 Q1564.3 1791.79 1557.43 1791.79 Q1554.56 1791.79 1551.44 1791.22 Q1548.36 1790.68 1544.92 1789.56 L1544.92 1783.52 Q1548.17 1785.2 1551.32 1786.06 Q1554.47 1786.89 1557.56 1786.89 Q1561.69 1786.89 1563.92 1785.49 Q1566.15 1784.06 1566.15 1781.48 Q1566.15 1779.09 1564.53 1777.82 Q1562.93 1776.55 1557.49 1775.37 L1555.45 1774.89 Q1550.01 1773.75 1547.59 1771.39 Q1545.17 1769 1545.17 1764.86 Q1545.17 1759.84 1548.74 1757.1 Q1552.3 1754.36 1558.86 1754.36 Q1562.11 1754.36 1564.97 1754.84 Q1567.84 1755.32 1570.26 1756.27 Z" fill="#000000" fill-rule="nonzero" fill-opacity="1" /><path clip-path="url(#clip730)" d="M1611.98 1771.58 L1611.98 1774.45 L1585.06 1774.45 Q1585.44 1780.49 1588.68 1783.68 Q1591.96 1786.83 1597.79 1786.83 Q1601.16 1786.83 1604.31 1786 Q1607.49 1785.17 1610.61 1783.52 L1610.61 1789.05 Q1607.46 1790.39 1604.15 1791.09 Q1600.84 1791.79 1597.44 1791.79 Q1588.91 1791.79 1583.91 1786.83 Q1578.94 1781.86 1578.94 1773.39 Q1578.94 1764.64 1583.65 1759.52 Q1588.4 1754.36 1596.42 1754.36 Q1603.61 1754.36 1607.78 1759.01 Q1611.98 1763.62 1611.98 1771.58 M1606.13 1769.86 Q1606.06 1765.06 1603.42 1762.19 Q1600.81 1759.33 1596.48 1759.33 Q1591.58 1759.33 1588.62 1762.1 Q1585.69 1764.86 1585.25 1769.89 L1606.13 1769.86 Z" fill="#000000" fill-rule="nonzero" fill-opacity="1" /><path clip-path="url(#clip730)" d="M1642.25 1760.7 Q1641.26 1760.12 1640.09 1759.87 Q1638.94 1759.58 1637.54 1759.58 Q1632.58 1759.58 1629.9 1762.83 Q1627.26 1766.04 1627.26 1772.09 L1627.26 1790.87 L1621.37 1790.87 L1621.37 1755.22 L1627.26 1755.22 L1627.26 1760.76 Q1629.11 1757.51 1632.07 1755.95 Q1635.03 1754.36 1639.26 1754.36 Q1639.86 1754.36 1640.6 1754.46 Q1641.33 1754.52 1642.22 1754.68 L1642.25 1760.7 Z" fill="#000000" fill-rule="nonzero" fill-opacity="1" /><path clip-path="url(#clip730)" d="M1644.19 1755.22 L1650.4 1755.22 L1661.54 1785.14 L1672.68 1755.22 L1678.89 1755.22 L1665.52 1790.87 L1657.56 1790.87 L1644.19 1755.22 Z" fill="#000000" fill-rule="nonzero" fill-opacity="1" /><path clip-path="url(#clip730)" d="M1703.17 1772.95 Q1696.07 1772.95 1693.34 1774.57 Q1690.6 1776.2 1690.6 1780.11 Q1690.6 1783.23 1692.64 1785.08 Q1694.7 1786.89 1698.24 1786.89 Q1703.11 1786.89 1706.04 1783.45 Q1709 1779.98 1709 1774.25 L1709 1772.95 L1703.17 1772.95 M1714.85 1770.53 L1714.85 1790.87 L1709 1790.87 L1709 1785.46 Q1706.99 1788.7 1704 1790.26 Q1701.01 1791.79 1696.68 1791.79 Q1691.2 1791.79 1687.96 1788.74 Q1684.74 1785.65 1684.74 1780.49 Q1684.74 1774.48 1688.75 1771.42 Q1692.8 1768.37 1700.78 1768.37 L1709 1768.37 L1709 1767.79 Q1709 1763.75 1706.32 1761.55 Q1703.68 1759.33 1698.87 1759.33 Q1695.82 1759.33 1692.92 1760.06 Q1690.03 1760.79 1687.35 1762.25 L1687.35 1756.84 Q1690.57 1755.6 1693.59 1755 Q1696.61 1754.36 1699.48 1754.36 Q1707.21 1754.36 1711.03 1758.37 Q1714.85 1762.38 1714.85 1770.53 Z" fill="#000000" fill-rule="nonzero" fill-opacity="1" /><path clip-path="url(#clip730)" d="M1732.71 1745.1 L1732.71 1755.22 L1744.77 1755.22 L1744.77 1759.77 L1732.71 1759.77 L1732.71 1779.12 Q1732.71 1783.48 1733.89 1784.73 Q1735.1 1785.97 1738.76 1785.97 L1744.77 1785.97 L1744.77 1790.87 L1738.76 1790.87 Q1731.98 1790.87 1729.4 1788.35 Q1726.82 1785.81 1726.82 1779.12 L1726.82 1759.77 L1722.52 1759.77 L1722.52 1755.22 L1726.82 1755.22 L1726.82 1745.1 L1732.71 1745.1 Z" fill="#000000" fill-rule="nonzero" fill-opacity="1" /><path clip-path="url(#clip730)" d="M1752.47 1755.22 L1758.33 1755.22 L1758.33 1790.87 L1752.47 1790.87 L1752.47 1755.22 M1752.47 1741.34 L1758.33 1741.34 L1758.33 1748.76 L1752.47 1748.76 L1752.47 1741.34 Z" fill="#000000" fill-rule="nonzero" fill-opacity="1" /><path clip-path="url(#clip730)" d="M1784.4 1759.33 Q1779.69 1759.33 1776.95 1763.02 Q1774.21 1766.68 1774.21 1773.08 Q1774.21 1779.47 1776.92 1783.17 Q1779.66 1786.83 1784.4 1786.83 Q1789.08 1786.83 1791.81 1783.13 Q1794.55 1779.44 1794.55 1773.08 Q1794.55 1766.74 1791.81 1763.05 Q1789.08 1759.33 1784.4 1759.33 M1784.4 1754.36 Q1792.04 1754.36 1796.4 1759.33 Q1800.76 1764.29 1800.76 1773.08 Q1800.76 1781.83 1796.4 1786.83 Q1792.04 1791.79 1784.4 1791.79 Q1776.73 1791.79 1772.37 1786.83 Q1768.04 1781.83 1768.04 1773.08 Q1768.04 1764.29 1772.37 1759.33 Q1776.73 1754.36 1784.4 1754.36 Z" fill="#000000" fill-rule="nonzero" fill-opacity="1" /><path clip-path="url(#clip730)" d="M1840.1 1769.35 L1840.1 1790.87 L1834.24 1790.87 L1834.24 1769.54 Q1834.24 1764.48 1832.27 1761.97 Q1830.29 1759.45 1826.35 1759.45 Q1821.61 1759.45 1818.87 1762.48 Q1816.13 1765.5 1816.13 1770.72 L1816.13 1790.87 L1810.24 1790.87 L1810.24 1755.22 L1816.13 1755.22 L1816.13 1760.76 Q1818.23 1757.54 1821.06 1755.95 Q1823.93 1754.36 1827.65 1754.36 Q1833.8 1754.36 1836.95 1758.18 Q1840.1 1761.97 1840.1 1769.35 Z" fill="#000000" fill-rule="nonzero" fill-opacity="1" /><path clip-path="url(#clip730)" d="M1874.5 1756.27 L1874.5 1761.81 Q1872.02 1760.54 1869.35 1759.9 Q1866.67 1759.26 1863.81 1759.26 Q1859.45 1759.26 1857.25 1760.6 Q1855.09 1761.94 1855.09 1764.61 Q1855.09 1766.65 1856.65 1767.82 Q1858.21 1768.97 1862.92 1770.02 L1864.92 1770.47 Q1871.16 1771.8 1873.77 1774.25 Q1876.41 1776.67 1876.41 1781.03 Q1876.41 1786 1872.47 1788.9 Q1868.55 1791.79 1861.68 1791.79 Q1858.81 1791.79 1855.69 1791.22 Q1852.61 1790.68 1849.17 1789.56 L1849.17 1783.52 Q1852.42 1785.2 1855.57 1786.06 Q1858.72 1786.89 1861.8 1786.89 Q1865.94 1786.89 1868.17 1785.49 Q1870.4 1784.06 1870.4 1781.48 Q1870.4 1779.09 1868.77 1777.82 Q1867.18 1776.55 1861.74 1775.37 L1859.7 1774.89 Q1854.26 1773.75 1851.84 1771.39 Q1849.42 1769 1849.42 1764.86 Q1849.42 1759.84 1852.99 1757.1 Q1856.55 1754.36 1863.11 1754.36 Q1866.36 1754.36 1869.22 1754.84 Q1872.09 1755.32 1874.5 1756.27 Z" fill="#000000" fill-rule="nonzero" fill-opacity="1" /><polyline clip-path="url(#clip732)" style="stroke:#000000; stroke-linecap:round; stroke-linejoin:round; stroke-width:2; stroke-opacity:0.1; fill:none" points="176.02,1634 3152.76,1634 "/>
<polyline clip-path="url(#clip732)" style="stroke:#000000; stroke-linecap:round; stroke-linejoin:round; stroke-width:2; stroke-opacity:0.1; fill:none" points="176.02,1416.86 3152.76,1416.86 "/>
<polyline clip-path="url(#clip732)" style="stroke:#000000; stroke-linecap:round; stroke-linejoin:round; stroke-width:2; stroke-opacity:0.1; fill:none" points="176.02,1199.72 3152.76,1199.72 "/>
<polyline clip-path="url(#clip732)" style="stroke:#000000; stroke-linecap:round; stroke-linejoin:round; stroke-width:2; stroke-opacity:0.1; fill:none" points="176.02,982.584 3152.76,982.584 "/>
<polyline clip-path="url(#clip732)" style="stroke:#000000; stroke-linecap:round; stroke-linejoin:round; stroke-width:2; stroke-opacity:0.1; fill:none" points="176.02,765.443 3152.76,765.443 "/>
<polyline clip-path="url(#clip732)" style="stroke:#000000; stroke-linecap:round; stroke-linejoin:round; stroke-width:2; stroke-opacity:0.1; fill:none" points="176.02,548.303 3152.76,548.303 "/>
<polyline clip-path="url(#clip732)" style="stroke:#000000; stroke-linecap:round; stroke-linejoin:round; stroke-width:2; stroke-opacity:0.1; fill:none" points="176.02,331.163 3152.76,331.163 "/>
<polyline clip-path="url(#clip732)" style="stroke:#000000; stroke-linecap:round; stroke-linejoin:round; stroke-width:2; stroke-opacity:0.1; fill:none" points="176.02,114.022 3152.76,114.022 "/>
<polyline clip-path="url(#clip730)" style="stroke:#000000; stroke-linecap:round; stroke-linejoin:round; stroke-width:4; stroke-opacity:1; fill:none" points="176.02,1634 176.02,114.022 "/>
<polyline clip-path="url(#clip730)" style="stroke:#000000; stroke-linecap:round; stroke-linejoin:round; stroke-width:4; stroke-opacity:1; fill:none" points="176.02,1634 194.918,1634 "/>
<polyline clip-path="url(#clip730)" style="stroke:#000000; stroke-linecap:round; stroke-linejoin:round; stroke-width:4; stroke-opacity:1; fill:none" points="176.02,1416.86 194.918,1416.86 "/>
<polyline clip-path="url(#clip730)" style="stroke:#000000; stroke-linecap:round; stroke-linejoin:round; stroke-width:4; stroke-opacity:1; fill:none" points="176.02,1199.72 194.918,1199.72 "/>
<polyline clip-path="url(#clip730)" style="stroke:#000000; stroke-linecap:round; stroke-linejoin:round; stroke-width:4; stroke-opacity:1; fill:none" points="176.02,982.584 194.918,982.584 "/>
<polyline clip-path="url(#clip730)" style="stroke:#000000; stroke-linecap:round; stroke-linejoin:round; stroke-width:4; stroke-opacity:1; fill:none" points="176.02,765.443 194.918,765.443 "/>
<polyline clip-path="url(#clip730)" style="stroke:#000000; stroke-linecap:round; stroke-linejoin:round; stroke-width:4; stroke-opacity:1; fill:none" points="176.02,548.303 194.918,548.303 "/>
<polyline clip-path="url(#clip730)" style="stroke:#000000; stroke-linecap:round; stroke-linejoin:round; stroke-width:4; stroke-opacity:1; fill:none" points="176.02,331.163 194.918,331.163 "/>
<polyline clip-path="url(#clip730)" style="stroke:#000000; stroke-linecap:round; stroke-linejoin:round; stroke-width:4; stroke-opacity:1; fill:none" points="176.02,114.022 194.918,114.022 "/>
<path clip-path="url(#clip730)" d="M116.076 1619.8 Q112.465 1619.8 110.636 1623.37 Q108.83 1626.91 108.83 1634.04 Q108.83 1641.15 110.636 1644.71 Q112.465 1648.25 116.076 1648.25 Q119.71 1648.25 121.516 1644.71 Q123.344 1641.15 123.344 1634.04 Q123.344 1626.91 121.516 1623.37 Q119.71 1619.8 116.076 1619.8 M116.076 1616.1 Q121.886 1616.1 124.942 1620.71 Q128.02 1625.29 128.02 1634.04 Q128.02 1642.77 124.942 1647.37 Q121.886 1651.96 116.076 1651.96 Q110.266 1651.96 107.187 1647.37 Q104.131 1642.77 104.131 1634.04 Q104.131 1625.29 107.187 1620.71 Q110.266 1616.1 116.076 1616.1 Z" fill="#000000" fill-rule="nonzero" fill-opacity="1" /><path clip-path="url(#clip730)" d="M108.113 1430.21 L115.752 1430.21 L115.752 1403.84 L107.442 1405.51 L107.442 1401.25 L115.705 1399.58 L120.381 1399.58 L120.381 1430.21 L128.02 1430.21 L128.02 1434.14 L108.113 1434.14 L108.113 1430.21 Z" fill="#000000" fill-rule="nonzero" fill-opacity="1" /><path clip-path="url(#clip730)" d="M111.701 1213.07 L128.02 1213.07 L128.02 1217 L106.076 1217 L106.076 1213.07 Q108.738 1210.31 113.321 1205.68 Q117.928 1201.03 119.108 1199.69 Q121.354 1197.17 122.233 1195.43 Q123.136 1193.67 123.136 1191.98 Q123.136 1189.23 121.192 1187.49 Q119.27 1185.75 116.168 1185.75 Q113.969 1185.75 111.516 1186.52 Q109.085 1187.28 106.307 1188.83 L106.307 1184.11 Q109.131 1182.98 111.585 1182.4 Q114.039 1181.82 116.076 1181.82 Q121.446 1181.82 124.641 1184.5 Q127.835 1187.19 127.835 1191.68 Q127.835 1193.81 127.025 1195.73 Q126.238 1197.63 124.131 1200.22 Q123.553 1200.89 120.451 1204.11 Q117.349 1207.31 111.701 1213.07 Z" fill="#000000" fill-rule="nonzero" fill-opacity="1" /><path clip-path="url(#clip730)" d="M120.891 981.23 Q124.247 981.947 126.122 984.216 Q128.02 986.484 128.02 989.817 Q128.02 994.933 124.502 997.734 Q120.983 1000.53 114.502 1000.53 Q112.326 1000.53 110.011 1000.1 Q107.719 999.678 105.266 998.822 L105.266 994.308 Q107.21 995.442 109.525 996.021 Q111.84 996.6 114.363 996.6 Q118.761 996.6 121.053 994.864 Q123.367 993.128 123.367 989.817 Q123.367 986.762 121.215 985.049 Q119.085 983.313 115.266 983.313 L111.238 983.313 L111.238 979.47 L115.451 979.47 Q118.9 979.47 120.729 978.105 Q122.557 976.716 122.557 974.123 Q122.557 971.461 120.659 970.049 Q118.784 968.614 115.266 968.614 Q113.344 968.614 111.145 969.031 Q108.946 969.447 106.307 970.327 L106.307 966.16 Q108.969 965.419 111.284 965.049 Q113.622 964.679 115.682 964.679 Q121.006 964.679 124.108 967.109 Q127.21 969.517 127.21 973.637 Q127.21 976.507 125.567 978.498 Q123.923 980.466 120.891 981.23 Z" fill="#000000" fill-rule="nonzero" fill-opacity="1" /><path clip-path="url(#clip730)" d="M118.437 752.237 L106.631 770.686 L118.437 770.686 L118.437 752.237 M117.21 748.163 L123.09 748.163 L123.09 770.686 L128.02 770.686 L128.02 774.575 L123.09 774.575 L123.09 782.723 L118.437 782.723 L118.437 774.575 L102.835 774.575 L102.835 770.061 L117.21 748.163 Z" fill="#000000" fill-rule="nonzero" fill-opacity="1" /><path clip-path="url(#clip730)" d="M107.118 531.023 L125.474 531.023 L125.474 534.958 L111.4 534.958 L111.4 543.43 Q112.418 543.083 113.437 542.921 Q114.455 542.736 115.474 542.736 Q121.261 542.736 124.641 545.907 Q128.02 549.078 128.02 554.495 Q128.02 560.074 124.548 563.176 Q121.076 566.254 114.756 566.254 Q112.58 566.254 110.312 565.884 Q108.067 565.513 105.659 564.773 L105.659 560.074 Q107.743 561.208 109.965 561.763 Q112.187 562.319 114.664 562.319 Q118.668 562.319 121.006 560.213 Q123.344 558.106 123.344 554.495 Q123.344 550.884 121.006 548.777 Q118.668 546.671 114.664 546.671 Q112.789 546.671 110.914 547.088 Q109.062 547.504 107.118 548.384 L107.118 531.023 Z" fill="#000000" fill-rule="nonzero" fill-opacity="1" /><path clip-path="url(#clip730)" d="M116.492 329.299 Q113.344 329.299 111.493 331.452 Q109.664 333.605 109.664 337.355 Q109.664 341.081 111.493 343.257 Q113.344 345.41 116.492 345.41 Q119.641 345.41 121.469 343.257 Q123.321 341.081 123.321 337.355 Q123.321 333.605 121.469 331.452 Q119.641 329.299 116.492 329.299 M125.775 314.646 L125.775 318.906 Q124.016 318.072 122.21 317.632 Q120.428 317.193 118.668 317.193 Q114.039 317.193 111.585 320.318 Q109.155 323.443 108.807 329.762 Q110.173 327.748 112.233 326.683 Q114.293 325.595 116.77 325.595 Q121.979 325.595 124.988 328.767 Q128.02 331.915 128.02 337.355 Q128.02 342.679 124.872 345.896 Q121.724 349.114 116.492 349.114 Q110.497 349.114 107.326 344.53 Q104.155 339.924 104.155 331.197 Q104.155 323.003 108.043 318.142 Q111.932 313.258 118.483 313.258 Q120.242 313.258 122.025 313.605 Q123.83 313.952 125.775 314.646 Z" fill="#000000" fill-rule="nonzero" fill-opacity="1" /><path clip-path="url(#clip730)" d="M105.798 96.7421 L128.02 96.7421 L128.02 98.7329 L115.474 131.302 L110.59 131.302 L122.395 100.677 L105.798 100.677 L105.798 96.7421 Z" fill="#000000" fill-rule="nonzero" fill-opacity="1" /><path clip-path="url(#clip730)" d="M-3.28056 929.873 L3.49892 929.873 Q0.475206 933.119 -1.02074 936.811 Q-2.51668 940.471 -2.51668 944.609 Q-2.51668 952.757 2.4804 957.086 Q7.44565 961.415 16.8669 961.415 Q26.2563 961.415 31.2534 957.086 Q36.2186 952.757 36.2186 944.609 Q36.2186 940.471 34.7227 936.811 Q33.2268 933.119 30.2031 929.873 L36.9189 929.873 Q39.2105 933.246 40.3564 937.034 Q41.5022 940.79 41.5022 944.991 Q41.5022 955.781 34.9137 961.988 Q28.2933 968.194 16.8669 968.194 Q5.40863 968.194 -1.17988 961.988 Q-7.80021 955.781 -7.80021 944.991 Q-7.80021 940.726 -6.65439 936.97 Q-5.54039 933.183 -3.28056 929.873 Z" fill="#000000" fill-rule="nonzero" fill-opacity="1" /><path clip-path="url(#clip730)" d="M9.03708 906.383 Q9.03708 911.094 12.7292 913.831 Q16.3895 916.568 22.787 916.568 Q29.1845 916.568 32.8767 913.863 Q36.5369 911.126 36.5369 906.383 Q36.5369 901.704 32.8448 898.967 Q29.1527 896.23 22.787 896.23 Q16.4531 896.23 12.761 898.967 Q9.03708 901.704 9.03708 906.383 M4.07183 906.383 Q4.07183 898.744 9.03708 894.384 Q14.0023 890.023 22.787 890.023 Q31.5399 890.023 36.5369 894.384 Q41.5022 898.744 41.5022 906.383 Q41.5022 914.054 36.5369 918.414 Q31.5399 922.743 22.787 922.743 Q14.0023 922.743 9.03708 918.414 Q4.07183 914.054 4.07183 906.383 Z" fill="#000000" fill-rule="nonzero" fill-opacity="1" /><path clip-path="url(#clip730)" d="M26.5109 880.92 L4.9312 880.92 L4.9312 875.064 L26.2881 875.064 Q31.3489 875.064 33.8952 873.09 Q36.4096 871.117 36.4096 867.17 Q36.4096 862.428 33.3859 859.691 Q30.3622 856.922 25.1423 856.922 L4.9312 856.922 L4.9312 851.065 L40.5792 851.065 L40.5792 856.922 L35.1046 856.922 Q38.3512 859.054 39.9426 861.887 Q41.5022 864.688 41.5022 868.412 Q41.5022 874.555 37.6828 877.737 Q33.8633 880.92 26.5109 880.92 M4.07183 866.184 L4.07183 866.184 Z" fill="#000000" fill-rule="nonzero" fill-opacity="1" /><path clip-path="url(#clip730)" d="M19.0631 809.37 L40.5792 809.37 L40.5792 815.226 L19.254 815.226 Q14.1933 815.226 11.6788 817.2 Q9.1644 819.173 9.1644 823.12 Q9.1644 827.862 12.1881 830.599 Q15.2118 833.337 20.4317 833.337 L40.5792 833.337 L40.5792 839.225 L4.9312 839.225 L4.9312 833.337 L10.4694 833.337 Q7.25468 831.236 5.66326 828.403 Q4.07183 825.539 4.07183 821.815 Q4.07183 815.672 7.89125 812.521 Q11.6788 809.37 19.0631 809.37 Z" fill="#000000" fill-rule="nonzero" fill-opacity="1" /><path clip-path="url(#clip730)" d="M-5.19027 791.896 L4.9312 791.896 L4.9312 779.833 L9.48268 779.833 L9.48268 791.896 L28.8344 791.896 Q33.1949 791.896 34.4363 790.718 Q35.6776 789.509 35.6776 785.848 L35.6776 779.833 L40.5792 779.833 L40.5792 785.848 Q40.5792 792.628 38.0647 795.206 Q35.5184 797.784 28.8344 797.784 L9.48268 797.784 L9.48268 802.081 L4.9312 802.081 L4.9312 797.784 L-5.19027 797.784 L-5.19027 791.896 Z" fill="#000000" fill-rule="nonzero" fill-opacity="1" /><path clip-path="url(#clip730)" d="M1277.06 18.8205 L1277.06 41.5461 L1287.35 41.5461 Q1293.06 41.5461 1296.18 38.5889 Q1299.3 35.6318 1299.3 30.163 Q1299.3 24.7348 1296.18 21.7777 Q1293.06 18.8205 1287.35 18.8205 L1277.06 18.8205 M1268.88 12.096 L1287.35 12.096 Q1297.52 12.096 1302.7 16.714 Q1307.93 21.2916 1307.93 30.163 Q1307.93 39.1155 1302.7 43.6931 Q1297.52 48.2706 1287.35 48.2706 L1277.06 48.2706 L1277.06 72.576 L1268.88 72.576 L1268.88 12.096 Z" fill="#000000" fill-rule="nonzero" fill-opacity="1" /><path clip-path="url(#clip730)" d="M1318.58 9.54393 L1326.04 9.54393 L1326.04 72.576 L1318.58 72.576 L1318.58 9.54393 Z" fill="#000000" fill-rule="nonzero" fill-opacity="1" /><path clip-path="url(#clip730)" d="M1359.21 32.4315 Q1353.22 32.4315 1349.73 37.1306 Q1346.25 41.7891 1346.25 49.9314 Q1346.25 58.0738 1349.69 62.7728 Q1353.18 67.4314 1359.21 67.4314 Q1365.17 67.4314 1368.65 62.7323 Q1372.14 58.0333 1372.14 49.9314 Q1372.14 41.8701 1368.65 37.1711 Q1365.17 32.4315 1359.21 32.4315 M1359.21 26.1121 Q1368.94 26.1121 1374.49 32.4315 Q1380.03 38.7509 1380.03 49.9314 Q1380.03 61.0714 1374.49 67.4314 Q1368.94 73.7508 1359.21 73.7508 Q1349.45 73.7508 1343.9 67.4314 Q1338.39 61.0714 1338.39 49.9314 Q1338.39 38.7509 1343.9 32.4315 Q1349.45 26.1121 1359.21 26.1121 Z" fill="#000000" fill-rule="nonzero" fill-opacity="1" /><path clip-path="url(#clip730)" d="M1399.76 14.324 L1399.76 27.2059 L1415.12 27.2059 L1415.12 32.9987 L1399.76 32.9987 L1399.76 57.6282 Q1399.76 63.1779 1401.26 64.7578 Q1402.8 66.3376 1407.46 66.3376 L1415.12 66.3376 L1415.12 72.576 L1407.46 72.576 Q1398.83 72.576 1395.55 69.3758 Q1392.27 66.1351 1392.27 57.6282 L1392.27 32.9987 L1386.8 32.9987 L1386.8 27.2059 L1392.27 27.2059 L1392.27 14.324 L1399.76 14.324 Z" fill="#000000" fill-rule="nonzero" fill-opacity="1" /><path clip-path="url(#clip730)" d="M1453.84 28.5427 L1453.84 35.5912 Q1450.68 33.9709 1447.28 33.1607 Q1443.88 32.3505 1440.23 32.3505 Q1434.68 32.3505 1431.89 34.0519 Q1429.13 35.7533 1429.13 39.156 Q1429.13 41.7486 1431.12 43.2475 Q1433.1 44.7058 1439.1 46.0426 L1441.65 46.6097 Q1449.59 48.3111 1452.91 51.4303 Q1456.27 54.509 1456.27 60.0587 Q1456.27 66.3781 1451.25 70.0644 Q1446.27 73.7508 1437.52 73.7508 Q1433.87 73.7508 1429.9 73.0216 Q1425.97 72.3329 1421.6 70.9151 L1421.6 63.2184 Q1425.73 65.3654 1429.74 66.4591 Q1433.75 67.5124 1437.68 67.5124 Q1442.95 67.5124 1445.78 65.73 Q1448.62 63.9071 1448.62 60.6258 Q1448.62 57.5877 1446.55 55.9673 Q1444.53 54.3469 1437.6 52.8481 L1435.01 52.2405 Q1428.08 50.7821 1425 47.7845 Q1421.92 44.7463 1421.92 39.4801 Q1421.92 33.0797 1426.46 29.5959 Q1431 26.1121 1439.34 26.1121 Q1443.47 26.1121 1447.12 26.7198 Q1450.76 27.3274 1453.84 28.5427 Z" fill="#000000" fill-rule="nonzero" fill-opacity="1" /><path clip-path="url(#clip730)" d="M1481.39 12.096 L1488.27 12.096 L1467.21 80.2727 L1460.32 80.2727 L1481.39 12.096 Z" fill="#000000" fill-rule="nonzero" fill-opacity="1" /><path clip-path="url(#clip730)" d="M1537.66 63.9476 L1537.66 47.7034 L1524.29 47.7034 L1524.29 40.9789 L1545.76 40.9789 L1545.76 66.9452 Q1541.02 70.3075 1535.31 72.0494 Q1529.59 73.7508 1523.11 73.7508 Q1508.93 73.7508 1500.91 65.4869 Q1492.93 57.1826 1492.93 42.3968 Q1492.93 27.5705 1500.91 19.3066 Q1508.93 11.0023 1523.11 11.0023 Q1529.03 11.0023 1534.33 12.4606 Q1539.68 13.9189 1544.18 16.7545 L1544.18 25.464 Q1539.64 21.6156 1534.54 19.6712 Q1529.43 17.7268 1523.8 17.7268 Q1512.7 17.7268 1507.11 23.9246 Q1501.56 30.1225 1501.56 42.3968 Q1501.56 54.6305 1507.11 60.8284 Q1512.7 67.0263 1523.8 67.0263 Q1528.14 67.0263 1531.54 66.2971 Q1534.94 65.5274 1537.66 63.9476 Z" fill="#000000" fill-rule="nonzero" fill-opacity="1" /><path clip-path="url(#clip730)" d="M1589.39 44.2197 Q1592.02 45.1109 1594.49 48.0275 Q1597 50.9442 1599.51 56.0483 L1607.82 72.576 L1599.03 72.576 L1591.29 57.061 Q1588.29 50.9847 1585.46 48.9997 Q1582.66 47.0148 1577.8 47.0148 L1568.89 47.0148 L1568.89 72.576 L1560.71 72.576 L1560.71 12.096 L1579.18 12.096 Q1589.55 12.096 1594.65 16.4305 Q1599.76 20.7649 1599.76 29.5149 Q1599.76 35.2267 1597.08 38.994 Q1594.45 42.7613 1589.39 44.2197 M1568.89 18.8205 L1568.89 40.2903 L1579.18 40.2903 Q1585.09 40.2903 1588.09 37.5762 Q1591.13 34.8216 1591.13 29.5149 Q1591.13 24.2082 1588.09 21.5346 Q1585.09 18.8205 1579.18 18.8205 L1568.89 18.8205 Z" fill="#000000" fill-rule="nonzero" fill-opacity="1" /><path clip-path="url(#clip730)" d="M1644.72 12.096 L1652.9 12.096 L1652.9 36.8875 L1682.64 36.8875 L1682.64 12.096 L1690.82 12.096 L1690.82 72.576 L1682.64 72.576 L1682.64 43.7741 L1652.9 43.7741 L1652.9 72.576 L1644.72 72.576 L1644.72 12.096 Z" fill="#000000" fill-rule="nonzero" fill-opacity="1" /><path clip-path="url(#clip730)" d="M1706.78 27.2059 L1714.23 27.2059 L1714.23 72.576 L1706.78 72.576 L1706.78 27.2059 M1706.78 9.54393 L1714.23 9.54393 L1714.23 18.9825 L1706.78 18.9825 L1706.78 9.54393 Z" fill="#000000" fill-rule="nonzero" fill-opacity="1" /><path clip-path="url(#clip730)" d="M1758.75 28.5427 L1758.75 35.5912 Q1755.59 33.9709 1752.19 33.1607 Q1748.79 32.3505 1745.14 32.3505 Q1739.59 32.3505 1736.8 34.0519 Q1734.04 35.7533 1734.04 39.156 Q1734.04 41.7486 1736.03 43.2475 Q1738.01 44.7058 1744.01 46.0426 L1746.56 46.6097 Q1754.5 48.3111 1757.82 51.4303 Q1761.18 54.509 1761.18 60.0587 Q1761.18 66.3781 1756.16 70.0644 Q1751.18 73.7508 1742.43 73.7508 Q1738.78 73.7508 1734.81 73.0216 Q1730.88 72.3329 1726.51 70.9151 L1726.51 63.2184 Q1730.64 65.3654 1734.65 66.4591 Q1738.66 67.5124 1742.59 67.5124 Q1747.86 67.5124 1750.69 65.73 Q1753.53 63.9071 1753.53 60.6258 Q1753.53 57.5877 1751.46 55.9673 Q1749.44 54.3469 1742.51 52.8481 L1739.92 52.2405 Q1732.99 50.7821 1729.91 47.7845 Q1726.83 44.7463 1726.83 39.4801 Q1726.83 33.0797 1731.37 29.5959 Q1735.91 26.1121 1744.25 26.1121 Q1748.38 26.1121 1752.03 26.7198 Q1755.68 27.3274 1758.75 28.5427 Z" fill="#000000" fill-rule="nonzero" fill-opacity="1" /><path clip-path="url(#clip730)" d="M1780.43 14.324 L1780.43 27.2059 L1795.78 27.2059 L1795.78 32.9987 L1780.43 32.9987 L1780.43 57.6282 Q1780.43 63.1779 1781.93 64.7578 Q1783.46 66.3376 1788.12 66.3376 L1795.78 66.3376 L1795.78 72.576 L1788.12 72.576 Q1779.49 72.576 1776.21 69.3758 Q1772.93 66.1351 1772.93 57.6282 L1772.93 32.9987 L1767.46 32.9987 L1767.46 27.2059 L1772.93 27.2059 L1772.93 14.324 L1780.43 14.324 Z" fill="#000000" fill-rule="nonzero" fill-opacity="1" /><path clip-path="url(#clip730)" d="M1823.16 32.4315 Q1817.17 32.4315 1813.68 37.1306 Q1810.2 41.7891 1810.2 49.9314 Q1810.2 58.0738 1813.64 62.7728 Q1817.13 67.4314 1823.16 67.4314 Q1829.12 67.4314 1832.6 62.7323 Q1836.09 58.0333 1836.09 49.9314 Q1836.09 41.8701 1832.6 37.1711 Q1829.12 32.4315 1823.16 32.4315 M1823.16 26.1121 Q1832.89 26.1121 1838.44 32.4315 Q1843.98 38.7509 1843.98 49.9314 Q1843.98 61.0714 1838.44 67.4314 Q1832.89 73.7508 1823.16 73.7508 Q1813.4 73.7508 1807.85 67.4314 Q1802.34 61.0714 1802.34 49.9314 Q1802.34 38.7509 1807.85 32.4315 Q1813.4 26.1121 1823.16 26.1121 Z" fill="#000000" fill-rule="nonzero" fill-opacity="1" /><path clip-path="url(#clip730)" d="M1886.2 49.3643 Q1886.2 41.2625 1882.83 36.8065 Q1879.51 32.3505 1873.48 32.3505 Q1867.48 32.3505 1864.12 36.8065 Q1860.8 41.2625 1860.8 49.3643 Q1860.8 57.4256 1864.12 61.8816 Q1867.48 66.3376 1873.48 66.3376 Q1879.51 66.3376 1882.83 61.8816 Q1886.2 57.4256 1886.2 49.3643 M1893.65 66.9452 Q1893.65 78.5308 1888.5 84.1616 Q1883.36 89.8329 1872.75 89.8329 Q1868.82 89.8329 1865.33 89.2252 Q1861.85 88.6581 1858.57 87.4428 L1858.57 80.1917 Q1861.85 81.9741 1865.05 82.8248 Q1868.25 83.6755 1871.57 83.6755 Q1878.9 83.6755 1882.55 79.8271 Q1886.2 76.0193 1886.2 68.282 L1886.2 64.5957 Q1883.89 68.6061 1880.28 70.5911 Q1876.68 72.576 1871.65 72.576 Q1863.31 72.576 1858.2 66.2161 Q1853.1 59.8562 1853.1 49.3643 Q1853.1 38.832 1858.2 32.472 Q1863.31 26.1121 1871.65 26.1121 Q1876.68 26.1121 1880.28 28.0971 Q1883.89 30.082 1886.2 34.0924 L1886.2 27.2059 L1893.65 27.2059 L1893.65 66.9452 Z" fill="#000000" fill-rule="nonzero" fill-opacity="1" /><path clip-path="url(#clip730)" d="M1935.29 34.1734 Q1934.04 33.4443 1932.54 33.1202 Q1931.08 32.7556 1929.3 32.7556 Q1922.98 32.7556 1919.57 36.8875 Q1916.21 40.9789 1916.21 48.6757 L1916.21 72.576 L1908.72 72.576 L1908.72 27.2059 L1916.21 27.2059 L1916.21 34.2544 Q1918.56 30.1225 1922.33 28.1376 Q1926.1 26.1121 1931.48 26.1121 Q1932.25 26.1121 1933.19 26.2337 Q1934.12 26.3147 1935.25 26.5172 L1935.29 34.1734 Z" fill="#000000" fill-rule="nonzero" fill-opacity="1" /><path clip-path="url(#clip730)" d="M1963.73 49.7694 Q1954.7 49.7694 1951.21 51.8354 Q1947.73 53.9013 1947.73 58.8839 Q1947.73 62.8538 1950.32 65.2034 Q1952.95 67.5124 1957.45 67.5124 Q1963.65 67.5124 1967.38 63.1374 Q1971.14 58.7219 1971.14 51.4303 L1971.14 49.7694 L1963.73 49.7694 M1978.6 46.6907 L1978.6 72.576 L1971.14 72.576 L1971.14 65.6895 Q1968.59 69.8214 1964.78 71.8063 Q1960.98 73.7508 1955.47 73.7508 Q1948.5 73.7508 1944.37 69.8619 Q1940.27 65.9325 1940.27 59.3701 Q1940.27 51.7138 1945.38 47.825 Q1950.52 43.9361 1960.69 43.9361 L1971.14 43.9361 L1971.14 43.2069 Q1971.14 38.0623 1967.74 35.2672 Q1964.38 32.4315 1958.26 32.4315 Q1954.37 32.4315 1950.69 33.3632 Q1947 34.295 1943.6 36.1584 L1943.6 29.2718 Q1947.69 27.692 1951.54 26.9223 Q1955.38 26.1121 1959.03 26.1121 Q1968.87 26.1121 1973.74 31.2163 Q1978.6 36.3204 1978.6 46.6907 Z" fill="#000000" fill-rule="nonzero" fill-opacity="1" /><path clip-path="url(#clip730)" d="M2029.27 35.9153 Q2032.07 30.8922 2035.96 28.5022 Q2039.85 26.1121 2045.11 26.1121 Q2052.2 26.1121 2056.05 31.0947 Q2059.9 36.0368 2059.9 45.1919 L2059.9 72.576 L2052.4 72.576 L2052.4 45.4349 Q2052.4 38.913 2050.09 35.7533 Q2047.79 32.5936 2043.05 32.5936 Q2037.25 32.5936 2033.89 36.4419 Q2030.53 40.2903 2030.53 46.9338 L2030.53 72.576 L2023.03 72.576 L2023.03 45.4349 Q2023.03 38.8725 2020.73 35.7533 Q2018.42 32.5936 2013.6 32.5936 Q2007.88 32.5936 2004.52 36.4824 Q2001.16 40.3308 2001.16 46.9338 L2001.16 72.576 L1993.67 72.576 L1993.67 27.2059 L2001.16 27.2059 L2001.16 34.2544 Q2003.71 30.082 2007.28 28.0971 Q2010.84 26.1121 2015.74 26.1121 Q2020.69 26.1121 2024.13 28.6237 Q2027.61 31.1352 2029.27 35.9153 Z" fill="#000000" fill-rule="nonzero" fill-opacity="1" /><path clip-path="url(#clip732)" d="M339.746 1416.86 L339.746 1634 L519.358 1634 L519.358 1416.86 L339.746 1416.86 L339.746 1416.86  Z" fill="#1e90ff" fill-rule="evenodd" fill-opacity="0.5"/>
<polyline clip-path="url(#clip732)" style="stroke:#000000; stroke-linecap:round; stroke-linejoin:round; stroke-width:4; stroke-opacity:0.5; fill:none" points="339.746,1416.86 339.746,1634 519.358,1634 519.358,1416.86 339.746,1416.86 "/>
<path clip-path="url(#clip732)" d="M564.262 1416.86 L564.262 1634 L743.874 1634 L743.874 1416.86 L564.262 1416.86 L564.262 1416.86  Z" fill="#1e90ff" fill-rule="evenodd" fill-opacity="0.5"/>
<polyline clip-path="url(#clip732)" style="stroke:#000000; stroke-linecap:round; stroke-linejoin:round; stroke-width:4; stroke-opacity:0.5; fill:none" points="564.262,1416.86 564.262,1634 743.874,1634 743.874,1416.86 564.262,1416.86 "/>
<path clip-path="url(#clip732)" d="M788.777 1634 L788.777 1634 L968.39 1634 L968.39 1634 L788.777 1634 L788.777 1634  Z" fill="#1e90ff" fill-rule="evenodd" fill-opacity="0.5"/>
<polyline clip-path="url(#clip732)" style="stroke:#000000; stroke-linecap:round; stroke-linejoin:round; stroke-width:4; stroke-opacity:0.5; fill:none" points="788.777,1634 788.777,1634 968.39,1634 788.777,1634 "/>
<path clip-path="url(#clip732)" d="M1013.29 1199.72 L1013.29 1634 L1192.91 1634 L1192.91 1199.72 L1013.29 1199.72 L1013.29 1199.72  Z" fill="#1e90ff" fill-rule="evenodd" fill-opacity="0.5"/>
<polyline clip-path="url(#clip732)" style="stroke:#000000; stroke-linecap:round; stroke-linejoin:round; stroke-width:4; stroke-opacity:0.5; fill:none" points="1013.29,1199.72 1013.29,1634 1192.91,1634 1192.91,1199.72 1013.29,1199.72 "/>
<path clip-path="url(#clip732)" d="M1237.81 1416.86 L1237.81 1634 L1417.42 1634 L1417.42 1416.86 L1237.81 1416.86 L1237.81 1416.86  Z" fill="#1e90ff" fill-rule="evenodd" fill-opacity="0.5"/>
<polyline clip-path="url(#clip732)" style="stroke:#000000; stroke-linecap:round; stroke-linejoin:round; stroke-width:4; stroke-opacity:0.5; fill:none" points="1237.81,1416.86 1237.81,1634 1417.42,1634 1417.42,1416.86 1237.81,1416.86 "/>
<path clip-path="url(#clip732)" d="M1462.32 1416.86 L1462.32 1634 L1641.94 1634 L1641.94 1416.86 L1462.32 1416.86 L1462.32 1416.86  Z" fill="#1e90ff" fill-rule="evenodd" fill-opacity="0.5"/>
<polyline clip-path="url(#clip732)" style="stroke:#000000; stroke-linecap:round; stroke-linejoin:round; stroke-width:4; stroke-opacity:0.5; fill:none" points="1462.32,1416.86 1462.32,1634 1641.94,1634 1641.94,1416.86 1462.32,1416.86 "/>
<path clip-path="url(#clip732)" d="M1686.84 1634 L1686.84 1634 L1866.45 1634 L1866.45 1634 L1686.84 1634 L1686.84 1634  Z" fill="#1e90ff" fill-rule="evenodd" fill-opacity="0.5"/>
<polyline clip-path="url(#clip732)" style="stroke:#000000; stroke-linecap:round; stroke-linejoin:round; stroke-width:4; stroke-opacity:0.5; fill:none" points="1686.84,1634 1686.84,1634 1866.45,1634 1686.84,1634 "/>
<path clip-path="url(#clip732)" d="M1911.36 1199.72 L1911.36 1634 L2090.97 1634 L2090.97 1199.72 L1911.36 1199.72 L1911.36 1199.72  Z" fill="#1e90ff" fill-rule="evenodd" fill-opacity="0.5"/>
<polyline clip-path="url(#clip732)" style="stroke:#000000; stroke-linecap:round; stroke-linejoin:round; stroke-width:4; stroke-opacity:0.5; fill:none" points="1911.36,1199.72 1911.36,1634 2090.97,1634 2090.97,1199.72 1911.36,1199.72 "/>
<path clip-path="url(#clip732)" d="M2135.87 114.022 L2135.87 1634 L2315.48 1634 L2315.48 114.022 L2135.87 114.022 L2135.87 114.022  Z" fill="#1e90ff" fill-rule="evenodd" fill-opacity="0.5"/>
<polyline clip-path="url(#clip732)" style="stroke:#000000; stroke-linecap:round; stroke-linejoin:round; stroke-width:4; stroke-opacity:0.5; fill:none" points="2135.87,114.022 2135.87,1634 2315.48,1634 2315.48,114.022 2135.87,114.022 "/>
<path clip-path="url(#clip732)" d="M2360.39 982.584 L2360.39 1634 L2540 1634 L2540 982.584 L2360.39 982.584 L2360.39 982.584  Z" fill="#1e90ff" fill-rule="evenodd" fill-opacity="0.5"/>
<polyline clip-path="url(#clip732)" style="stroke:#000000; stroke-linecap:round; stroke-linejoin:round; stroke-width:4; stroke-opacity:0.5; fill:none" points="2360.39,982.584 2360.39,1634 2540,1634 2540,982.584 2360.39,982.584 "/>
<path clip-path="url(#clip732)" d="M2584.9 1634 L2584.9 1634 L2764.51 1634 L2764.51 1634 L2584.9 1634 L2584.9 1634  Z" fill="#1e90ff" fill-rule="evenodd" fill-opacity="0.5"/>
<polyline clip-path="url(#clip732)" style="stroke:#000000; stroke-linecap:round; stroke-linejoin:round; stroke-width:4; stroke-opacity:0.5; fill:none" points="2584.9,1634 2584.9,1634 2764.51,1634 2584.9,1634 "/>
<path clip-path="url(#clip732)" d="M2809.42 1199.72 L2809.42 1634 L2989.03 1634 L2989.03 1199.72 L2809.42 1199.72 L2809.42 1199.72  Z" fill="#1e90ff" fill-rule="evenodd" fill-opacity="0.5"/>
<polyline clip-path="url(#clip732)" style="stroke:#000000; stroke-linecap:round; stroke-linejoin:round; stroke-width:4; stroke-opacity:0.5; fill:none" points="2809.42,1199.72 2809.42,1634 2989.03,1634 2989.03,1199.72 2809.42,1199.72 "/>
<circle clip-path="url(#clip732)" style="fill:#1e90ff; stroke:none; fill-opacity:0" cx="429.552" cy="1416.86" r="2"/>
<circle clip-path="url(#clip732)" style="fill:#1e90ff; stroke:none; fill-opacity:0" cx="654.068" cy="1416.86" r="2"/>
<circle clip-path="url(#clip732)" style="fill:#1e90ff; stroke:none; fill-opacity:0" cx="878.583" cy="1634" r="2"/>
<circle clip-path="url(#clip732)" style="fill:#1e90ff; stroke:none; fill-opacity:0" cx="1103.1" cy="1199.72" r="2"/>
<circle clip-path="url(#clip732)" style="fill:#1e90ff; stroke:none; fill-opacity:0" cx="1327.61" cy="1416.86" r="2"/>
<circle clip-path="url(#clip732)" style="fill:#1e90ff; stroke:none; fill-opacity:0" cx="1552.13" cy="1416.86" r="2"/>
<circle clip-path="url(#clip732)" style="fill:#1e90ff; stroke:none; fill-opacity:0" cx="1776.65" cy="1634" r="2"/>
<circle clip-path="url(#clip732)" style="fill:#1e90ff; stroke:none; fill-opacity:0" cx="2001.16" cy="1199.72" r="2"/>
<circle clip-path="url(#clip732)" style="fill:#1e90ff; stroke:none; fill-opacity:0" cx="2225.68" cy="114.022" r="2"/>
<circle clip-path="url(#clip732)" style="fill:#1e90ff; stroke:none; fill-opacity:0" cx="2450.19" cy="982.584" r="2"/>
<circle clip-path="url(#clip732)" style="fill:#1e90ff; stroke:none; fill-opacity:0" cx="2674.71" cy="1634" r="2"/>
<circle clip-path="url(#clip732)" style="fill:#1e90ff; stroke:none; fill-opacity:0" cx="2899.22" cy="1199.72" r="2"/>
<polyline clip-path="url(#clip732)" style="stroke:#008000; stroke-linecap:round; stroke-linejoin:round; stroke-width:4; stroke-opacity:1; fill:none" stroke-dasharray="16, 10" points="1263.01,3153.99 1263.01,-1405.96 "/>
<polyline clip-path="url(#clip732)" style="stroke:#008000; stroke-linecap:round; stroke-linejoin:round; stroke-width:4; stroke-opacity:1; fill:none" stroke-dasharray="16, 10" points="1941.66,3153.99 1941.66,-1405.96 "/>
<polyline clip-path="url(#clip732)" style="stroke:#008000; stroke-linecap:round; stroke-linejoin:round; stroke-width:4; stroke-opacity:1; fill:none" stroke-dasharray="16, 10" points="2620.32,3153.99 2620.32,-1405.96 "/>
</svg>
