<?xml version="1.0" encoding="utf-8"?>
<svg xmlns="http://www.w3.org/2000/svg" xmlns:xlink="http://www.w3.org/1999/xlink" width="800" height="450" viewBox="0 0 3200 1800">
<defs>
  <clipPath id="clip090">
    <rect x="0" y="0" width="3200" height="1800"/>
  </clipPath>
</defs>
<path clip-path="url(#clip090)" d="M0 1800 L3200 1800 L3200 0 L0 0  Z" fill="#ffffff" fill-rule="evenodd" fill-opacity="1"/>
<defs>
  <clipPath id="clip091">
    <rect x="640" y="0" width="2241" height="1800"/>
  </clipPath>
</defs>
<path clip-path="url(#clip090)" d="M176.02 1634 L3152.76 1634 L3152.76 114.022 L176.02 114.022  Z" fill="#ffffff" fill-rule="evenodd" fill-opacity="1"/>
<defs>
  <clipPath id="clip092">
    <rect x="176" y="114" width="2978" height="1521"/>
  </clipPath>
</defs>
<polyline clip-path="url(#clip092)" style="stroke:#000000; stroke-linecap:round; stroke-linejoin:round; stroke-width:2; stroke-opacity:0.1; fill:none" points="670.906,1634 670.906,114.022 "/>
<polyline clip-path="url(#clip092)" style="stroke:#000000; stroke-linecap:round; stroke-linejoin:round; stroke-width:2; stroke-opacity:0.1; fill:none" points="1222.84,1634 1222.84,114.022 "/>
<polyline clip-path="url(#clip092)" style="stroke:#000000; stroke-linecap:round; stroke-linejoin:round; stroke-width:2; stroke-opacity:0.1; fill:none" points="1774.77,1634 1774.77,114.022 "/>
<polyline clip-path="url(#clip092)" style="stroke:#000000; stroke-linecap:round; stroke-linejoin:round; stroke-width:2; stroke-opacity:0.1; fill:none" points="2326.71,1634 2326.71,114.022 "/>
<polyline clip-path="url(#clip092)" style="stroke:#000000; stroke-linecap:round; stroke-linejoin:round; stroke-width:2; stroke-opacity:0.1; fill:none" points="2878.64,1634 2878.64,114.022 "/>
<polyline clip-path="url(#clip090)" style="stroke:#000000; stroke-linecap:round; stroke-linejoin:round; stroke-width:4; stroke-opacity:1; fill:none" points="176.02,1634 3152.76,1634 "/>
<polyline clip-path="url(#clip090)" style="stroke:#000000; stroke-linecap:round; stroke-linejoin:round; stroke-width:4; stroke-opacity:1; fill:none" points="670.906,1634 670.906,1615.11 "/>
<polyline clip-path="url(#clip090)" style="stroke:#000000; stroke-linecap:round; stroke-linejoin:round; stroke-width:4; stroke-opacity:1; fill:none" points="1222.84,1634 1222.84,1615.11 "/>
<polyline clip-path="url(#clip090)" style="stroke:#000000; stroke-linecap:round; stroke-linejoin:round; stroke-width:4; stroke-opacity:1; fill:none" points="1774.77,1634 1774.77,1615.11 "/>
<polyline clip-path="url(#clip090)" style="stroke:#000000; stroke-linecap:round; stroke-linejoin:round; stroke-width:4; stroke-opacity:1; fill:none" points="2326.71,1634 2326.71,1615.11 "/>
<polyline clip-path="url(#clip090)" style="stroke:#000000; stroke-linecap:round; stroke-linejoin:round; stroke-width:4; stroke-opacity:1; fill:none" points="2878.64,1634 2878.64,1615.11 "/>
<path clip-path="url(#clip090)" d="M644.761 1668.24 L666.983 1668.24 L666.983 1670.24 L654.437 1702.8 L649.552 1702.8 L661.358 1672.18 L644.761 1672.18 L644.761 1668.24 Z" fill="#000000" fill-rule="nonzero" fill-opacity="1" /><path clip-path="url(#clip090)" d="M676.15 1668.24 L694.506 1668.24 L694.506 1672.18 L680.432 1672.18 L680.432 1680.65 Q681.45 1680.3 682.469 1680.14 Q683.487 1679.96 684.506 1679.96 Q690.293 1679.96 693.673 1683.13 Q697.052 1686.3 697.052 1691.72 Q697.052 1697.3 693.58 1700.4 Q690.108 1703.48 683.788 1703.48 Q681.612 1703.48 679.344 1703.11 Q677.099 1702.74 674.691 1701.99 L674.691 1697.3 Q676.775 1698.43 678.997 1698.99 Q681.219 1699.54 683.696 1699.54 Q687.7 1699.54 690.038 1697.43 Q692.376 1695.33 692.376 1691.72 Q692.376 1688.11 690.038 1686 Q687.7 1683.89 683.696 1683.89 Q681.821 1683.89 679.946 1684.31 Q678.094 1684.73 676.15 1685.61 L676.15 1668.24 Z" fill="#000000" fill-rule="nonzero" fill-opacity="1" /><path clip-path="url(#clip090)" d="M1182.45 1698.87 L1190.09 1698.87 L1190.09 1672.5 L1181.78 1674.17 L1181.78 1669.91 L1190.04 1668.24 L1194.72 1668.24 L1194.72 1698.87 L1202.35 1698.87 L1202.35 1702.8 L1182.45 1702.8 L1182.45 1698.87 Z" fill="#000000" fill-rule="nonzero" fill-opacity="1" /><path clip-path="url(#clip090)" d="M1221.8 1671.32 Q1218.19 1671.32 1216.36 1674.89 Q1214.55 1678.43 1214.55 1685.56 Q1214.55 1692.67 1216.36 1696.23 Q1218.19 1699.77 1221.8 1699.77 Q1225.43 1699.77 1227.24 1696.23 Q1229.07 1692.67 1229.07 1685.56 Q1229.07 1678.43 1227.24 1674.89 Q1225.43 1671.32 1221.8 1671.32 M1221.8 1667.62 Q1227.61 1667.62 1230.66 1672.23 Q1233.74 1676.81 1233.74 1685.56 Q1233.74 1694.29 1230.66 1698.89 Q1227.61 1703.48 1221.8 1703.48 Q1215.99 1703.48 1212.91 1698.89 Q1209.85 1694.29 1209.85 1685.56 Q1209.85 1676.81 1212.91 1672.23 Q1215.99 1667.62 1221.8 1667.62 Z" fill="#000000" fill-rule="nonzero" fill-opacity="1" /><path clip-path="url(#clip090)" d="M1251.96 1671.32 Q1248.35 1671.32 1246.52 1674.89 Q1244.72 1678.43 1244.72 1685.56 Q1244.72 1692.67 1246.52 1696.23 Q1248.35 1699.77 1251.96 1699.77 Q1255.6 1699.77 1257.4 1696.23 Q1259.23 1692.67 1259.23 1685.56 Q1259.23 1678.43 1257.4 1674.89 Q1255.6 1671.32 1251.96 1671.32 M1251.96 1667.62 Q1257.77 1667.62 1260.83 1672.23 Q1263.91 1676.81 1263.91 1685.56 Q1263.91 1694.29 1260.83 1698.89 Q1257.77 1703.48 1251.96 1703.48 Q1246.15 1703.48 1243.07 1698.89 Q1240.02 1694.29 1240.02 1685.56 Q1240.02 1676.81 1243.07 1672.23 Q1246.15 1667.62 1251.96 1667.62 Z" fill="#000000" fill-rule="nonzero" fill-opacity="1" /><path clip-path="url(#clip090)" d="M1734.88 1698.87 L1742.52 1698.87 L1742.52 1672.5 L1734.21 1674.17 L1734.21 1669.91 L1742.47 1668.24 L1747.15 1668.24 L1747.15 1698.87 L1754.79 1698.87 L1754.79 1702.8 L1734.88 1702.8 L1734.88 1698.87 Z" fill="#000000" fill-rule="nonzero" fill-opacity="1" /><path clip-path="url(#clip090)" d="M1768.26 1698.87 L1784.58 1698.87 L1784.58 1702.8 L1762.63 1702.8 L1762.63 1698.87 Q1765.3 1696.12 1769.88 1691.49 Q1774.49 1686.83 1775.67 1685.49 Q1777.91 1682.97 1778.79 1681.23 Q1779.69 1679.47 1779.69 1677.78 Q1779.69 1675.03 1777.75 1673.29 Q1775.83 1671.56 1772.73 1671.56 Q1770.53 1671.56 1768.07 1672.32 Q1765.64 1673.08 1762.87 1674.63 L1762.87 1669.91 Q1765.69 1668.78 1768.14 1668.2 Q1770.6 1667.62 1772.63 1667.62 Q1778 1667.62 1781.2 1670.31 Q1784.39 1672.99 1784.39 1677.48 Q1784.39 1679.61 1783.58 1681.53 Q1782.8 1683.43 1780.69 1686.02 Q1780.11 1686.69 1777.01 1689.91 Q1773.91 1693.11 1768.26 1698.87 Z" fill="#000000" fill-rule="nonzero" fill-opacity="1" /><path clip-path="url(#clip090)" d="M1794.44 1668.24 L1812.8 1668.24 L1812.8 1672.18 L1798.72 1672.18 L1798.72 1680.65 Q1799.74 1680.3 1800.76 1680.14 Q1801.78 1679.96 1802.8 1679.96 Q1808.58 1679.96 1811.96 1683.13 Q1815.34 1686.3 1815.34 1691.72 Q1815.34 1697.3 1811.87 1700.4 Q1808.4 1703.48 1802.08 1703.48 Q1799.9 1703.48 1797.63 1703.11 Q1795.39 1702.74 1792.98 1701.99 L1792.98 1697.3 Q1795.06 1698.43 1797.29 1698.99 Q1799.51 1699.54 1801.99 1699.54 Q1805.99 1699.54 1808.33 1697.43 Q1810.67 1695.33 1810.67 1691.72 Q1810.67 1688.11 1808.33 1686 Q1805.99 1683.89 1801.99 1683.89 Q1800.11 1683.89 1798.24 1684.31 Q1796.38 1684.73 1794.44 1685.61 L1794.44 1668.24 Z" fill="#000000" fill-rule="nonzero" fill-opacity="1" /><path clip-path="url(#clip090)" d="M2286.32 1698.87 L2293.95 1698.87 L2293.95 1672.5 L2285.64 1674.17 L2285.64 1669.91 L2293.91 1668.24 L2298.58 1668.24 L2298.58 1698.87 L2306.22 1698.87 L2306.22 1702.8 L2286.32 1702.8 L2286.32 1698.87 Z" fill="#000000" fill-rule="nonzero" fill-opacity="1" /><path clip-path="url(#clip090)" d="M2315.71 1668.24 L2334.07 1668.24 L2334.07 1672.18 L2320 1672.18 L2320 1680.65 Q2321.01 1680.3 2322.03 1680.14 Q2323.05 1679.96 2324.07 1679.96 Q2329.86 1679.96 2333.24 1683.13 Q2336.62 1686.3 2336.62 1691.72 Q2336.62 1697.3 2333.14 1700.4 Q2329.67 1703.48 2323.35 1703.48 Q2321.18 1703.48 2318.91 1703.11 Q2316.66 1702.74 2314.26 1701.99 L2314.26 1697.3 Q2316.34 1698.43 2318.56 1698.99 Q2320.78 1699.54 2323.26 1699.54 Q2327.26 1699.54 2329.6 1697.43 Q2331.94 1695.33 2331.94 1691.72 Q2331.94 1688.11 2329.6 1686 Q2327.26 1683.89 2323.26 1683.89 Q2321.39 1683.89 2319.51 1684.31 Q2317.66 1684.73 2315.71 1685.61 L2315.71 1668.24 Z" fill="#000000" fill-rule="nonzero" fill-opacity="1" /><path clip-path="url(#clip090)" d="M2355.83 1671.32 Q2352.22 1671.32 2350.39 1674.89 Q2348.58 1678.43 2348.58 1685.56 Q2348.58 1692.67 2350.39 1696.23 Q2352.22 1699.77 2355.83 1699.77 Q2359.46 1699.77 2361.27 1696.23 Q2363.1 1692.67 2363.1 1685.56 Q2363.1 1678.43 2361.27 1674.89 Q2359.46 1671.32 2355.83 1671.32 M2355.83 1667.62 Q2361.64 1667.62 2364.7 1672.23 Q2367.77 1676.81 2367.77 1685.56 Q2367.77 1694.29 2364.7 1698.89 Q2361.64 1703.48 2355.83 1703.48 Q2350.02 1703.48 2346.94 1698.89 Q2343.88 1694.29 2343.88 1685.56 Q2343.88 1676.81 2346.94 1672.23 Q2350.02 1667.62 2355.83 1667.62 Z" fill="#000000" fill-rule="nonzero" fill-opacity="1" /><path clip-path="url(#clip090)" d="M2838.75 1698.87 L2846.39 1698.87 L2846.39 1672.5 L2838.08 1674.17 L2838.08 1669.91 L2846.34 1668.24 L2851.02 1668.24 L2851.02 1698.87 L2858.65 1698.87 L2858.65 1702.8 L2838.75 1702.8 L2838.75 1698.87 Z" fill="#000000" fill-rule="nonzero" fill-opacity="1" /><path clip-path="url(#clip090)" d="M2866.92 1668.24 L2889.14 1668.24 L2889.14 1670.24 L2876.59 1702.8 L2871.71 1702.8 L2883.52 1672.18 L2866.92 1672.18 L2866.92 1668.24 Z" fill="#000000" fill-rule="nonzero" fill-opacity="1" /><path clip-path="url(#clip090)" d="M2898.31 1668.24 L2916.66 1668.24 L2916.66 1672.18 L2902.59 1672.18 L2902.59 1680.65 Q2903.61 1680.3 2904.63 1680.14 Q2905.65 1679.96 2906.66 1679.96 Q2912.45 1679.96 2915.83 1683.13 Q2919.21 1686.3 2919.21 1691.72 Q2919.21 1697.3 2915.74 1700.4 Q2912.27 1703.48 2905.95 1703.48 Q2903.77 1703.48 2901.5 1703.11 Q2899.26 1702.74 2896.85 1701.99 L2896.85 1697.3 Q2898.93 1698.43 2901.15 1698.99 Q2903.38 1699.54 2905.85 1699.54 Q2909.86 1699.54 2912.2 1697.43 Q2914.53 1695.33 2914.53 1691.72 Q2914.53 1688.11 2912.2 1686 Q2909.86 1683.89 2905.85 1683.89 Q2903.98 1683.89 2902.1 1684.31 Q2900.25 1684.73 2898.31 1685.61 L2898.31 1668.24 Z" fill="#000000" fill-rule="nonzero" fill-opacity="1" /><path clip-path="url(#clip090)" d="M1474.39 1747.71 Q1467.39 1747.71 1463.25 1752.93 Q1459.14 1758.15 1459.14 1767.16 Q1459.14 1776.13 1463.25 1781.35 Q1467.39 1786.57 1474.39 1786.57 Q1481.39 1786.57 1485.46 1781.35 Q1489.57 1776.13 1489.57 1767.16 Q1489.57 1758.15 1485.46 1752.93 Q1481.39 1747.71 1474.39 1747.71 M1474.39 1742.49 Q1484.38 1742.49 1490.37 1749.21 Q1496.35 1755.89 1496.35 1767.16 Q1496.35 1778.39 1490.37 1785.11 Q1484.38 1791.79 1474.39 1791.79 Q1464.36 1791.79 1458.35 1785.11 Q1452.36 1778.42 1452.36 1767.16 Q1452.36 1755.89 1458.35 1749.21 Q1464.36 1742.49 1474.39 1742.49 Z" fill="#000000" fill-rule="nonzero" fill-opacity="1" /><path clip-path="url(#clip090)" d="M1531.74 1773.08 Q1531.74 1766.62 1529.07 1762.96 Q1526.43 1759.26 1521.78 1759.26 Q1517.13 1759.26 1514.46 1762.96 Q1511.82 1766.62 1511.82 1773.08 Q1511.82 1779.54 1514.46 1783.23 Q1517.13 1786.89 1521.78 1786.89 Q1526.43 1786.89 1529.07 1783.23 Q1531.74 1779.54 1531.74 1773.08 M1511.82 1760.63 Q1513.66 1757.45 1516.46 1755.92 Q1519.3 1754.36 1523.21 1754.36 Q1529.71 1754.36 1533.75 1759.52 Q1537.82 1764.67 1537.82 1773.08 Q1537.82 1781.48 1533.75 1786.64 Q1529.71 1791.79 1523.21 1791.79 Q1519.3 1791.79 1516.46 1790.26 Q1513.66 1788.7 1511.82 1785.52 L1511.82 1790.87 L1505.93 1790.87 L1505.93 1741.34 L1511.82 1741.34 L1511.82 1760.63 Z" fill="#000000" fill-rule="nonzero" fill-opacity="1" /><path clip-path="url(#clip090)" d="M1570.26 1756.27 L1570.26 1761.81 Q1567.77 1760.54 1565.1 1759.9 Q1562.43 1759.26 1559.56 1759.26 Q1555.2 1759.26 1553 1760.6 Q1550.84 1761.94 1550.84 1764.61 Q1550.84 1766.65 1552.4 1767.82 Q1553.96 1768.97 1558.67 1770.02 L1560.67 1770.47 Q1566.91 1771.8 1569.52 1774.25 Q1572.16 1776.67 1572.16 1781.03 Q1572.16 1786 1568.22 1788.9 Q1564.3 1791.79 1557.43 1791.79 Q1554.56 1791.79 1551.44 1791.22 Q1548.36 1790.68 1544.92 1789.56 L1544.92 1783.52 Q1548.17 1785.2 1551.32 1786.06 Q1554.47 1786.89 1557.56 1786.89 Q1561.69 1786.89 1563.92 1785.49 Q1566.15 1784.06 1566.15 1781.48 Q1566.15 1779.09 1564.53 1777.82 Q1562.93 1776.55 1557.49 1775.37 L1555.45 1774.89 Q1550.01 1773.75 1547.59 1771.39 Q1545.17 1769 1545.17 1764.86 Q1545.17 1759.84 1548.74 1757.1 Q1552.3 1754.36 1558.86 1754.36 Q1562.11 1754.36 1564.97 1754.84 Q1567.84 1755.32 1570.26 1756.27 Z" fill="#000000" fill-rule="nonzero" fill-opacity="1" /><path clip-path="url(#clip090)" d="M1611.98 1771.58 L1611.98 1774.45 L1585.06 1774.45 Q1585.44 1780.49 1588.68 1783.68 Q1591.96 1786.83 1597.79 1786.83 Q1601.16 1786.83 1604.31 1786 Q1607.49 1785.17 1610.61 1783.52 L1610.61 1789.05 Q1607.46 1790.39 1604.15 1791.09 Q1600.84 1791.79 1597.44 1791.79 Q1588.91 1791.79 1583.91 1786.83 Q1578.94 1781.86 1578.94 1773.39 Q1578.94 1764.64 1583.65 1759.52 Q1588.4 1754.36 1596.42 1754.36 Q1603.61 1754.36 1607.78 1759.01 Q1611.98 1763.62 1611.98 1771.58 M1606.13 1769.86 Q1606.06 1765.06 1603.42 1762.19 Q1600.81 1759.33 1596.48 1759.33 Q1591.58 1759.33 1588.62 1762.1 Q1585.69 1764.86 1585.25 1769.89 L1606.13 1769.86 Z" fill="#000000" fill-rule="nonzero" fill-opacity="1" /><path clip-path="url(#clip090)" d="M1642.25 1760.7 Q1641.26 1760.12 1640.09 1759.87 Q1638.94 1759.58 1637.54 1759.58 Q1632.58 1759.58 1629.9 1762.83 Q1627.26 1766.04 1627.26 1772.09 L1627.26 1790.87 L1621.37 1790.87 L1621.37 1755.22 L1627.26 1755.22 L1627.26 1760.76 Q1629.11 1757.51 1632.07 1755.95 Q1635.03 1754.36 1639.26 1754.36 Q1639.86 1754.36 1640.6 1754.46 Q1641.33 1754.52 1642.22 1754.68 L1642.25 1760.7 Z" fill="#000000" fill-rule="nonzero" fill-opacity="1" /><path clip-path="url(#clip090)" d="M1644.19 1755.22 L1650.4 1755.22 L1661.54 1785.14 L1672.68 1755.22 L1678.89 1755.22 L1665.52 1790.87 L1657.56 1790.87 L1644.19 1755.22 Z" fill="#000000" fill-rule="nonzero" fill-opacity="1" /><path clip-path="url(#clip090)" d="M1703.17 1772.95 Q1696.07 1772.95 1693.34 1774.57 Q1690.6 1776.2 1690.6 1780.11 Q1690.6 1783.23 1692.64 1785.08 Q1694.7 1786.89 1698.24 1786.89 Q1703.11 1786.89 1706.04 1783.45 Q1709 1779.98 1709 1774.25 L1709 1772.95 L1703.17 1772.95 M1714.85 1770.53 L1714.85 1790.87 L1709 1790.87 L1709 1785.46 Q1706.99 1788.7 1704 1790.26 Q1701.01 1791.79 1696.68 1791.79 Q1691.2 1791.79 1687.96 1788.74 Q1684.74 1785.65 1684.74 1780.49 Q1684.74 1774.48 1688.75 1771.42 Q1692.8 1768.37 1700.78 1768.37 L1709 1768.37 L1709 1767.79 Q1709 1763.75 1706.32 1761.55 Q1703.68 1759.33 1698.87 1759.33 Q1695.82 1759.33 1692.92 1760.06 Q1690.03 1760.79 1687.35 1762.25 L1687.35 1756.84 Q1690.57 1755.6 1693.59 1755 Q1696.61 1754.36 1699.48 1754.36 Q1707.21 1754.36 1711.03 1758.37 Q1714.85 1762.38 1714.85 1770.53 Z" fill="#000000" fill-rule="nonzero" fill-opacity="1" /><path clip-path="url(#clip090)" d="M1732.71 1745.1 L1732.71 1755.22 L1744.77 1755.22 L1744.77 1759.77 L1732.71 1759.77 L1732.71 1779.12 Q1732.71 1783.48 1733.89 1784.73 Q1735.1 1785.97 1738.76 1785.97 L1744.77 1785.97 L1744.77 1790.87 L1738.76 1790.87 Q1731.98 1790.87 1729.4 1788.35 Q1726.82 1785.81 1726.82 1779.12 L1726.82 1759.77 L1722.52 1759.77 L1722.52 1755.22 L1726.82 1755.22 L1726.82 1745.1 L1732.71 1745.1 Z" fill="#000000" fill-rule="nonzero" fill-opacity="1" /><path clip-path="url(#clip090)" d="M1752.47 1755.22 L1758.33 1755.22 L1758.33 1790.87 L1752.47 1790.87 L1752.47 1755.22 M1752.47 1741.34 L1758.33 1741.34 L1758.33 1748.76 L1752.47 1748.76 L1752.47 1741.34 Z" fill="#000000" fill-rule="nonzero" fill-opacity="1" /><path clip-path="url(#clip090)" d="M1784.4 1759.33 Q1779.69 1759.33 1776.95 1763.02 Q1774.21 1766.68 1774.21 1773.08 Q1774.21 1779.47 1776.92 1783.17 Q1779.66 1786.83 1784.4 1786.83 Q1789.08 1786.83 1791.81 1783.13 Q1794.55 1779.44 1794.55 1773.08 Q1794.55 1766.74 1791.81 1763.05 Q1789.08 1759.33 1784.4 1759.33 M1784.4 1754.36 Q1792.04 1754.36 1796.4 1759.33 Q1800.76 1764.29 1800.76 1773.08 Q1800.76 1781.83 1796.4 1786.83 Q1792.04 1791.79 1784.4 1791.79 Q1776.73 1791.79 1772.37 1786.83 Q1768.04 1781.83 1768.04 1773.08 Q1768.04 1764.29 1772.37 1759.33 Q1776.73 1754.36 1784.4 1754.36 Z" fill="#000000" fill-rule="nonzero" fill-opacity="1" /><path clip-path="url(#clip090)" d="M1840.1 1769.35 L1840.1 1790.87 L1834.24 1790.87 L1834.24 1769.54 Q1834.24 1764.48 1832.27 1761.97 Q1830.29 1759.45 1826.35 1759.45 Q1821.61 1759.45 1818.87 1762.48 Q1816.13 1765.5 1816.13 1770.72 L1816.13 1790.87 L1810.24 1790.87 L1810.24 1755.22 L1816.13 1755.22 L1816.13 1760.76 Q1818.23 1757.54 1821.06 1755.95 Q1823.93 1754.36 1827.65 1754.36 Q1833.8 1754.36 1836.95 1758.18 Q1840.1 1761.97 1840.1 1769.35 Z" fill="#000000" fill-rule="nonzero" fill-opacity="1" /><path clip-path="url(#clip090)" d="M1874.5 1756.27 L1874.5 1761.81 Q1872.02 1760.54 1869.35 1759.9 Q1866.67 1759.26 1863.81 1759.26 Q1859.45 1759.26 1857.25 1760.6 Q1855.09 1761.94 1855.09 1764.61 Q1855.09 1766.65 1856.65 1767.82 Q1858.21 1768.97 1862.92 1770.02 L1864.92 1770.47 Q1871.16 1771.8 1873.77 1774.25 Q1876.41 1776.67 1876.41 1781.03 Q1876.41 1786 1872.47 1788.9 Q1868.55 1791.79 1861.68 1791.79 Q1858.81 1791.79 1855.69 1791.22 Q1852.61 1790.68 1849.17 1789.56 L1849.17 1783.52 Q1852.42 1785.2 1855.57 1786.06 Q1858.72 1786.89 1861.8 1786.89 Q1865.94 1786.89 1868.17 1785.49 Q1870.4 1784.06 1870.4 1781.48 Q1870.4 1779.09 1868.77 1777.82 Q1867.18 1776.55 1861.74 1775.37 L1859.7 1774.89 Q1854.26 1773.75 1851.84 1771.39 Q1849.42 1769 1849.42 1764.86 Q1849.42 1759.84 1852.99 1757.1 Q1856.55 1754.36 1863.11 1754.36 Q1866.36 1754.36 1869.22 1754.84 Q1872.09 1755.32 1874.5 1756.27 Z" fill="#000000" fill-rule="nonzero" fill-opacity="1" /><polyline clip-path="url(#clip092)" style="stroke:#000000; stroke-linecap:round; stroke-linejoin:round; stroke-width:2; stroke-opacity:0.1; fill:none" points="176.02,1634 3152.76,1634 "/>
<polyline clip-path="url(#clip092)" style="stroke:#000000; stroke-linecap:round; stroke-linejoin:round; stroke-width:2; stroke-opacity:0.1; fill:none" points="176.02,1416.86 3152.76,1416.86 "/>
<polyline clip-path="url(#clip092)" style="stroke:#000000; stroke-linecap:round; stroke-linejoin:round; stroke-width:2; stroke-opacity:0.1; fill:none" points="176.02,1199.72 3152.76,1199.72 "/>
<polyline clip-path="url(#clip092)" style="stroke:#000000; stroke-linecap:round; stroke-linejoin:round; stroke-width:2; stroke-opacity:0.1; fill:none" points="176.02,982.584 3152.76,982.584 "/>
<polyline clip-path="url(#clip092)" style="stroke:#000000; stroke-linecap:round; stroke-linejoin:round; stroke-width:2; stroke-opacity:0.1; fill:none" points="176.02,765.443 3152.76,765.443 "/>
<polyline clip-path="url(#clip092)" style="stroke:#000000; stroke-linecap:round; stroke-linejoin:round; stroke-width:2; stroke-opacity:0.1; fill:none" points="176.02,548.303 3152.76,548.303 "/>
<polyline clip-path="url(#clip092)" style="stroke:#000000; stroke-linecap:round; stroke-linejoin:round; stroke-width:2; stroke-opacity:0.1; fill:none" points="176.02,331.163 3152.76,331.163 "/>
<polyline clip-path="url(#clip092)" style="stroke:#000000; stroke-linecap:round; stroke-linejoin:round; stroke-width:2; stroke-opacity:0.1; fill:none" points="176.02,114.022 3152.76,114.022 "/>
<polyline clip-path="url(#clip090)" style="stroke:#000000; stroke-linecap:round; stroke-linejoin:round; stroke-width:4; stroke-opacity:1; fill:none" points="176.02,1634 176.02,114.022 "/>
<polyline clip-path="url(#clip090)" style="stroke:#000000; stroke-linecap:round; stroke-linejoin:round; stroke-width:4; stroke-opacity:1; fill:none" points="176.02,1634 194.918,1634 "/>
<polyline clip-path="url(#clip090)" style="stroke:#000000; stroke-linecap:round; stroke-linejoin:round; stroke-width:4; stroke-opacity:1; fill:none" points="176.02,1416.86 194.918,1416.86 "/>
<polyline clip-path="url(#clip090)" style="stroke:#000000; stroke-linecap:round; stroke-linejoin:round; stroke-width:4; stroke-opacity:1; fill:none" points="176.02,1199.72 194.918,1199.72 "/>
<polyline clip-path="url(#clip090)" style="stroke:#000000; stroke-linecap:round; stroke-linejoin:round; stroke-width:4; stroke-opacity:1; fill:none" points="176.02,982.584 194.918,982.584 "/>
<polyline clip-path="url(#clip090)" style="stroke:#000000; stroke-linecap:round; stroke-linejoin:round; stroke-width:4; stroke-opacity:1; fill:none" points="176.02,765.443 194.918,765.443 "/>
<polyline clip-path="url(#clip090)" style="stroke:#000000; stroke-linecap:round; stroke-linejoin:round; stroke-width:4; stroke-opacity:1; fill:none" points="176.02,548.303 194.918,548.303 "/>
<polyline clip-path="url(#clip090)" style="stroke:#000000; stroke-linecap:round; stroke-linejoin:round; stroke-width:4; stroke-opacity:1; fill:none" points="176.02,331.163 194.918,331.163 "/>
<polyline clip-path="url(#clip090)" style="stroke:#000000; stroke-linecap:round; stroke-linejoin:round; stroke-width:4; stroke-opacity:1; fill:none" points="176.02,114.022 194.918,114.022 "/>
<path clip-path="url(#clip090)" d="M116.076 1619.8 Q112.465 1619.8 110.636 1623.37 Q108.83 1626.91 108.83 1634.04 Q108.83 1641.15 110.636 1644.71 Q112.465 1648.25 116.076 1648.25 Q119.71 1648.25 121.516 1644.71 Q123.344 1641.15 123.344 1634.04 Q123.344 1626.91 121.516 1623.37 Q119.71 1619.8 116.076 1619.8 M116.076 1616.1 Q121.886 1616.1 124.942 1620.71 Q128.02 1625.29 128.02 1634.04 Q128.02 1642.77 124.942 1647.37 Q121.886 1651.96 116.076 1651.96 Q110.266 1651.96 107.187 1647.37 Q104.131 1642.77 104.131 1634.04 Q104.131 1625.29 107.187 1620.71 Q110.266 1616.1 116.076 1616.1 Z" fill="#000000" fill-rule="nonzero" fill-opacity="1" /><path clip-path="url(#clip090)" d="M108.113 1430.21 L115.752 1430.21 L115.752 1403.84 L107.442 1405.51 L107.442 1401.25 L115.705 1399.58 L120.381 1399.58 L120.381 1430.21 L128.02 1430.21 L128.02 1434.14 L108.113 1434.14 L108.113 1430.21 Z" fill="#000000" fill-rule="nonzero" fill-opacity="1" /><path clip-path="url(#clip090)" d="M111.701 1213.07 L128.02 1213.07 L128.02 1217 L106.076 1217 L106.076 1213.07 Q108.738 1210.31 113.321 1205.68 Q117.928 1201.03 119.108 1199.69 Q121.354 1197.17 122.233 1195.43 Q123.136 1193.67 123.136 1191.98 Q123.136 1189.23 121.192 1187.49 Q119.27 1185.75 116.168 1185.75 Q113.969 1185.75 111.516 1186.52 Q109.085 1187.28 106.307 1188.83 L106.307 1184.11 Q109.131 1182.98 111.585 1182.4 Q114.039 1181.82 116.076 1181.82 Q121.446 1181.82 124.641 1184.5 Q127.835 1187.19 127.835 1191.68 Q127.835 1193.81 127.025 1195.73 Q126.238 1197.63 124.131 1200.22 Q123.553 1200.89 120.451 1204.11 Q117.349 1207.31 111.701 1213.07 Z" fill="#000000" fill-rule="nonzero" fill-opacity="1" /><path clip-path="url(#clip090)" d="M120.891 981.23 Q124.247 981.947 126.122 984.216 Q128.02 986.484 128.02 989.817 Q128.02 994.933 124.502 997.734 Q120.983 1000.53 114.502 1000.53 Q112.326 1000.53 110.011 1000.1 Q107.719 999.678 105.266 998.822 L105.266 994.308 Q107.21 995.442 109.525 996.021 Q111.84 996.6 114.363 996.6 Q118.761 996.6 121.053 994.864 Q123.367 993.128 123.367 989.817 Q123.367 986.762 121.215 985.049 Q119.085 983.313 115.266 983.313 L111.238 983.313 L111.238 979.47 L115.451 979.47 Q118.9 979.47 120.729 978.105 Q122.557 976.716 122.557 974.123 Q122.557 971.461 120.659 970.049 Q118.784 968.614 115.266 968.614 Q113.344 968.614 111.145 969.031 Q108.946 969.447 106.307 970.327 L106.307 966.16 Q108.969 965.419 111.284 965.049 Q113.622 964.679 115.682 964.679 Q121.006 964.679 124.108 967.109 Q127.21 969.517 127.21 973.637 Q127.21 976.507 125.567 978.498 Q123.923 980.466 120.891 981.23 Z" fill="#000000" fill-rule="nonzero" fill-opacity="1" /><path clip-path="url(#clip090)" d="M118.437 752.237 L106.631 770.686 L118.437 770.686 L118.437 752.237 M117.21 748.163 L123.09 748.163 L123.09 770.686 L128.02 770.686 L128.02 774.575 L123.09 774.575 L123.09 782.723 L118.437 782.723 L118.437 774.575 L102.835 774.575 L102.835 770.061 L117.21 748.163 Z" fill="#000000" fill-rule="nonzero" fill-opacity="1" /><path clip-path="url(#clip090)" d="M107.118 531.023 L125.474 531.023 L125.474 534.958 L111.4 534.958 L111.4 543.43 Q112.418 543.083 113.437 542.921 Q114.455 542.736 115.474 542.736 Q121.261 542.736 124.641 545.907 Q128.02 549.078 128.02 554.495 Q128.02 560.074 124.548 563.176 Q121.076 566.254 114.756 566.254 Q112.58 566.254 110.312 565.884 Q108.067 565.513 105.659 564.773 L105.659 560.074 Q107.743 561.208 109.965 561.763 Q112.187 562.319 114.664 562.319 Q118.668 562.319 121.006 560.213 Q123.344 558.106 123.344 554.495 Q123.344 550.884 121.006 548.777 Q118.668 546.671 114.664 546.671 Q112.789 546.671 110.914 547.088 Q109.062 547.504 107.118 548.384 L107.118 531.023 Z" fill="#000000" fill-rule="nonzero" fill-opacity="1" /><path clip-path="url(#clip090)" d="M116.492 329.299 Q113.344 329.299 111.493 331.452 Q109.664 333.605 109.664 337.355 Q109.664 341.081 111.493 343.257 Q113.344 345.41 116.492 345.41 Q119.641 345.41 121.469 343.257 Q123.321 341.081 123.321 337.355 Q123.321 333.605 121.469 331.452 Q119.641 329.299 116.492 329.299 M125.775 314.646 L125.775 318.906 Q124.016 318.072 122.21 317.632 Q120.428 317.193 118.668 317.193 Q114.039 317.193 111.585 320.318 Q109.155 323.443 108.807 329.762 Q110.173 327.748 112.233 326.683 Q114.293 325.595 116.77 325.595 Q121.979 325.595 124.988 328.767 Q128.02 331.915 128.02 337.355 Q128.02 342.679 124.872 345.896 Q121.724 349.114 116.492 349.114 Q110.497 349.114 107.326 344.53 Q104.155 339.924 104.155 331.197 Q104.155 323.003 108.043 318.142 Q111.932 313.258 118.483 313.258 Q120.242 313.258 122.025 313.605 Q123.83 313.952 125.775 314.646 Z" fill="#000000" fill-rule="nonzero" fill-opacity="1" /><path clip-path="url(#clip090)" d="M105.798 96.7421 L128.02 96.7421 L128.02 98.7329 L115.474 131.302 L110.59 131.302 L122.395 100.677 L105.798 100.677 L105.798 96.7421 Z" fill="#000000" fill-rule="nonzero" fill-opacity="1" /><path clip-path="url(#clip090)" d="M-3.28056 929.873 L3.49892 929.873 Q0.475206 933.119 -1.02074 936.811 Q-2.51668 940.471 -2.51668 944.609 Q-2.51668 952.757 2.4804 957.086 Q7.44565 961.415 16.8669 961.415 Q26.2563 961.415 31.2534 957.086 Q36.2186 952.757 36.2186 944.609 Q36.2186 940.471 34.7227 936.811 Q33.2268 933.119 30.2031 929.873 L36.9189 929.873 Q39.2105 933.246 40.3564 937.034 Q41.5022 940.79 41.5022 944.991 Q41.5022 955.781 34.9137 961.988 Q28.2933 968.194 16.8669 968.194 Q5.40863 968.194 -1.17988 961.988 Q-7.80021 955.781 -7.80021 944.991 Q-7.80021 940.726 -6.65439 936.97 Q-5.54039 933.183 -3.28056 929.873 Z" fill="#000000" fill-rule="nonzero" fill-opacity="1" /><path clip-path="url(#clip090)" d="M9.03708 906.383 Q9.03708 911.094 12.7292 913.831 Q16.3895 916.568 22.787 916.568 Q29.1845 916.568 32.8767 913.863 Q36.5369 911.126 36.5369 906.383 Q36.5369 901.704 32.8448 898.967 Q29.1527 896.23 22.787 896.23 Q16.4531 896.23 12.761 898.967 Q9.03708 901.704 9.03708 906.383 M4.07183 906.383 Q4.07183 898.744 9.03708 894.384 Q14.0023 890.023 22.787 890.023 Q31.5399 890.023 36.5369 894.384 Q41.5022 898.744 41.5022 906.383 Q41.5022 914.054 36.5369 918.414 Q31.5399 922.743 22.787 922.743 Q14.0023 922.743 9.03708 918.414 Q4.07183 914.054 4.07183 906.383 Z" fill="#000000" fill-rule="nonzero" fill-opacity="1" /><path clip-path="url(#clip090)" d="M26.5109 880.92 L4.9312 880.92 L4.9312 875.064 L26.2881 875.064 Q31.3489 875.064 33.8952 873.09 Q36.4096 871.117 36.4096 867.17 Q36.4096 862.428 33.3859 859.691 Q30.3622 856.922 25.1423 856.922 L4.9312 856.922 L4.9312 851.065 L40.5792 851.065 L40.5792 856.922 L35.1046 856.922 Q38.3512 859.054 39.9426 861.887 Q41.5022 864.688 41.5022 868.412 Q41.5022 874.555 37.6828 877.737 Q33.8633 880.92 26.5109 880.92 M4.07183 866.184 L4.07183 866.184 Z" fill="#000000" fill-rule="nonzero" fill-opacity="1" /><path clip-path="url(#clip090)" d="M19.0631 809.37 L40.5792 809.37 L40.5792 815.226 L19.254 815.226 Q14.1933 815.226 11.6788 817.2 Q9.1644 819.173 9.1644 823.12 Q9.1644 827.862 12.1881 830.599 Q15.2118 833.337 20.4317 833.337 L40.5792 833.337 L40.5792 839.225 L4.9312 839.225 L4.9312 833.337 L10.4694 833.337 Q7.25468 831.236 5.66326 828.403 Q4.07183 825.539 4.07183 821.815 Q4.07183 815.672 7.89125 812.521 Q11.6788 809.37 19.0631 809.37 Z" fill="#000000" fill-rule="nonzero" fill-opacity="1" /><path clip-path="url(#clip090)" d="M-5.19027 791.896 L4.9312 791.896 L4.9312 779.833 L9.48268 779.833 L9.48268 791.896 L28.8344 791.896 Q33.1949 791.896 34.4363 790.718 Q35.6776 789.509 35.6776 785.848 L35.6776 779.833 L40.5792 779.833 L40.5792 785.848 Q40.5792 792.628 38.0647 795.206 Q35.5184 797.784 28.8344 797.784 L9.48268 797.784 L9.48268 802.081 L4.9312 802.081 L4.9312 797.784 L-5.19027 797.784 L-5.19027 791.896 Z" fill="#000000" fill-rule="nonzero" fill-opacity="1" /><path clip-path="url(#clip090)" d="M1108.73 14.0809 L1108.73 22.0612 Q1104.07 19.8332 1099.94 18.7395 Q1095.8 17.6457 1091.95 17.6457 Q1085.27 17.6457 1081.62 20.2383 Q1078.02 22.8309 1078.02 27.611 Q1078.02 31.6214 1080.41 33.6873 Q1082.84 35.7128 1089.56 36.9686 L1094.51 37.9813 Q1103.66 39.7232 1108 44.1387 Q1112.37 48.5136 1112.37 55.8863 Q1112.37 64.6767 1106.46 69.2137 Q1100.58 73.7508 1089.2 73.7508 Q1084.91 73.7508 1080.05 72.7785 Q1075.22 71.8063 1070.04 69.9024 L1070.04 61.4765 Q1075.02 64.2716 1079.8 65.6895 Q1084.58 67.1073 1089.2 67.1073 Q1096.21 67.1073 1100.02 64.3527 Q1103.82 61.598 1103.82 56.4939 Q1103.82 52.0379 1101.07 49.5264 Q1098.36 47.0148 1092.12 45.759 L1087.13 44.7868 Q1077.98 42.9639 1073.89 39.075 Q1069.8 35.1862 1069.8 28.2591 Q1069.8 20.2383 1075.43 15.6203 Q1081.1 11.0023 1091.02 11.0023 Q1095.28 11.0023 1099.69 11.7719 Q1104.11 12.5416 1108.73 14.0809 Z" fill="#000000" fill-rule="nonzero" fill-opacity="1" /><path clip-path="url(#clip090)" d="M1132.18 14.324 L1132.18 27.2059 L1147.53 27.2059 L1147.53 32.9987 L1132.18 32.9987 L1132.18 57.6282 Q1132.18 63.1779 1133.68 64.7578 Q1135.22 66.3376 1139.88 66.3376 L1147.53 66.3376 L1147.53 72.576 L1139.88 72.576 Q1131.25 72.576 1127.97 69.3758 Q1124.69 66.1351 1124.69 57.6282 L1124.69 32.9987 L1119.22 32.9987 L1119.22 27.2059 L1124.69 27.2059 L1124.69 14.324 L1132.18 14.324 Z" fill="#000000" fill-rule="nonzero" fill-opacity="1" /><path clip-path="url(#clip090)" d="M1177.96 49.7694 Q1168.92 49.7694 1165.44 51.8354 Q1161.95 53.9013 1161.95 58.8839 Q1161.95 62.8538 1164.55 65.2034 Q1167.18 67.5124 1171.68 67.5124 Q1177.87 67.5124 1181.6 63.1374 Q1185.37 58.7219 1185.37 51.4303 L1185.37 49.7694 L1177.96 49.7694 M1192.82 46.6907 L1192.82 72.576 L1185.37 72.576 L1185.37 65.6895 Q1182.82 69.8214 1179.01 71.8063 Q1175.2 73.7508 1169.69 73.7508 Q1162.72 73.7508 1158.59 69.8619 Q1154.5 65.9325 1154.5 59.3701 Q1154.5 51.7138 1159.6 47.825 Q1164.75 43.9361 1174.92 43.9361 L1185.37 43.9361 L1185.37 43.2069 Q1185.37 38.0623 1181.97 35.2672 Q1178.6 32.4315 1172.49 32.4315 Q1168.6 32.4315 1164.91 33.3632 Q1161.23 34.295 1157.82 36.1584 L1157.82 29.2718 Q1161.91 27.692 1165.76 26.9223 Q1169.61 26.1121 1173.26 26.1121 Q1183.1 26.1121 1187.96 31.2163 Q1192.82 36.3204 1192.82 46.6907 Z" fill="#000000" fill-rule="nonzero" fill-opacity="1" /><path clip-path="url(#clip090)" d="M1215.55 14.324 L1215.55 27.2059 L1230.9 27.2059 L1230.9 32.9987 L1215.55 32.9987 L1215.55 57.6282 Q1215.55 63.1779 1217.05 64.7578 Q1218.59 66.3376 1223.24 66.3376 L1230.9 66.3376 L1230.9 72.576 L1223.24 72.576 Q1214.62 72.576 1211.33 69.3758 Q1208.05 66.1351 1208.05 57.6282 L1208.05 32.9987 L1202.58 32.9987 L1202.58 27.2059 L1208.05 27.2059 L1208.05 14.324 L1215.55 14.324 Z" fill="#000000" fill-rule="nonzero" fill-opacity="1" /><path clip-path="url(#clip090)" d="M1269.63 28.5427 L1269.63 35.5912 Q1266.47 33.9709 1263.06 33.1607 Q1259.66 32.3505 1256.02 32.3505 Q1250.47 32.3505 1247.67 34.0519 Q1244.92 35.7533 1244.92 39.156 Q1244.92 41.7486 1246.9 43.2475 Q1248.89 44.7058 1254.88 46.0426 L1257.43 46.6097 Q1265.37 48.3111 1268.7 51.4303 Q1272.06 54.509 1272.06 60.0587 Q1272.06 66.3781 1267.03 70.0644 Q1262.05 73.7508 1253.3 73.7508 Q1249.66 73.7508 1245.69 73.0216 Q1241.76 72.3329 1237.38 70.9151 L1237.38 63.2184 Q1241.51 65.3654 1245.52 66.4591 Q1249.53 67.5124 1253.46 67.5124 Q1258.73 67.5124 1261.57 65.73 Q1264.4 63.9071 1264.4 60.6258 Q1264.4 57.5877 1262.34 55.9673 Q1260.31 54.3469 1253.38 52.8481 L1250.79 52.2405 Q1243.86 50.7821 1240.79 47.7845 Q1237.71 44.7463 1237.71 39.4801 Q1237.71 33.0797 1242.24 29.5959 Q1246.78 26.1121 1255.13 26.1121 Q1259.26 26.1121 1262.9 26.7198 Q1266.55 27.3274 1269.63 28.5427 Z" fill="#000000" fill-rule="nonzero" fill-opacity="1" /><path clip-path="url(#clip090)" d="M1292.43 18.8205 L1292.43 41.5461 L1302.72 41.5461 Q1308.44 41.5461 1311.55 38.5889 Q1314.67 35.6318 1314.67 30.163 Q1314.67 24.7348 1311.55 21.7777 Q1308.44 18.8205 1302.72 18.8205 L1292.43 18.8205 M1284.25 12.096 L1302.72 12.096 Q1312.89 12.096 1318.08 16.714 Q1323.3 21.2916 1323.3 30.163 Q1323.3 39.1155 1318.08 43.6931 Q1312.89 48.2706 1302.72 48.2706 L1292.43 48.2706 L1292.43 72.576 L1284.25 72.576 L1284.25 12.096 Z" fill="#000000" fill-rule="nonzero" fill-opacity="1" /><path clip-path="url(#clip090)" d="M1333.96 9.54393 L1341.41 9.54393 L1341.41 72.576 L1333.96 72.576 L1333.96 9.54393 Z" fill="#000000" fill-rule="nonzero" fill-opacity="1" /><path clip-path="url(#clip090)" d="M1374.59 32.4315 Q1368.59 32.4315 1365.11 37.1306 Q1361.62 41.7891 1361.62 49.9314 Q1361.62 58.0738 1365.07 62.7728 Q1368.55 67.4314 1374.59 67.4314 Q1380.54 67.4314 1384.02 62.7323 Q1387.51 58.0333 1387.51 49.9314 Q1387.51 41.8701 1384.02 37.1711 Q1380.54 32.4315 1374.59 32.4315 M1374.59 26.1121 Q1384.31 26.1121 1389.86 32.4315 Q1395.41 38.7509 1395.41 49.9314 Q1395.41 61.0714 1389.86 67.4314 Q1384.31 73.7508 1374.59 73.7508 Q1364.82 73.7508 1359.27 67.4314 Q1353.76 61.0714 1353.76 49.9314 Q1353.76 38.7509 1359.27 32.4315 Q1364.82 26.1121 1374.59 26.1121 Z" fill="#000000" fill-rule="nonzero" fill-opacity="1" /><path clip-path="url(#clip090)" d="M1415.14 14.324 L1415.14 27.2059 L1430.49 27.2059 L1430.49 32.9987 L1415.14 32.9987 L1415.14 57.6282 Q1415.14 63.1779 1416.63 64.7578 Q1418.17 66.3376 1422.83 66.3376 L1430.49 66.3376 L1430.49 72.576 L1422.83 72.576 Q1414.2 72.576 1410.92 69.3758 Q1407.64 66.1351 1407.64 57.6282 L1407.64 32.9987 L1402.17 32.9987 L1402.17 27.2059 L1407.64 27.2059 L1407.64 14.324 L1415.14 14.324 Z" fill="#000000" fill-rule="nonzero" fill-opacity="1" /><path clip-path="url(#clip090)" d="M1469.22 28.5427 L1469.22 35.5912 Q1466.06 33.9709 1462.65 33.1607 Q1459.25 32.3505 1455.6 32.3505 Q1450.05 32.3505 1447.26 34.0519 Q1444.5 35.7533 1444.5 39.156 Q1444.5 41.7486 1446.49 43.2475 Q1448.47 44.7058 1454.47 46.0426 L1457.02 46.6097 Q1464.96 48.3111 1468.28 51.4303 Q1471.65 54.509 1471.65 60.0587 Q1471.65 66.3781 1466.62 70.0644 Q1461.64 73.7508 1452.89 73.7508 Q1449.24 73.7508 1445.27 73.0216 Q1441.35 72.3329 1436.97 70.9151 L1436.97 63.2184 Q1441.1 65.3654 1445.11 66.4591 Q1449.12 67.5124 1453.05 67.5124 Q1458.32 67.5124 1461.15 65.73 Q1463.99 63.9071 1463.99 60.6258 Q1463.99 57.5877 1461.92 55.9673 Q1459.9 54.3469 1452.97 52.8481 L1450.38 52.2405 Q1443.45 50.7821 1440.37 47.7845 Q1437.29 44.7463 1437.29 39.4801 Q1437.29 33.0797 1441.83 29.5959 Q1446.37 26.1121 1454.71 26.1121 Q1458.85 26.1121 1462.49 26.7198 Q1466.14 27.3274 1469.22 28.5427 Z" fill="#000000" fill-rule="nonzero" fill-opacity="1" /><path clip-path="url(#clip090)" d="M1496.76 12.096 L1503.65 12.096 L1482.58 80.2727 L1475.7 80.2727 L1496.76 12.096 Z" fill="#000000" fill-rule="nonzero" fill-opacity="1" /><path clip-path="url(#clip090)" d="M1519.97 18.8205 L1519.97 41.5461 L1530.26 41.5461 Q1535.97 41.5461 1539.09 38.5889 Q1542.21 35.6318 1542.21 30.163 Q1542.21 24.7348 1539.09 21.7777 Q1535.97 18.8205 1530.26 18.8205 L1519.97 18.8205 M1511.79 12.096 L1530.26 12.096 Q1540.43 12.096 1545.62 16.714 Q1550.84 21.2916 1550.84 30.163 Q1550.84 39.1155 1545.62 43.6931 Q1540.43 48.2706 1530.26 48.2706 L1519.97 48.2706 L1519.97 72.576 L1511.79 72.576 L1511.79 12.096 Z" fill="#000000" fill-rule="nonzero" fill-opacity="1" /><path clip-path="url(#clip090)" d="M1561.5 9.54393 L1568.95 9.54393 L1568.95 72.576 L1561.5 72.576 L1561.5 9.54393 Z" fill="#000000" fill-rule="nonzero" fill-opacity="1" /><path clip-path="url(#clip090)" d="M1602.13 32.4315 Q1596.13 32.4315 1592.65 37.1306 Q1589.16 41.7891 1589.16 49.9314 Q1589.16 58.0738 1592.61 62.7728 Q1596.09 67.4314 1602.13 67.4314 Q1608.08 67.4314 1611.56 62.7323 Q1615.05 58.0333 1615.05 49.9314 Q1615.05 41.8701 1611.56 37.1711 Q1608.08 32.4315 1602.13 32.4315 M1602.13 26.1121 Q1611.85 26.1121 1617.4 32.4315 Q1622.95 38.7509 1622.95 49.9314 Q1622.95 61.0714 1617.4 67.4314 Q1611.85 73.7508 1602.13 73.7508 Q1592.36 73.7508 1586.81 67.4314 Q1581.3 61.0714 1581.3 49.9314 Q1581.3 38.7509 1586.81 32.4315 Q1592.36 26.1121 1602.13 26.1121 Z" fill="#000000" fill-rule="nonzero" fill-opacity="1" /><path clip-path="url(#clip090)" d="M1642.68 14.324 L1642.68 27.2059 L1658.03 27.2059 L1658.03 32.9987 L1642.68 32.9987 L1642.68 57.6282 Q1642.68 63.1779 1644.17 64.7578 Q1645.71 66.3376 1650.37 66.3376 L1658.03 66.3376 L1658.03 72.576 L1650.37 72.576 Q1641.74 72.576 1638.46 69.3758 Q1635.18 66.1351 1635.18 57.6282 L1635.18 32.9987 L1629.71 32.9987 L1629.71 27.2059 L1635.18 27.2059 L1635.18 14.324 L1642.68 14.324 Z" fill="#000000" fill-rule="nonzero" fill-opacity="1" /><path clip-path="url(#clip090)" d="M1667.83 9.54393 L1675.28 9.54393 L1675.28 72.576 L1667.83 72.576 L1667.83 9.54393 Z" fill="#000000" fill-rule="nonzero" fill-opacity="1" /><path clip-path="url(#clip090)" d="M1709.76 76.7889 Q1706.6 84.8907 1703.6 87.3618 Q1700.6 89.8329 1695.58 89.8329 L1689.63 89.8329 L1689.63 83.5945 L1694 83.5945 Q1697.08 83.5945 1698.78 82.1361 Q1700.48 80.6778 1702.55 75.2496 L1703.88 71.8468 L1685.53 27.2059 L1693.43 27.2059 L1707.61 62.6918 L1721.79 27.2059 L1729.69 27.2059 L1709.76 76.7889 Z" fill="#000000" fill-rule="nonzero" fill-opacity="1" /><path clip-path="url(#clip090)" d="M1740.3 12.096 L1748.48 12.096 L1748.48 68.3631 Q1748.48 79.3005 1744.31 84.2426 Q1740.18 89.1847 1730.98 89.1847 L1727.87 89.1847 L1727.87 82.2982 L1730.42 82.2982 Q1735.85 82.2982 1738.07 79.26 Q1740.3 76.2218 1740.3 68.3631 L1740.3 12.096 Z" fill="#000000" fill-rule="nonzero" fill-opacity="1" /><path clip-path="url(#clip090)" d="M1801.03 14.0809 L1801.03 22.0612 Q1796.37 19.8332 1792.23 18.7395 Q1788.1 17.6457 1784.25 17.6457 Q1777.57 17.6457 1773.92 20.2383 Q1770.32 22.8309 1770.32 27.611 Q1770.32 31.6214 1772.71 33.6873 Q1775.14 35.7128 1781.86 36.9686 L1786.81 37.9813 Q1795.96 39.7232 1800.3 44.1387 Q1804.67 48.5136 1804.67 55.8863 Q1804.67 64.6767 1798.76 69.2137 Q1792.88 73.7508 1781.5 73.7508 Q1777.21 73.7508 1772.34 72.7785 Q1767.52 71.8063 1762.34 69.9024 L1762.34 61.4765 Q1767.32 64.2716 1772.1 65.6895 Q1776.88 67.1073 1781.5 67.1073 Q1788.51 67.1073 1792.32 64.3527 Q1796.12 61.598 1796.12 56.4939 Q1796.12 52.0379 1793.37 49.5264 Q1790.65 47.0148 1784.42 45.759 L1779.43 44.7868 Q1770.28 42.9639 1766.19 39.075 Q1762.1 35.1862 1762.1 28.2591 Q1762.1 20.2383 1767.73 15.6203 Q1773.4 11.0023 1783.32 11.0023 Q1787.58 11.0023 1791.99 11.7719 Q1796.41 12.5416 1801.03 14.0809 Z" fill="#000000" fill-rule="nonzero" fill-opacity="1" /><path clip-path="url(#clip090)" d="M1843.8 12.096 L1851.99 12.096 L1851.99 36.8875 L1881.72 36.8875 L1881.72 12.096 L1889.9 12.096 L1889.9 72.576 L1881.72 72.576 L1881.72 43.7741 L1851.99 43.7741 L1851.99 72.576 L1843.8 72.576 L1843.8 12.096 Z" fill="#000000" fill-rule="nonzero" fill-opacity="1" /><path clip-path="url(#clip090)" d="M1905.86 27.2059 L1913.32 27.2059 L1913.32 72.576 L1905.86 72.576 L1905.86 27.2059 M1905.86 9.54393 L1913.32 9.54393 L1913.32 18.9825 L1905.86 18.9825 L1905.86 9.54393 Z" fill="#000000" fill-rule="nonzero" fill-opacity="1" /><path clip-path="url(#clip090)" d="M1957.84 28.5427 L1957.84 35.5912 Q1954.68 33.9709 1951.27 33.1607 Q1947.87 32.3505 1944.22 32.3505 Q1938.67 32.3505 1935.88 34.0519 Q1933.13 35.7533 1933.13 39.156 Q1933.13 41.7486 1935.11 43.2475 Q1937.09 44.7058 1943.09 46.0426 L1945.64 46.6097 Q1953.58 48.3111 1956.9 51.4303 Q1960.27 54.509 1960.27 60.0587 Q1960.27 66.3781 1955.24 70.0644 Q1950.26 73.7508 1941.51 73.7508 Q1937.86 73.7508 1933.89 73.0216 Q1929.97 72.3329 1925.59 70.9151 L1925.59 63.2184 Q1929.72 65.3654 1933.73 66.4591 Q1937.74 67.5124 1941.67 67.5124 Q1946.94 67.5124 1949.77 65.73 Q1952.61 63.9071 1952.61 60.6258 Q1952.61 57.5877 1950.54 55.9673 Q1948.52 54.3469 1941.59 52.8481 L1939 52.2405 Q1932.07 50.7821 1928.99 47.7845 Q1925.91 44.7463 1925.91 39.4801 Q1925.91 33.0797 1930.45 29.5959 Q1934.99 26.1121 1943.33 26.1121 Q1947.47 26.1121 1951.11 26.7198 Q1954.76 27.3274 1957.84 28.5427 Z" fill="#000000" fill-rule="nonzero" fill-opacity="1" /><path clip-path="url(#clip090)" d="M1979.51 14.324 L1979.51 27.2059 L1994.86 27.2059 L1994.86 32.9987 L1979.51 32.9987 L1979.51 57.6282 Q1979.51 63.1779 1981.01 64.7578 Q1982.55 66.3376 1987.2 66.3376 L1994.86 66.3376 L1994.86 72.576 L1987.2 72.576 Q1978.58 72.576 1975.29 69.3758 Q1972.01 66.1351 1972.01 57.6282 L1972.01 32.9987 L1966.55 32.9987 L1966.55 27.2059 L1972.01 27.2059 L1972.01 14.324 L1979.51 14.324 Z" fill="#000000" fill-rule="nonzero" fill-opacity="1" /><path clip-path="url(#clip090)" d="M2022.24 32.4315 Q2016.25 32.4315 2012.77 37.1306 Q2009.28 41.7891 2009.28 49.9314 Q2009.28 58.0738 2012.73 62.7728 Q2016.21 67.4314 2022.24 67.4314 Q2028.2 67.4314 2031.68 62.7323 Q2035.17 58.0333 2035.17 49.9314 Q2035.17 41.8701 2031.68 37.1711 Q2028.2 32.4315 2022.24 32.4315 M2022.24 26.1121 Q2031.97 26.1121 2037.52 32.4315 Q2043.07 38.7509 2043.07 49.9314 Q2043.07 61.0714 2037.52 67.4314 Q2031.97 73.7508 2022.24 73.7508 Q2012.48 73.7508 2006.93 67.4314 Q2001.42 61.0714 2001.42 49.9314 Q2001.42 38.7509 2006.93 32.4315 Q2012.48 26.1121 2022.24 26.1121 Z" fill="#000000" fill-rule="nonzero" fill-opacity="1" /><path clip-path="url(#clip090)" d="M2085.28 49.3643 Q2085.28 41.2625 2081.91 36.8065 Q2078.59 32.3505 2072.56 32.3505 Q2066.56 32.3505 2063.2 36.8065 Q2059.88 41.2625 2059.88 49.3643 Q2059.88 57.4256 2063.2 61.8816 Q2066.56 66.3376 2072.56 66.3376 Q2078.59 66.3376 2081.91 61.8816 Q2085.28 57.4256 2085.28 49.3643 M2092.73 66.9452 Q2092.73 78.5308 2087.59 84.1616 Q2082.44 89.8329 2071.83 89.8329 Q2067.9 89.8329 2064.41 89.2252 Q2060.93 88.6581 2057.65 87.4428 L2057.65 80.1917 Q2060.93 81.9741 2064.13 82.8248 Q2067.33 83.6755 2070.65 83.6755 Q2077.99 83.6755 2081.63 79.8271 Q2085.28 76.0193 2085.28 68.282 L2085.28 64.5957 Q2082.97 68.6061 2079.36 70.5911 Q2075.76 72.576 2070.73 72.576 Q2062.39 72.576 2057.29 66.2161 Q2052.18 59.8562 2052.18 49.3643 Q2052.18 38.832 2057.29 32.472 Q2062.39 26.1121 2070.73 26.1121 Q2075.76 26.1121 2079.36 28.0971 Q2082.97 30.082 2085.28 34.0924 L2085.28 27.2059 L2092.73 27.2059 L2092.73 66.9452 Z" fill="#000000" fill-rule="nonzero" fill-opacity="1" /><path clip-path="url(#clip090)" d="M2134.37 34.1734 Q2133.12 33.4443 2131.62 33.1202 Q2130.16 32.7556 2128.38 32.7556 Q2122.06 32.7556 2118.66 36.8875 Q2115.29 40.9789 2115.29 48.6757 L2115.29 72.576 L2107.8 72.576 L2107.8 27.2059 L2115.29 27.2059 L2115.29 34.2544 Q2117.64 30.1225 2121.41 28.1376 Q2125.18 26.1121 2130.57 26.1121 Q2131.34 26.1121 2132.27 26.2337 Q2133.2 26.3147 2134.33 26.5172 L2134.37 34.1734 Z" fill="#000000" fill-rule="nonzero" fill-opacity="1" /><path clip-path="url(#clip090)" d="M2162.81 49.7694 Q2153.78 49.7694 2150.29 51.8354 Q2146.81 53.9013 2146.81 58.8839 Q2146.81 62.8538 2149.4 65.2034 Q2152.04 67.5124 2156.53 67.5124 Q2162.73 67.5124 2166.46 63.1374 Q2170.22 58.7219 2170.22 51.4303 L2170.22 49.7694 L2162.81 49.7694 M2177.68 46.6907 L2177.68 72.576 L2170.22 72.576 L2170.22 65.6895 Q2167.67 69.8214 2163.86 71.8063 Q2160.06 73.7508 2154.55 73.7508 Q2147.58 73.7508 2143.45 69.8619 Q2139.36 65.9325 2139.36 59.3701 Q2139.36 51.7138 2144.46 47.825 Q2149.61 43.9361 2159.77 43.9361 L2170.22 43.9361 L2170.22 43.2069 Q2170.22 38.0623 2166.82 35.2672 Q2163.46 32.4315 2157.34 32.4315 Q2153.45 32.4315 2149.77 33.3632 Q2146.08 34.295 2142.68 36.1584 L2142.68 29.2718 Q2146.77 27.692 2150.62 26.9223 Q2154.47 26.1121 2158.11 26.1121 Q2167.96 26.1121 2172.82 31.2163 Q2177.68 36.3204 2177.68 46.6907 Z" fill="#000000" fill-rule="nonzero" fill-opacity="1" /><path clip-path="url(#clip090)" d="M2228.35 35.9153 Q2231.15 30.8922 2235.04 28.5022 Q2238.93 26.1121 2244.19 26.1121 Q2251.28 26.1121 2255.13 31.0947 Q2258.98 36.0368 2258.98 45.1919 L2258.98 72.576 L2251.49 72.576 L2251.49 45.4349 Q2251.49 38.913 2249.18 35.7533 Q2246.87 32.5936 2242.13 32.5936 Q2236.34 32.5936 2232.97 36.4419 Q2229.61 40.2903 2229.61 46.9338 L2229.61 72.576 L2222.12 72.576 L2222.12 45.4349 Q2222.12 38.8725 2219.81 35.7533 Q2217.5 32.5936 2212.68 32.5936 Q2206.97 32.5936 2203.6 36.4824 Q2200.24 40.3308 2200.24 46.9338 L2200.24 72.576 L2192.75 72.576 L2192.75 27.2059 L2200.24 27.2059 L2200.24 34.2544 Q2202.79 30.082 2206.36 28.0971 Q2209.92 26.1121 2214.82 26.1121 Q2219.77 26.1121 2223.21 28.6237 Q2226.69 31.1352 2228.35 35.9153 Z" fill="#000000" fill-rule="nonzero" fill-opacity="1" /><path clip-path="url(#clip092)" d="M339.746 1416.86 L339.746 1634 L560.52 1634 L560.52 1416.86 L339.746 1416.86 L339.746 1416.86  Z" fill="#1e90ff" fill-rule="evenodd" fill-opacity="0.5"/>
<polyline clip-path="url(#clip092)" style="stroke:#000000; stroke-linecap:round; stroke-linejoin:round; stroke-width:4; stroke-opacity:0.5; fill:none" points="339.746,1416.86 339.746,1634 560.52,1634 560.52,1416.86 339.746,1416.86 "/>
<path clip-path="url(#clip092)" d="M560.52 1416.86 L560.52 1634 L781.293 1634 L781.293 1416.86 L560.52 1416.86 L560.52 1416.86  Z" fill="#1e90ff" fill-rule="evenodd" fill-opacity="0.5"/>
<polyline clip-path="url(#clip092)" style="stroke:#000000; stroke-linecap:round; stroke-linejoin:round; stroke-width:4; stroke-opacity:0.5; fill:none" points="560.52,1416.86 560.52,1634 781.293,1634 781.293,1416.86 560.52,1416.86 "/>
<path clip-path="url(#clip092)" d="M781.293 1634 L781.293 1634 L1002.07 1634 L1002.07 1634 L781.293 1634 L781.293 1634  Z" fill="#1e90ff" fill-rule="evenodd" fill-opacity="0.5"/>
<polyline clip-path="url(#clip092)" style="stroke:#000000; stroke-linecap:round; stroke-linejoin:round; stroke-width:4; stroke-opacity:0.5; fill:none" points="781.293,1634 781.293,1634 1002.07,1634 781.293,1634 "/>
<path clip-path="url(#clip092)" d="M1002.07 1199.72 L1002.07 1634 L1222.84 1634 L1222.84 1199.72 L1002.07 1199.72 L1002.07 1199.72  Z" fill="#1e90ff" fill-rule="evenodd" fill-opacity="0.5"/>
<polyline clip-path="url(#clip092)" style="stroke:#000000; stroke-linecap:round; stroke-linejoin:round; stroke-width:4; stroke-opacity:0.5; fill:none" points="1002.07,1199.72 1002.07,1634 1222.84,1634 1222.84,1199.72 1002.07,1199.72 "/>
<path clip-path="url(#clip092)" d="M1222.84 1416.86 L1222.84 1634 L1443.61 1634 L1443.61 1416.86 L1222.84 1416.86 L1222.84 1416.86  Z" fill="#1e90ff" fill-rule="evenodd" fill-opacity="0.5"/>
<polyline clip-path="url(#clip092)" style="stroke:#000000; stroke-linecap:round; stroke-linejoin:round; stroke-width:4; stroke-opacity:0.5; fill:none" points="1222.84,1416.86 1222.84,1634 1443.61,1634 1443.61,1416.86 1222.84,1416.86 "/>
<path clip-path="url(#clip092)" d="M1443.61 1416.86 L1443.61 1634 L1664.39 1634 L1664.39 1416.86 L1443.61 1416.86 L1443.61 1416.86  Z" fill="#1e90ff" fill-rule="evenodd" fill-opacity="0.5"/>
<polyline clip-path="url(#clip092)" style="stroke:#000000; stroke-linecap:round; stroke-linejoin:round; stroke-width:4; stroke-opacity:0.5; fill:none" points="1443.61,1416.86 1443.61,1634 1664.39,1634 1664.39,1416.86 1443.61,1416.86 "/>
<path clip-path="url(#clip092)" d="M1664.39 1634 L1664.39 1634 L1885.16 1634 L1885.16 1634 L1664.39 1634 L1664.39 1634  Z" fill="#1e90ff" fill-rule="evenodd" fill-opacity="0.5"/>
<polyline clip-path="url(#clip092)" style="stroke:#000000; stroke-linecap:round; stroke-linejoin:round; stroke-width:4; stroke-opacity:0.5; fill:none" points="1664.39,1634 1664.39,1634 1885.16,1634 1664.39,1634 "/>
<path clip-path="url(#clip092)" d="M1885.16 1199.72 L1885.16 1634 L2105.94 1634 L2105.94 1199.72 L1885.16 1199.72 L1885.16 1199.72  Z" fill="#1e90ff" fill-rule="evenodd" fill-opacity="0.5"/>
<polyline clip-path="url(#clip092)" style="stroke:#000000; stroke-linecap:round; stroke-linejoin:round; stroke-width:4; stroke-opacity:0.5; fill:none" points="1885.16,1199.72 1885.16,1634 2105.94,1634 2105.94,1199.72 1885.16,1199.72 "/>
<path clip-path="url(#clip092)" d="M2105.94 114.022 L2105.94 1634 L2326.71 1634 L2326.71 114.022 L2105.94 114.022 L2105.94 114.022  Z" fill="#1e90ff" fill-rule="evenodd" fill-opacity="0.5"/>
<polyline clip-path="url(#clip092)" style="stroke:#000000; stroke-linecap:round; stroke-linejoin:round; stroke-width:4; stroke-opacity:0.5; fill:none" points="2105.94,114.022 2105.94,1634 2326.71,1634 2326.71,114.022 2105.94,114.022 "/>
<path clip-path="url(#clip092)" d="M2326.71 982.584 L2326.71 1634 L2547.48 1634 L2547.48 982.584 L2326.71 982.584 L2326.71 982.584  Z" fill="#1e90ff" fill-rule="evenodd" fill-opacity="0.5"/>
<polyline clip-path="url(#clip092)" style="stroke:#000000; stroke-linecap:round; stroke-linejoin:round; stroke-width:4; stroke-opacity:0.5; fill:none" points="2326.71,982.584 2326.71,1634 2547.48,1634 2547.48,982.584 2326.71,982.584 "/>
<path clip-path="url(#clip092)" d="M2547.48 1634 L2547.48 1634 L2768.26 1634 L2768.26 1634 L2547.48 1634 L2547.48 1634  Z" fill="#1e90ff" fill-rule="evenodd" fill-opacity="0.5"/>
<polyline clip-path="url(#clip092)" style="stroke:#000000; stroke-linecap:round; stroke-linejoin:round; stroke-width:4; stroke-opacity:0.5; fill:none" points="2547.48,1634 2547.48,1634 2768.26,1634 2547.48,1634 "/>
<path clip-path="url(#clip092)" d="M2768.26 1199.72 L2768.26 1634 L2989.03 1634 L2989.03 1199.72 L2768.26 1199.72 L2768.26 1199.72  Z" fill="#1e90ff" fill-rule="evenodd" fill-opacity="0.5"/>
<polyline clip-path="url(#clip092)" style="stroke:#000000; stroke-linecap:round; stroke-linejoin:round; stroke-width:4; stroke-opacity:0.5; fill:none" points="2768.26,1199.72 2768.26,1634 2989.03,1634 2989.03,1199.72 2768.26,1199.72 "/>
<circle clip-path="url(#clip092)" style="fill:#1e90ff; stroke:none; fill-opacity:0" cx="450.133" cy="1416.86" r="2"/>
<circle clip-path="url(#clip092)" style="fill:#1e90ff; stroke:none; fill-opacity:0" cx="670.906" cy="1416.86" r="2"/>
<circle clip-path="url(#clip092)" style="fill:#1e90ff; stroke:none; fill-opacity:0" cx="891.68" cy="1634" r="2"/>
<circle clip-path="url(#clip092)" style="fill:#1e90ff; stroke:none; fill-opacity:0" cx="1112.45" cy="1199.72" r="2"/>
<circle clip-path="url(#clip092)" style="fill:#1e90ff; stroke:none; fill-opacity:0" cx="1333.23" cy="1416.86" r="2"/>
<circle clip-path="url(#clip092)" style="fill:#1e90ff; stroke:none; fill-opacity:0" cx="1554" cy="1416.86" r="2"/>
<circle clip-path="url(#clip092)" style="fill:#1e90ff; stroke:none; fill-opacity:0" cx="1774.77" cy="1634" r="2"/>
<circle clip-path="url(#clip092)" style="fill:#1e90ff; stroke:none; fill-opacity:0" cx="1995.55" cy="1199.72" r="2"/>
<circle clip-path="url(#clip092)" style="fill:#1e90ff; stroke:none; fill-opacity:0" cx="2216.32" cy="114.022" r="2"/>
<circle clip-path="url(#clip092)" style="fill:#1e90ff; stroke:none; fill-opacity:0" cx="2437.1" cy="982.584" r="2"/>
<circle clip-path="url(#clip092)" style="fill:#1e90ff; stroke:none; fill-opacity:0" cx="2657.87" cy="1634" r="2"/>
<circle clip-path="url(#clip092)" style="fill:#1e90ff; stroke:none; fill-opacity:0" cx="2878.64" cy="1199.72" r="2"/>
<polyline clip-path="url(#clip092)" style="stroke:#008000; stroke-linecap:round; stroke-linejoin:round; stroke-width:4; stroke-opacity:1; fill:none" stroke-dasharray="16, 10" points="1269.7,3153.99 1269.7,-1405.96 "/>
<polyline clip-path="url(#clip092)" style="stroke:#008000; stroke-linecap:round; stroke-linejoin:round; stroke-width:4; stroke-opacity:1; fill:none" stroke-dasharray="16, 10" points="1937.04,3153.99 1937.04,-1405.96 "/>
<polyline clip-path="url(#clip092)" style="stroke:#008000; stroke-linecap:round; stroke-linejoin:round; stroke-width:4; stroke-opacity:1; fill:none" stroke-dasharray="16, 10" points="2604.39,3153.99 2604.39,-1405.96 "/>
</svg>
