<svg xmlns="http://www.w3.org/2000/svg" xmlns:xlink="http://www.w3.org/1999/xlink" version="1.1" class="marks" width="653" height="387" viewBox="0 0 653 387"><rect width="653" height="387" fill="white"/><g fill="none" stroke-miterlimit="10" transform="translate(7,22)"><g class="mark-group role-frame root" role="graphics-object" aria-roledescription="group mark container"><g transform="translate(0,0)"><path class="background" aria-hidden="true" d="M0,0h640v360h-640Z"/><g><g class="mark-shape role-mark layer_0_marks" role="graphics-symbol" aria-roledescription="shape mark container"><path transform="translate(0,0)" d="M59.876,332.898L58.035,327.95L55.437,325.255L55.662,324.523L58.687,327.323L60.672,332.377ZM112.641,345.445L112.709,342.752L114.326,343.13L113.975,344.796ZM115.168,345.476L114.619,344.138L115.7,343.41ZM117.831,344.829L116.507,343.469L117.919,343.503ZM93.96,341.377L92.221,339.182L94.329,338.911L92.199,335.081L92.853,334.583L95.62,335.365L95.582,336.699L98.361,338.451L96.33,338.294ZM102.746,342.298L100.816,341.104L97.162,340.173L102.421,340.649L103.481,340.281L104.298,338.294L105.472,338.62L103.381,342.596ZM55.86,319.513L55.874,317.867L57.21,319.137ZM104.994,345.583L104.963,344.122L106.706,343.53L106.791,341.745L108.511,342.494L109.378,339.417L112.003,339.796L110.196,342.429L112.176,342.697L111.963,344.876L110.899,344.226L109.831,345.285L106.568,345.208L107.096,343.604ZM68.016,325.324L66.943,323.843L67.413,322.729L69.537,322.706L70.501,324.217ZM117.407,342.191L116.365,339.91L118.482,339.739ZM42.16,314.911L41.488,313.154L44.064,312.54L45.298,312.969L47.303,310.974L48.357,311.682L46.086,313.329L45.505,314.6L44.075,313.555ZM147.282,350.73L145.374,349.126L143.533,349.227L141.567,347.101L143.406,347.147L149.288,350.071L151.326,350.19L153.892,351.263L151.565,351.207L147.714,350.349ZM159.566,349.814L158.658,349.391L159.617,347.767L161.329,347.4L162.692,349.045ZM128.778,345.351L128.495,344.688L131.752,344.328L132.917,345.078L136.222,344.957L140.204,343.517L138.976,342.265L139.763,341.201L141.971,341.042L143.24,343.897L141.915,344.97L140.599,344.417L141.144,346.718L137.46,346.051L136.799,347.133L135.113,346.015L134.063,346.598L129.881,345.044ZM7.22,286.154L7.168,285.335L4.565,283.653L8.943,283.63L8.031,286.547ZM181.259,349.82L181.445,347.907L183.794,347.325L183.621,349.209ZM194.68,348.492L193.353,347.118L191.901,347.516L191.923,346.177L195.316,346.401ZM2.978,275.265L2.079,273.276L2.633,272.175L1.137,271.64L1.785,270.638L0,269.666L2.677,269.364L5.557,271.675L7.354,272.174L7.328,273.916L8.74,274.509L7.765,276.237L6.194,276.021L5.333,274.666ZM202.177,349.083L206.996,345.085L207.019,343.645L209.683,341.952L212.536,342.852L211.748,341.362L212.394,339.792L214.904,338.095L217.627,337.924L219.958,339.391L218.82,341.747L213.361,343.406L210.399,346.489L206.869,347.948ZM238.591,339.345L237.741,337.569L240.18,336.682L239.942,338.202ZM220.326,344.978L218.82,343.167L220.506,342.069L221.645,342.552L223.194,341.464L224.809,342.541L225.456,341.243L228.108,341.179L227.407,339.163L229.317,339.16L229.046,337.539L233.009,337.817L229.73,336.651L228.385,334.922L229.608,333.236L231.951,332.442L234.401,332.365L235.155,333.682L234.407,336.041L238.808,333.895L239.516,335.049L234.264,338.325L237.526,337.593L237.748,339.56L235.007,339.744L232.639,342.58L231.27,341.75L228.479,342.308ZM253.041,334.763L251.171,333.98L254.442,333.608ZM243.446,333.728L241.66,333.2L241.164,331.577L243.006,329.947L245.49,331.884L245.959,332.998ZM247.296,332.99L246.538,329.743L248.868,329.484L247.947,330.948L249.349,331.256ZM281.303,333.033L279.004,331.135L279.597,330.39L281.6,331.393ZM615.359,293.55L612.509,290.976L614.771,291.274ZM285.824,324.576L284.724,323.318L286.086,321.527L287.028,322.088ZM628.489,286.93L626.373,285.778L628.568,283.911L629.639,285.597ZM258.515,329.259L256.385,328.381L255.998,324.741L258.677,323.94L260.977,320.089L262.583,319.221L264.406,320.059L268.855,318.079L272.904,318.39L274.416,324.595L276.005,324.321L276.387,325.981L273.079,325.093L273.034,326.271L271.058,326.907L268.732,326.004L265.518,325.836L262.486,327.104L261.257,328.892ZM318.016,325.704L318.86,323.755L319.48,325.056ZM292.743,320.975L291.283,318.66L294.059,319.714ZM612.708,289.531L611.154,289.305L611.513,287.962L610.184,286.999L610.637,285.945L613.14,288.284ZM316.131,323.665L317.033,322.511L316.976,320.319L317.854,321.812ZM614.88,295.442L613.627,295.394L608.546,291.799L606.996,289.096L606.341,286.423L607.186,285.796L610.48,289.824L610.93,291.198L613.53,292.525ZM624.93,285.308L624.182,284.749L624.649,282.209L623.244,280.137L626.627,281.087L627.204,283.551ZM309.222,326.443L311.38,322.319L311.665,320.083L313.37,321.205L312.236,323.092L309.829,325.143ZM605.171,287.604L604.01,287.778L603.406,285.627L604.412,284.986L605.959,286.15ZM308.724,318.955L306.762,317.301L308.826,316.638ZM303.114,320.851L303.318,316.543L304.685,315.292L305.581,315.92L307.267,319.92L306.404,320.941L303.983,319.434ZM622.477,283.391L621.244,282.522L619.504,278.355L622.217,279.497ZM602.039,287.9L601.162,287.111L601.088,284.507L602.832,284.876L601.914,285.927ZM311.03,316.562L309.175,315.071L311.28,315.154ZM601.798,284.116L600.801,283.993L601.326,282.242L602.801,283.345ZM598.785,284.859L599.414,283.024L600.665,282.254L600.331,284.351ZM603.525,283.135L602.052,281.912L603.074,280.824ZM600.333,279.125L598.05,278.045L599.244,276.611L601.945,277.057ZM361.513,312.436L359.892,311.168L362.05,309.658ZM602.675,276.756L601.427,275.957L601.262,274.292L602.46,274.941ZM591.695,279.186L591.212,277.206L592.853,276.943ZM627.722,280.23L626.085,279.323L624.576,279.601L625.453,276.121L624.958,275.796L623.484,279.619L619.52,277.795L620.676,274.25L619.509,274.025L618.305,270.214L620.034,269.686L619.085,268.641L622.158,266.053L625.025,268.011L627.67,271.282L628.816,278.435ZM597.094,275.928L595.77,275.244L596.722,271.766L598.563,270.101L600.055,269.909L600.856,272.395L599.932,272.328ZM611.254,271.06L609.248,268.659L607.141,269.497L605.554,266.697L606.634,265.884L606.651,263.976L608.495,263.865L608.6,265.878L610.536,265.533L612.612,266.676L611.823,268.109L613.243,269.487ZM604.65,271.171L604.634,271.122L605.118,270.719L608.266,271.886L610.787,273.852L611.26,276.126L612.795,275.986L614.09,277.717L616.243,278.756L612.274,278.031L610.815,277.16L611.648,279.402L613.108,278.646L616.617,280.467L617.905,282.142L616.516,283.634L618.339,283.411L618.629,281.672L619.711,283.594L619.209,287.443L620.539,286.246L621.589,288.554L622.2,292.32L619.117,292.929L618.662,290.706L615.288,288.383L615.541,289.768L613.352,285.628L612.38,286.505L609.016,284.978L605.748,285.755L605.543,283.828L607.935,283.854L607.118,281.993L605.688,282.216L605.531,278.916L603.669,280.478L602.246,280.055L602.187,278.323L603.617,275.58L602.144,274.602L600.308,269.805L596.873,270.31L595.524,268.624L595.444,267.087L597.413,267.142L599.826,266.168L602.506,268.507L603.034,271.259ZM603.878,266.953L601.236,265.743L601.722,263.122L603.89,262.296L605.514,263.139L605.793,265.446ZM611.226,265.509L608.766,264.305L607.27,260.48L608.505,260.638L610.674,262.449L611.819,261.846L613.839,264.258L612.772,266.3ZM378.492,297.855L378.3,296.879L380.302,296.5ZM344.7,296.535L344.219,295.324L346.023,295.484ZM370.834,299.645L371.593,297.239L373.223,295.964L373.981,297.533ZM378.185,296.165L377.297,297.633L375.33,297.583L376.648,295.574ZM213.226,277.518L211.738,275.476L214.747,276.617ZM605.754,258.631L604.673,257.344L606.709,257.135ZM602.859,261.886L601.415,262.063L601.015,259.488L599.338,256.713L600.957,256.368L605.121,259.286ZM590.624,260.627L590.024,259.604L591.842,259.65L592.18,263.153L591.711,265.136L593.289,268.238L592.853,269.573L593.462,273.097L592.962,273.461L591.152,271.035L592.221,275.425L590.824,274.472L588.564,269.349L589.086,267.224L591.041,268.839L589.625,266.092L587.018,265.476L587.226,264.578L585.261,262.742L584.437,260.688L585.942,258.297L588.452,258.928ZM592.388,260.49L590.19,257.704L587.17,255.951L588.403,254.16L593.788,254.306L596.801,253.366L598.508,254.422L600.622,259.153L600.298,260.507L595.277,257.202L597.7,260.348L599.143,260.564L599.898,262.26L599.147,264.071L596.428,263.811L596.79,264.687L594.606,265.723ZM386.376,288.16L385.48,285.911L387.315,283.886L390.964,284.947L387.645,286.15ZM208.54,264.828L207.68,262.966L211.075,262.797ZM569.341,262.046L568.543,260.187L569.329,258.363L568.23,258.508L567.239,255.536L568.843,255.39L571.114,258.271L571.184,261.013ZM578.605,264.564L576.991,265.189L576.847,263.46L574.792,263.924L574.056,261.645L574.886,259.58L573.029,258.761L572.579,255.83L570.9,256.552L568.694,254.45L570.8,254.145L569.284,253.496L570.118,250.265L571.535,251.53L572.829,250.871L575.38,251.963L576.941,251.273L577.915,253.229L576.646,252.795L578.585,255.484L582.931,263.379L585.261,272.355L585.745,273.973L583.81,273.062L577.952,265.882ZM395.951,270.523L394.266,269.826L395.204,268.743ZM387.216,272.363L384.075,270.219L384.435,268.881L386.375,270.303ZM377.576,293.057L378.306,291.043L380.593,288.742L379.375,288.87L380.207,285.719L378.194,288.597L377.51,288.091L378.198,285.657L376.608,284.865L374.066,285.555L374.967,287.063L375.846,285.87L377.857,285.541L377.737,288.869L376.288,289.274L373.477,288.155L373.431,284.406L372.538,282.749L371.256,282.568L370.669,281.154L372.469,278.012L375.296,275.48L378.957,275.385L379.144,277.265L381.294,281.768L380.906,277.547L381.804,277.249L380.266,275.71L382.242,274.842L380.076,274.166L379.664,272.117L381.964,270.693L383.454,271.694L383.655,273.878L384.419,271.54L387.217,272.468L386.934,270.496L388.959,271.983L386.549,269.229L389.994,269.309L391.414,270.02L390.404,271.688L392.155,271.898L393.118,269.914L394.909,270.39L396.246,271.913L394.763,273.767L395.004,276.125L398.248,275.686L396.362,279.571L394.821,279.576L392.121,278.003L390.665,278.418L393.514,280.014L392.621,282.49L391.454,282.701L389.394,281.295L390.1,283.039L387.084,283.553L384.758,285.812L383.471,286.179L382.834,287.684L383.864,288.108L380.104,292.533ZM558.466,247.634L557.016,246.675L556.448,243.139L558.766,244.21ZM389.8,268.744L386.898,267.439L385.014,267.279L386.582,265.582L388.365,266.664ZM565.096,241.733L564.414,243.126L565.757,243.118L567.371,239.084L568.18,239.365L572.223,239.653L573.115,240.846L572.776,242.71L570.186,242.175L573.744,244.156L571.07,245.485L569.105,244.577L563.239,243.183L564.945,244.33L567.072,244.492L571.442,246.898L572.385,245.474L574.091,244.94L575.818,247.749L576.378,250.3L574.142,250.947L567.668,248.08L564.977,247.464L568.734,249.918L569.551,252.099L568.458,254.582L562.525,250.621L561.439,248.359L560.223,248.288L559.58,247.625L559.152,247.752L558.904,247.831L558.758,244.321L562.821,246.658L562.868,246.547L561.967,246.219L557.174,242.432L558.316,240.041L559.091,241.201L559.69,239.631L561.46,239.413L562.717,237.501L565.235,238.307L566.238,240.349ZM578.081,234.942L575.028,235.133L573.607,233.848L574.756,232.833ZM573.779,235.573L574.207,236.75L575.391,235.704L577.948,236.268L578.012,236.227L579.36,235.22L579.042,236.066L584.087,240.972L584.926,243.285L584.086,243.349L580.546,238.319L578.267,236.808L579.859,238.981L578.782,238.75L582.45,243.108L584.956,244.761L585.829,246.932L583.801,247.231L587.041,249.172L586.234,250.634L583.775,249.57L585.045,252.926L582.611,256.897L581.39,257.32L580.024,253.695L580.853,251.998L579.698,250.646L581.056,250.587L579.286,249.278L576.349,245.081L576.035,242.993L573.692,239.021L573.971,238.148L573.622,236.333L573.631,236.363L573.72,238.212L571.154,235.377L570.325,232.827ZM396.204,260.025L397.418,261.644L399.767,261.776L399.58,264.074L398.729,265.15L396.143,263.412L396.719,265.773L393.74,266.065L391.546,267.075L391.571,268.462L389.079,267.505L386.947,265.242L387.523,264.173L390.813,265.26L388.21,263.355L388.749,262.57L391.47,262.946L390.366,260.537L392.673,258.907L394.47,259.289L395.562,262.165ZM392.675,257.183L395.772,255.872L394.465,259.089L392.959,258.628ZM307.411,253.943L307.906,251.026L311.702,249.507L309.389,253.581ZM383.801,242.617L383.792,241.292L385.573,241.845ZM411.507,242.465L411.738,239.938L412.531,240.856ZM470.576,226.811L472.022,223.83L473.758,222.438ZM436.947,227.943L438.213,225.314L438.208,227.163ZM436.626,225.923L435.67,226.589L437.214,223.547L438.084,224.671ZM434.592,226.662L434.222,225.206L436.385,223.242L435.476,226.363ZM438.894,231.165L438.644,229.224L442.553,224.296L444.67,219.748L446.801,219.535L446.388,221.218L444.658,223.006L442.263,227.39L442.879,228.639ZM260.354,223.285L258.434,220.775L256.617,220.578L253.554,217.119L252.44,216.994L249.99,211.936L253.398,212.209L255.645,213.34L256.136,212.097L259.804,210.395L260.667,211.212L263.236,210.975L263.393,212.404L265.394,212.395L267.084,213.735L266.236,216.126L266.724,221.35L262.416,221.388ZM449.933,220.823L449.182,220.018L451.091,218.142L448.873,218.793L449.633,215.957L451.68,215.715L452.172,216.981L454.804,217.243L452.815,218.336ZM397.562,222.396L398.869,218.938L399.711,219.49ZM437.625,221.577L438.965,216.646L440.205,218.06L439.294,223.428ZM205.151,199.438L202.497,198.288L200.143,194.287L199.214,193.674L200.74,191.887L200.785,193.806L201.928,195.782L204.403,197.27ZM453.392,216.151L452.594,214.952L457.072,212.856L456.976,213.748ZM436.743,213.843L435.736,212.573L437.489,213.014ZM434.511,214.603L433.881,212.104L434.896,212.373ZM276.042,215.273L274.083,213.991L272.816,211.965L274.694,210.116L272.46,210.571L270.803,210.074L275.321,206.563L274.786,205.216L276.722,203.939L278.932,203.671L278.216,204.908L282.117,206.36L282.319,208.615L278.905,210.718L279.658,211.881L278,212.458L278.211,213.749ZM435.532,211.451L434.569,211.378L434.906,208.656L436.61,210.529ZM282.969,170.437L282.77,166.912L285.939,167.714ZM290.839,173.819L289.394,170.051L285.453,167.519L283.066,166.492L285.003,162.721L288.194,163.231L289.696,165.558L290.41,168.484L290.25,171.031ZM289.881,165.82L288.011,162.968L286.207,161.82L286.486,160.482L288.798,158.977L291.391,158.869L294.069,160.311L295.533,162.286L293.065,163.857L291.675,166.082ZM304.967,155.323L303.859,154.437L306.539,153.577L306.557,155.157ZM241.925,155.596L240.575,151.087L237.709,149.546L238.357,147.986L235.957,144.944L233.933,143.155L230.44,143.54L228.41,144.704L226.123,142.843L225.795,140.38L227.597,137.456L228.262,135.026L229.383,139.17L231.559,139.329L233.525,140.889L238.359,139.413L239.921,140.055L241.174,141.827L241.049,144.543L244.099,146.268L244.557,147.716L249.146,149.136L251.658,150.677L249.614,153.154L245.901,151.584L243.103,153.534ZM401.578,26.09L400.506,24.714L402.406,24.545ZM561.112,233.814L558.675,229.813L557.105,228.35L559.872,226.181L557.778,226.189L557.338,227.566L555.971,224.922L556.77,229.173L555.898,229.958L553.082,228.969L551.991,226.585L551.429,228.379L548.977,227.704L547.68,229.143L550.452,228.912L553.298,229.771L552.796,230.407L557.081,232.489L559.43,235.527L559.417,237.264L556.837,238.941L554.416,238.266L555.206,239.936L554.178,241.212L551.459,239.399L549.265,238.963L543.357,236.319L539.101,233.328L538.36,231.53L535.351,229.515L532.069,228.897L532.261,227.23L530.303,228.266L522.228,225.089L521.688,225.275L517.222,223.434L518.616,222.194L519.911,220.046L518.045,216.151L519.367,214.361L518.449,212.96L516.816,217.905L512.296,221.46L506.834,221.784L500.672,220.066L502.076,217.567L500.182,214.549L499.056,215.685L500.895,217.153L499.006,218.787L489.077,218.119L485.95,218.611L479.079,220.806L476.891,221.933L472.904,219.524L473.043,218.801L469.582,219.336L468.378,217.754L465.988,217.63L466.911,213.5L466.462,211.269L464.819,213.152L463.979,215.399L462.11,217.302L460.437,215.929L457.978,215.128L455.977,215.757L458.715,211.389L455.013,212.653L455.68,210.782L453.297,212.71L452.525,212.292L454.265,210.445L451.751,210.075L450.881,211.752L448.63,211.9L452.955,208.366L452.284,207.609L451.336,209.149L449.494,209.507L447.492,207.794L448.23,204.316L451.741,203.851L450.921,202.93L447.94,203.84L445.965,206.912L443.877,206.139L442.736,206.617L441.607,208.919L440.199,208.815L440.104,205.422L439.441,205.572L438.127,210.324L434.966,208.566L435.919,205.598L437.306,203.41L437.568,201.547L435.328,205.43L434.773,207.169L433.604,205.066L431.784,207.524L433.75,205.951L432.841,208.373L432.768,210.691L431.119,211.368L429.718,213.044L429.813,214.218L431.113,212.118L432.146,211.81L432.384,213.805L433.242,212.233L434.366,214.912L433.14,216.633L431.666,215.892L430.078,217.51L430.073,218.301L431.953,216.438L433.788,217.358L435.386,215.17L436.829,218.556L434.4,220.039L434.16,222.065L435.819,222.754L434.073,224.691L433.751,223.779L433.039,228.166L431.828,226.642L430.847,228.789L426.423,228.202L427.218,226.666L425.91,226.932L425.002,229.38L424.116,226.238L423.155,225.451L423.514,228.125L421.535,229.934L420.523,228.914L420.521,233.814L418.183,232.453L418.79,234.902L417.385,235.018L417.539,236.442L414.49,238.921L415.455,235.224L413.785,239L412.396,237.514L412.579,239.706L411.233,239.794L408.765,244.131L408.345,241.929L407.76,244.018L404.918,243.536L401.413,245.4L399.105,243.622L399.925,240.252L402.259,238.974L404.148,239.272L404.202,237.892L406.773,236.767L406.489,235.895L409.024,232.709L407.69,232.738L403.53,236.023L400.269,234.454L399.88,233.32L401.322,228.274L403.935,224.663L404.167,221.739L404.942,221.276L405.155,218.079L403.617,214.72L406.899,213.289L410.085,210.191L412.89,208.119L414.125,209.62L416.203,210.353L418.876,209.114L420.114,209.887L423.872,210.167L425.914,211.093L424.31,209.176L422.779,209.612L419.117,208.119L415.823,205.646L417.037,204.551L418.897,201.041L423.157,198.791L421.818,198.253L419.393,198.902L417.386,200.958L416.53,203.96L412.201,204.081L410.126,202.893L409.715,204.072L407.355,205.342L405.853,207.977L402.754,209.081L399.878,212.077L400.849,214.601L399.438,214.227L397.11,217.454L395.168,219.2L395.981,221.378L392.92,224.807L389.277,224.445L391.799,225.925L392.888,228.153L391.652,230.86L390.651,231.594L386.63,231.938L386.081,232.985L388.564,232.501L388.289,235.292L386.753,236.437L385.262,235.286L384.33,233.286L384.318,236.041L383.097,238.09L381.048,238.467L381.728,240.305L378.001,242.16L377.243,246.48L377.416,248.583L378.423,247.481L382.044,247.443L383.561,249.201L385.73,250.402L385.996,251.703L386.537,251.676L385.743,251.695L384.649,254.565L382.412,256.451L380.086,256.595L379.433,258.919L378.157,258.96L379.142,260.8L375.437,262.935L377.53,262.312L377.526,263.93L375.16,266.548L372.767,266.037L373.193,267.932L368.5,267.876L367.672,271.005L366.08,270.735L365.701,273.05L364.605,273.837L362.215,272.406L362.454,274.881L361.287,275.241L360.941,277.029L357.729,276.654L357.842,279.096L356.698,278.429L354.522,279.417L352.164,282.021L354.192,281.287L354.155,284.448L351.341,286.613L352.019,287.763L349.936,287.481L349.253,289.228L348.379,288.266L346.164,290.783L345.169,289.99L344.893,291.742L343.113,289.804L342.046,290.474L341.165,293.35L341.957,294.369L339.637,294.56L339.057,293.224L337.22,293.738L334.78,295.84L337.781,295.348L337.566,297.049L334.657,295.948L334.658,297.168L332.53,296.58L328.883,300.604L332.328,299.669L333.641,300.395L331.701,301.521L330.735,306.072L329.897,306.289L329.139,304.208L329.73,302.429L328.239,303.661L328.54,306.059L326.109,305.527L324.382,307.628L323.69,306.902L320.609,307.585L319.843,309.249L319.544,307.13L318.451,307.503L318.854,309.757L317.911,312.056L316.334,311.501L317.609,308.61L315.452,307.571L313.697,308.236L312.631,310.403L308.722,311.921L306.944,314.244L306.32,312.117L305.494,314.394L304.175,314.429L303.419,312.875L301.823,314.415L299.002,315.746L296.05,315.301L296.567,312.859L298.139,311.274L297.625,310.183L295.714,310.209L294.038,312.305L294.176,314.2L291.629,317.446L289.954,317.001L290.396,319.672L289.244,320.187L288.126,318.455L287.822,320.255L285.289,320.475L284.221,318.722L284.646,316.051L282.441,315.689L283.412,317.497L282.507,320.707L280.93,321.905L279.427,321.312L278.743,318.597L276.805,317.409L276.277,319.166L278.225,321.201L274.221,323.383L275.307,320.299L275.411,318.124L276.856,316.761L280.623,316.938L280.65,315.239L282.142,314.91L283.46,313.434L284.983,313.749L284.752,311.816L288.605,307.847L293.904,304.656L299.375,303.699L301.997,304.575L304.258,303.653L304.315,304.998L302.373,305.48L304.641,309.112L304.948,306.118L308.012,306.626L308.515,308.34L310.517,308.89L311,307.535L308.031,305.226L307.608,303.941L310.633,298.597L316.551,294.187L322.122,292.181L327.017,288.453L327.004,288.631L326.906,289.96L329.784,291.019L329.323,286.683L333.704,280.918L335.93,279.775L337.914,277.486L340.224,275.862L341.838,277.918L341.555,274.831L340.572,274.998L340.581,272.831L342.23,265.103L344.122,264.203L342.765,262.016L343.667,258.128L345.977,255.719L348.292,253.63L349.053,250.402L348.681,249.07L347.262,250.877L343.261,252.748L337.13,255.12L335.437,254.285L335.171,252.793L333.068,251.177L333.714,250.199L334.062,246.671L332.714,248.981L331.201,249.433L330.743,252.267L327.933,250.086L329.617,251.784L330.751,255.682L331.339,257.167L330.239,258.722L327.666,258.341L324.716,251.339L322.289,249.565L323.024,248.583L321.388,247.842L320.756,250.108L319.587,250.606L318.303,248.369L316.377,248.063L316.52,246.165L315.393,244.748L310.374,247.945L308.379,248.285L307.984,248.592L305.14,249.985L304.465,251.464L300.511,253.085L301.092,251.872L297.567,251.367L296.591,250.675L300.051,250.469L301.172,248.072L301.192,245.121L303.848,242.476L301.306,242.011L300.328,242.657L299.426,239.679L300.534,236.741L303.167,234.713L301.963,231.945L301.37,228.612L300.325,226.759L299.436,222.58L300.074,221.388L297.794,218.154L299.296,217.009L300.74,213.226L300.414,212.518L298.474,216.099L296.703,217.705L296.687,219.708L297.618,220.347L296.617,224.046L294.113,223.835L293.913,224.806L289.413,226.22L285.904,226.496L282.337,225.915L280.792,225.117L280.067,222.696L281.038,222.357L278.799,219.975L276.774,215.296L278.129,212.521L279.629,212.068L278.944,210.692L280.52,210.601L281.689,209.113L283.094,208.969L285.306,206.901L286.521,208.22L285.805,210.251L286.79,211.311L289.885,208.784L288.839,206.966L285.437,205.57L286.759,204.992L288.015,205.783L289.269,205.179L287.008,204.242L285.28,205.472L285.36,201.772L283.532,203.44L284.026,204.909L279.707,204.84L278.869,203.001L277.214,203.455L276.967,202.455L274.347,202.508L273.977,201.25L276.356,200.766L278.281,199.464L276.212,199.164L275.878,200.142L273.401,197.418L272.774,199.07L271.079,198.583L270.754,195.781L271.335,194.805L269.022,193.656L269.07,191.698L270.668,190.725L269.386,189.02L267.736,189.178L267.604,187.144L270.954,186.867L269.097,185.612L268.595,183.959L273.182,183.953L272.37,181.759L273.547,178.136L278.405,172.933L280.469,171.364L282.254,171.81L285.729,168.627L288.312,169.501L290.961,174.528L290.409,171.055L290.804,169.298L289.604,167.202L289.857,165.976L292.598,165.71L293.147,163.954L295.671,162.434L296.953,164.187L299.639,163.946L301.783,161.512L304.147,160.426L306.586,157.16L307.17,155.52L309.633,156.924L308.292,157.86L312.155,157.647L313.774,158.045L317.135,157.445L320.92,152.597L320.962,150.977L320.016,147.007L320.093,143.355L317.992,140.218L315.983,139.687L317.386,137.197L319.72,138.274L322.399,136.067L322.653,134.186L321.886,132.031L320.318,130.738L321.192,129.819L319.859,129.74L317.973,132.463L316.409,133.025L315.34,132.132L313.386,133.41L311.074,133.594L310.456,134.679L307.672,136.101L306.425,138.91L305.054,139.808L305.017,136.439L302.562,133.109L301.052,134.156L302.742,135.96L302.638,137.819L298.972,134.271L292.653,133.452L289.891,134.338L289.774,133.745L286.802,134.913L284.361,133.435L277.588,130.476L276.08,128.753L276.003,125.794L277.085,124.239L275.004,121.857L274.331,119.133L276.499,119.404L278.648,117.062L281.113,118.084L282.366,121.388L283.627,122.22L285.801,120.921L284.849,119.873L282.512,119.254L281.914,119.913L281.1,117.667L279.122,116.128L275.212,114.173L270.879,112.782L268.717,110.304L266.233,108.31L268.972,106.273L270.614,106.595L270.952,104.966L273.841,103.445L274.418,104.788L277.095,103.518L279.255,101.084L283.014,99.861L284.241,101.342L287.532,101.828L288.542,101.167L285.931,99.185L287.17,97.72L289.894,96.535L293.372,96.874L296.05,94.754L298.451,94.43L302.432,94.801L303.307,95.754L301.907,98.871L301.988,100.996L301.035,102.015L301.982,105.094L303.999,105.061L307.128,105.903L309.927,105.797L312.743,107.331L314.702,106.576L316.211,107.612L316.466,109.085L319.662,104.017L324.113,104.685L323.193,102.654L320.231,101.012L317.209,101.427L317.707,98.437L315.703,94.586L313.432,93.499L312.852,91.299L314.079,89.554L315.314,89.669L317.276,93.16L316.575,95.703L317.582,97.833L319.933,100.158L323.237,98.593L325.877,102.18L330.139,102.253L330.637,99.657L329.712,97.87L327.369,98.028L326.252,96.613L323.759,96.623L322.256,98.812L320.822,98.546L318.198,94.553L319.207,91.458L320.5,90.128L321.823,90.185L319.486,88.151L314.365,88.844L312.446,87.206L310.836,87.443L305.473,85.233L304.881,79.026L303.795,75.397L301.03,72.447L295.873,65.561L291.846,62.62L289.923,59.328L286.644,57.443L290.18,57.254L292.54,50.236L292.572,48.388L298.699,49.803L306.267,49.672L308.698,48.925L312.221,46.392L315.31,42.507L316.819,39.409L316.299,38.275L317.939,36.499L317.199,35.722L321.681,31.366L321.951,30.217L324.159,28.399L326.504,25.688L327.736,27.169L326.223,27.032L326.286,28.542L324.789,28.435L326.211,28.761L327.956,27.153L329.331,27.433L334.102,25.317L338.611,21.328L340.053,21.726L339.867,23.813L338.186,26.705L339.862,25.752L340.516,23.778L340.055,21.17L338.759,21.011L342.045,17.925L345.377,16.952L344.054,17.886L346.319,18.824L352.17,18.094L354.407,17.252L357.99,14.077L360.991,9.74L362.206,8.737L363.624,10.202L365.704,10.752L365.377,12.318L367.825,11.724L369.254,13.939L367.765,15.786L365.652,16.156L365.952,18.605L369.332,18.756L369.241,16.55L373.718,13.771L375.35,15.672L374.7,17.746L377.904,19.99L379.527,17.849L384.673,17.013L387.222,18.151L388.315,17.689L390.664,18.729L389.083,21.497L389.448,22.926L391.858,23.396L388.288,24.194L394.299,23.883L393.136,26.224L395.185,26L397.636,27.395L398.146,25.882L401.211,25.461L401.102,27.586L404.98,25.677L406.436,24.066L411.127,24.191L413.379,25.784L415.787,26.136L416.017,27.159L417.661,26.379L420.692,28.376L424.901,29.472L429.18,28.337L432.882,28.961L433.836,28.191L438.232,30.992L442.534,30.797L443.27,29.744L451.536,26.628L454.848,27.451L457.804,29.091L458.926,30.503L462.837,31.286L465.514,33.486L466.445,32.318L467.97,32.775L472.268,54.456L482.278,104.958L497.25,180.484L502.999,209.488L503.324,211.128L508.203,211.87L508.428,210.052L513.475,211.515L515.546,208L521.264,206.376L521.23,211.69L523.029,213.157L526.718,214.073L528.087,216.527L540.285,224.127L542.531,228.775L542.667,230.335L548.199,223.777L550.519,223.04L550.937,221.022L549.987,217.096L551.671,216.671L551.761,214.717L550.497,214.245L553.98,212.021L555.831,210.147L557.723,208.199L560.606,209.447L563.26,211.367L563.298,214.139L564.392,215.473L565.471,216.492L568.108,216.356L568.599,217.373L570.824,217.944L573.173,220.615L574.496,222.354L579.297,223.563L581.299,225.336L585.539,227.726L584.957,228.785L589.196,232.256L591.137,234.763L594.053,237.114L599.286,242.45L602.091,244.543L604.137,246.699L603.704,249.319L607.23,249.072L607.487,252.524L610.482,252.893L612.168,256.586L614.663,255.449L621.222,257.439L624.379,257.066L626.651,258.313L628.378,258.169L629.467,259.879L631.601,260.026L632.917,258.983L634.731,260.698L635.425,262.533L634.817,265.709L636.306,268.891L640,273.85L639.311,275.98L639.007,280.648L637.141,285.116L635.68,286.176L634.439,285.012L634.511,286.625L633.25,286.347L632.299,284.073L629.01,279.679L630.454,276.751L627.489,269.508L622.29,265.259L620.827,266.748L620.268,265.989L617.602,269.626L616.12,270.262L617.85,270.938L617.774,277.355L614.971,276.498L613.248,274.006L613.637,273.807L614.155,269.13L614.921,268.59L613.562,264.886L615.378,263.591L613.399,263.577L611.988,261.744L610.838,261.85L607.261,259.608L607.482,256.784L605.458,257.391L604.637,256.15L601.231,255.371L598.477,253.106L600.1,252.317L595.455,252.048L595.019,250.456L594.094,252.156L591.654,251.493L591.309,249.167L594.636,247.809L591.599,248.093L591.648,246.765L589.774,245.964L589.948,243.549L588.749,244.471L587.469,243.653L587.788,241.447L592.677,242.868L589.315,240.96L587.559,240.726L586.924,238.481L587.109,237.838L587.273,237.499L586.615,239.472L586.217,240.556L585.896,240.526L583.778,238.118L580.805,236.028L579.662,232.708L580.444,231.64L579.547,230.234L578.832,232.381L579.59,233.346L578.682,234.516L574.867,232.569L572.696,232.847L571.496,230.737L568.998,228.068L567.287,222.271L567.181,222.291L568.047,224.589L567.882,226.972L565.951,225.007L565.064,222.867L561.383,216.458L561.011,216.324L561.077,219.007L559.881,218.846L562.369,221.043L562.92,223.608L565.463,226.693L566.626,229.267L569.643,234.266L569.911,236.487L568.092,237.071L566.512,235.701L564.543,232.679L565.128,234.993L563.627,234.394L561.06,236.066Z" fill="lightgray" stroke="white"/></g><g class="mark-group role-title"><g transform="translate(320,-17)"><path class="background" aria-hidden="true" d="M0,0h0v0h0Z" pointer-events="none"/><g><g class="mark-text role-title-text" role="graphics-symbol" aria-roledescription="title" aria-label="Title text 'Map of Alaska'" pointer-events="none"><text text-anchor="middle" transform="translate(0,10)" font-family="sans-serif" font-size="13px" font-weight="bold" fill="#000" opacity="1">Map of Alaska</text></g></g><path class="foreground" aria-hidden="true" d="" pointer-events="none" display="none"/></g></g></g><path class="foreground" aria-hidden="true" d="" display="none"/></g></g></g></svg>