<svg xmlns="http://www.w3.org/2000/svg" xmlns:xlink="http://www.w3.org/1999/xlink" version="1.1" class="marks" width="650" height="389" viewBox="0 0 650 389"><rect width="650" height="389" fill="white"/><g fill="none" stroke-miterlimit="10" transform="translate(5,23)"><g class="mark-group role-frame root" role="graphics-object" aria-roledescription="group mark container"><g transform="translate(0,0)"><path class="background" aria-hidden="true" d="M0,0h640v360h-640Z"/><g><g class="mark-shape role-mark layer_0_marks" role="graphics-symbol" aria-roledescription="shape mark container"><path transform="translate(0,0)" d="M291.443,323.372L303.093,309.659L312.979,300.019L318.835,295.991L326.203,290.565L326.391,282.756L322.015,277.148L317.67,279.02L319.37,273.43L320.567,267.719L320.567,262.441L317.418,260.708L314.144,262.263L310.901,261.841L309.862,258.154L309.043,249.446L307.406,246.61L301.518,244.052L297.929,245.906L288.704,244.1L289.271,231.347L286.689,226.15L289.428,224.227L288.578,218.929L291.002,214.87L292.545,207.608L290.467,201.901L285.713,199.325L284.768,195.717L286.059,190.435L269.278,190.065L265.909,179.487L268.459,179.334L268.365,175.428L266.633,172.798L266.255,167.579L261.186,164.914L255.676,165.005L252.055,162.389L246.136,160.61L242.704,157.271L232.913,155.784L223.404,147.778L224.128,141.802L223.058,138.382L223.971,131.721L212.542,133.223L207.914,136.561L200.263,140.159L198.311,142.857L193.808,143.054L187.322,142.3L182.379,143.838L178.412,142.812L178.979,129.303L171.8,134.531L164.087,134.305L160.781,129.574L154.987,129.063L156.845,125.254L151.965,119.877L148.344,111.925L150.642,110.313L150.642,106.584L155.932,104.035L155.05,99.283L157.286,96.218L157.915,92.128L167.928,86.155L175.075,84.462L176.24,83.141L184.142,83.557L188.078,59.543L188.267,55.752L186.913,50.734L183.04,47.551L183.072,41.186L187.984,39.75L189.747,40.653L190.03,37.307L184.93,36.404L184.804,30.925L201.837,31.118L204.734,28.111L207.158,30.881L208.89,36.049L210.527,34.968L215.344,39.587L222.145,39.025L223.845,36.345L230.331,34.302L233.952,32.865L234.959,29.163L241.193,26.675L240.721,24.838L233.322,24.082L232.094,18.569L232.472,12.696L228.536,10.426L230.173,9.61L236.659,10.738L243.618,12.933L246.136,10.856L252.433,9.491L262.194,6.21L265.405,2.868L264.24,0.386L268.805,0L270.821,2.021L269.687,5.869L272.71,7.205L274.693,11.272L272.269,14.372L270.883,21.815L273.119,26.245L273.749,30.303L279.133,34.405L283.446,34.835L284.391,33.117L287.161,32.747L291.128,31.207L293.962,28.882L298.811,29.622L300.92,29.311L305.674,30.022L306.461,28.245L305.013,26.497L305.895,23.963L309.421,24.749L313.546,23.845L318.552,25.697L322.361,27.504L325.069,25.134L327.021,25.504L328.218,27.963L332.405,27.341L335.774,24.023L338.45,17.561L343.614,9.55L346.605,9.135L348.777,13.987L353.657,29.296L358.349,30.733L358.569,36.774L352.02,43.984L354.728,46.619L370.187,47.98L370.502,56.759L377.145,51.015L388.133,54.153L402.679,59.499L406.93,64.623L405.513,69.468L415.683,66.771L432.685,71.409L445.751,71.068L458.691,78.319L469.868,88.145L476.606,90.671L484.068,91.028L487.248,93.793L490.208,104.989L491.656,110.328L488.193,124.939L483.722,130.715L471.411,143.084L465.838,153.178L459.352,160.96L457.18,161.127L454.724,167.747L455.354,184.691L452.929,198.736L451.985,204.791L449.214,208.419L447.671,220.782L438.793,232.947L437.313,242.647L430.229,246.738L428.182,252.433L418.674,252.401L404.915,256.056L398.775,260.303L388.984,263.105L378.688,270.75L371.289,280.352L369.998,287.63L371.446,293.042L369.841,303.021L367.857,307.886L361.718,313.384L352.02,331.18L344.338,339.295L338.387,344.13L334.389,354.019L328.627,360L326.203,354.072L330.044,349.132L325.006,342.085L318.142,336.391L309.138,329.834L305.895,330.145L297.11,322.294Z" fill="lightgray" stroke="white"/></g><g class="mark-group role-title"><g transform="translate(320,-17.99999999999998)"><path class="background" aria-hidden="true" d="M0,0h0v0h0Z" pointer-events="none"/><g><g class="mark-text role-title-text" role="graphics-symbol" aria-roledescription="title" aria-label="Title text 'Mapa do Brasil'" pointer-events="none"><text text-anchor="middle" transform="translate(0,10)" font-family="sans-serif" font-size="13px" font-weight="bold" fill="#000" opacity="1">Mapa do Brasil</text></g></g><path class="foreground" aria-hidden="true" d="" pointer-events="none" display="none"/></g></g></g><path class="foreground" aria-hidden="true" d="" display="none"/></g></g></g></svg>