<?xml version="1.0" encoding="utf-8"?>
<svg xmlns="http://www.w3.org/2000/svg" xmlns:xlink="http://www.w3.org/1999/xlink" width="800" height="450" viewBox="0 0 3200 1800">
<defs>
  <clipPath id="clip970">
    <rect x="0" y="0" width="3200" height="1800"/>
  </clipPath>
</defs>
<path clip-path="url(#clip970)" d="M0 1800 L3200 1800 L3200 0 L0 0  Z" fill="#ffffff" fill-rule="evenodd" fill-opacity="1"/>
<defs>
  <clipPath id="clip971">
    <rect x="640" y="0" width="2241" height="1800"/>
  </clipPath>
</defs>
<path clip-path="url(#clip970)" d="M232.964 1634 L3152.76 1634 L3152.76 114.022 L232.964 114.022  Z" fill="#ffffff" fill-rule="evenodd" fill-opacity="1"/>
<defs>
  <clipPath id="clip972">
    <rect x="232" y="114" width="2921" height="1521"/>
  </clipPath>
</defs>
<polyline clip-path="url(#clip972)" style="stroke:#000000; stroke-linecap:round; stroke-linejoin:round; stroke-width:2; stroke-opacity:0.1; fill:none" points="895.499,1634 895.499,114.022 "/>
<polyline clip-path="url(#clip972)" style="stroke:#000000; stroke-linecap:round; stroke-linejoin:round; stroke-width:2; stroke-opacity:0.1; fill:none" points="1620.37,1634 1620.37,114.022 "/>
<polyline clip-path="url(#clip972)" style="stroke:#000000; stroke-linecap:round; stroke-linejoin:round; stroke-width:2; stroke-opacity:0.1; fill:none" points="2345.25,1634 2345.25,114.022 "/>
<polyline clip-path="url(#clip972)" style="stroke:#000000; stroke-linecap:round; stroke-linejoin:round; stroke-width:2; stroke-opacity:0.1; fill:none" points="3070.12,1634 3070.12,114.022 "/>
<polyline clip-path="url(#clip970)" style="stroke:#000000; stroke-linecap:round; stroke-linejoin:round; stroke-width:4; stroke-opacity:1; fill:none" points="232.964,1634 3152.76,1634 "/>
<polyline clip-path="url(#clip970)" style="stroke:#000000; stroke-linecap:round; stroke-linejoin:round; stroke-width:4; stroke-opacity:1; fill:none" points="895.499,1634 895.499,1615.11 "/>
<polyline clip-path="url(#clip970)" style="stroke:#000000; stroke-linecap:round; stroke-linejoin:round; stroke-width:4; stroke-opacity:1; fill:none" points="1620.37,1634 1620.37,1615.11 "/>
<polyline clip-path="url(#clip970)" style="stroke:#000000; stroke-linecap:round; stroke-linejoin:round; stroke-width:4; stroke-opacity:1; fill:none" points="2345.25,1634 2345.25,1615.11 "/>
<polyline clip-path="url(#clip970)" style="stroke:#000000; stroke-linecap:round; stroke-linejoin:round; stroke-width:4; stroke-opacity:1; fill:none" points="3070.12,1634 3070.12,1615.11 "/>
<path clip-path="url(#clip970)" d="M885.777 1668.24 L904.133 1668.24 L904.133 1672.18 L890.059 1672.18 L890.059 1680.65 Q891.078 1680.3 892.096 1680.14 Q893.115 1679.96 894.133 1679.96 Q899.92 1679.96 903.3 1683.13 Q906.679 1686.3 906.679 1691.72 Q906.679 1697.3 903.207 1700.4 Q899.735 1703.48 893.416 1703.48 Q891.24 1703.48 888.971 1703.11 Q886.726 1702.74 884.318 1701.99 L884.318 1697.3 Q886.402 1698.43 888.624 1698.99 Q890.846 1699.54 893.323 1699.54 Q897.328 1699.54 899.666 1697.43 Q902.004 1695.33 902.004 1691.72 Q902.004 1688.11 899.666 1686 Q897.328 1683.89 893.323 1683.89 Q891.448 1683.89 889.573 1684.31 Q887.721 1684.73 885.777 1685.61 L885.777 1668.24 Z" fill="#000000" fill-rule="nonzero" fill-opacity="1" /><path clip-path="url(#clip970)" d="M1595.06 1698.87 L1602.7 1698.87 L1602.7 1672.5 L1594.39 1674.17 L1594.39 1669.91 L1602.65 1668.24 L1607.33 1668.24 L1607.33 1698.87 L1614.97 1698.87 L1614.97 1702.8 L1595.06 1702.8 L1595.06 1698.87 Z" fill="#000000" fill-rule="nonzero" fill-opacity="1" /><path clip-path="url(#clip970)" d="M1634.41 1671.32 Q1630.8 1671.32 1628.97 1674.89 Q1627.17 1678.43 1627.17 1685.56 Q1627.17 1692.67 1628.97 1696.23 Q1630.8 1699.77 1634.41 1699.77 Q1638.05 1699.77 1639.85 1696.23 Q1641.68 1692.67 1641.68 1685.56 Q1641.68 1678.43 1639.85 1674.89 Q1638.05 1671.32 1634.41 1671.32 M1634.41 1667.62 Q1640.22 1667.62 1643.28 1672.23 Q1646.36 1676.81 1646.36 1685.56 Q1646.36 1694.29 1643.28 1698.89 Q1640.22 1703.48 1634.41 1703.48 Q1628.6 1703.48 1625.52 1698.89 Q1622.47 1694.29 1622.47 1685.56 Q1622.47 1676.81 1625.52 1672.23 Q1628.6 1667.62 1634.41 1667.62 Z" fill="#000000" fill-rule="nonzero" fill-opacity="1" /><path clip-path="url(#clip970)" d="M2320.43 1698.87 L2328.07 1698.87 L2328.07 1672.5 L2319.76 1674.17 L2319.76 1669.91 L2328.02 1668.24 L2332.7 1668.24 L2332.7 1698.87 L2340.34 1698.87 L2340.34 1702.8 L2320.43 1702.8 L2320.43 1698.87 Z" fill="#000000" fill-rule="nonzero" fill-opacity="1" /><path clip-path="url(#clip970)" d="M2349.83 1668.24 L2368.19 1668.24 L2368.19 1672.18 L2354.11 1672.18 L2354.11 1680.65 Q2355.13 1680.3 2356.15 1680.14 Q2357.17 1679.96 2358.19 1679.96 Q2363.97 1679.96 2367.35 1683.13 Q2370.73 1686.3 2370.73 1691.72 Q2370.73 1697.3 2367.26 1700.4 Q2363.79 1703.48 2357.47 1703.48 Q2355.29 1703.48 2353.02 1703.11 Q2350.78 1702.74 2348.37 1701.99 L2348.37 1697.3 Q2350.45 1698.43 2352.68 1698.99 Q2354.9 1699.54 2357.38 1699.54 Q2361.38 1699.54 2363.72 1697.43 Q2366.06 1695.33 2366.06 1691.72 Q2366.06 1688.11 2363.72 1686 Q2361.38 1683.89 2357.38 1683.89 Q2355.5 1683.89 2353.63 1684.31 Q2351.77 1684.73 2349.83 1685.61 L2349.83 1668.24 Z" fill="#000000" fill-rule="nonzero" fill-opacity="1" /><path clip-path="url(#clip970)" d="M3048.89 1698.87 L3065.21 1698.87 L3065.21 1702.8 L3043.27 1702.8 L3043.27 1698.87 Q3045.93 1696.12 3050.51 1691.49 Q3055.12 1686.83 3056.3 1685.49 Q3058.55 1682.97 3059.43 1681.23 Q3060.33 1679.47 3060.33 1677.78 Q3060.33 1675.03 3058.38 1673.29 Q3056.46 1671.56 3053.36 1671.56 Q3051.16 1671.56 3048.71 1672.32 Q3046.28 1673.08 3043.5 1674.63 L3043.5 1669.91 Q3046.32 1668.78 3048.78 1668.2 Q3051.23 1667.62 3053.27 1667.62 Q3058.64 1667.62 3061.83 1670.31 Q3065.03 1672.99 3065.03 1677.48 Q3065.03 1679.61 3064.22 1681.53 Q3063.43 1683.43 3061.32 1686.02 Q3060.75 1686.69 3057.64 1689.91 Q3054.54 1693.11 3048.89 1698.87 Z" fill="#000000" fill-rule="nonzero" fill-opacity="1" /><path clip-path="url(#clip970)" d="M3085.03 1671.32 Q3081.42 1671.32 3079.59 1674.89 Q3077.78 1678.43 3077.78 1685.56 Q3077.78 1692.67 3079.59 1696.23 Q3081.42 1699.77 3085.03 1699.77 Q3088.66 1699.77 3090.47 1696.23 Q3092.3 1692.67 3092.3 1685.56 Q3092.3 1678.43 3090.47 1674.89 Q3088.66 1671.32 3085.03 1671.32 M3085.03 1667.62 Q3090.84 1667.62 3093.89 1672.23 Q3096.97 1676.81 3096.97 1685.56 Q3096.97 1694.29 3093.89 1698.89 Q3090.84 1703.48 3085.03 1703.48 Q3079.22 1703.48 3076.14 1698.89 Q3073.08 1694.29 3073.08 1685.56 Q3073.08 1676.81 3076.14 1672.23 Q3079.22 1667.62 3085.03 1667.62 Z" fill="#000000" fill-rule="nonzero" fill-opacity="1" /><path clip-path="url(#clip970)" d="M1614.74 1743.35 L1654.94 1743.35 L1654.94 1748.76 L1638.07 1748.76 L1638.07 1790.87 L1631.61 1790.87 L1631.61 1748.76 L1614.74 1748.76 L1614.74 1743.35 Z" fill="#000000" fill-rule="nonzero" fill-opacity="1" /><path clip-path="url(#clip970)" d="M1658.88 1755.22 L1664.74 1755.22 L1664.74 1790.87 L1658.88 1790.87 L1658.88 1755.22 M1658.88 1741.34 L1664.74 1741.34 L1664.74 1748.76 L1658.88 1748.76 L1658.88 1741.34 Z" fill="#000000" fill-rule="nonzero" fill-opacity="1" /><path clip-path="url(#clip970)" d="M1704.75 1762.06 Q1706.94 1758.12 1710 1756.24 Q1713.06 1754.36 1717.19 1754.36 Q1722.76 1754.36 1725.79 1758.28 Q1728.81 1762.16 1728.81 1769.35 L1728.81 1790.87 L1722.92 1790.87 L1722.92 1769.54 Q1722.92 1764.42 1721.11 1761.94 Q1719.29 1759.45 1715.57 1759.45 Q1711.02 1759.45 1708.38 1762.48 Q1705.73 1765.5 1705.73 1770.72 L1705.73 1790.87 L1699.85 1790.87 L1699.85 1769.54 Q1699.85 1764.39 1698.03 1761.94 Q1696.22 1759.45 1692.43 1759.45 Q1687.94 1759.45 1685.3 1762.51 Q1682.66 1765.53 1682.66 1770.72 L1682.66 1790.87 L1676.77 1790.87 L1676.77 1755.22 L1682.66 1755.22 L1682.66 1760.76 Q1684.66 1757.48 1687.47 1755.92 Q1690.27 1754.36 1694.12 1754.36 Q1698 1754.36 1700.71 1756.33 Q1703.44 1758.31 1704.75 1762.06 Z" fill="#000000" fill-rule="nonzero" fill-opacity="1" /><path clip-path="url(#clip970)" d="M1770.98 1771.58 L1770.98 1774.45 L1744.06 1774.45 Q1744.44 1780.49 1747.68 1783.68 Q1750.96 1786.83 1756.79 1786.83 Q1760.16 1786.83 1763.31 1786 Q1766.5 1785.17 1769.61 1783.52 L1769.61 1789.05 Q1766.46 1790.39 1763.15 1791.09 Q1759.84 1791.79 1756.44 1791.79 Q1747.91 1791.79 1742.91 1786.83 Q1737.95 1781.86 1737.95 1773.39 Q1737.95 1764.64 1742.66 1759.52 Q1747.4 1754.36 1755.42 1754.36 Q1762.61 1754.36 1766.78 1759.01 Q1770.98 1763.62 1770.98 1771.58 M1765.13 1769.86 Q1765.06 1765.06 1762.42 1762.19 Q1759.81 1759.33 1755.48 1759.33 Q1750.58 1759.33 1747.62 1762.1 Q1744.69 1764.86 1744.25 1769.89 L1765.13 1769.86 Z" fill="#000000" fill-rule="nonzero" fill-opacity="1" /><polyline clip-path="url(#clip972)" style="stroke:#000000; stroke-linecap:round; stroke-linejoin:round; stroke-width:2; stroke-opacity:0.1; fill:none" points="232.964,1430.17 3152.76,1430.17 "/>
<polyline clip-path="url(#clip972)" style="stroke:#000000; stroke-linecap:round; stroke-linejoin:round; stroke-width:2; stroke-opacity:0.1; fill:none" points="232.964,1162.14 3152.76,1162.14 "/>
<polyline clip-path="url(#clip972)" style="stroke:#000000; stroke-linecap:round; stroke-linejoin:round; stroke-width:2; stroke-opacity:0.1; fill:none" points="232.964,894.116 3152.76,894.116 "/>
<polyline clip-path="url(#clip972)" style="stroke:#000000; stroke-linecap:round; stroke-linejoin:round; stroke-width:2; stroke-opacity:0.1; fill:none" points="232.964,626.088 3152.76,626.088 "/>
<polyline clip-path="url(#clip972)" style="stroke:#000000; stroke-linecap:round; stroke-linejoin:round; stroke-width:2; stroke-opacity:0.1; fill:none" points="232.964,358.061 3152.76,358.061 "/>
<polyline clip-path="url(#clip970)" style="stroke:#000000; stroke-linecap:round; stroke-linejoin:round; stroke-width:4; stroke-opacity:1; fill:none" points="232.964,1634 232.964,114.022 "/>
<polyline clip-path="url(#clip970)" style="stroke:#000000; stroke-linecap:round; stroke-linejoin:round; stroke-width:4; stroke-opacity:1; fill:none" points="232.964,1430.17 251.862,1430.17 "/>
<polyline clip-path="url(#clip970)" style="stroke:#000000; stroke-linecap:round; stroke-linejoin:round; stroke-width:4; stroke-opacity:1; fill:none" points="232.964,1162.14 251.862,1162.14 "/>
<polyline clip-path="url(#clip970)" style="stroke:#000000; stroke-linecap:round; stroke-linejoin:round; stroke-width:4; stroke-opacity:1; fill:none" points="232.964,894.116 251.862,894.116 "/>
<polyline clip-path="url(#clip970)" style="stroke:#000000; stroke-linecap:round; stroke-linejoin:round; stroke-width:4; stroke-opacity:1; fill:none" points="232.964,626.088 251.862,626.088 "/>
<polyline clip-path="url(#clip970)" style="stroke:#000000; stroke-linecap:round; stroke-linejoin:round; stroke-width:4; stroke-opacity:1; fill:none" points="232.964,358.061 251.862,358.061 "/>
<path clip-path="url(#clip970)" d="M142.858 1431.04 Q139.525 1431.04 137.603 1432.82 Q135.705 1434.6 135.705 1437.73 Q135.705 1440.85 137.603 1442.64 Q139.525 1444.42 142.858 1444.42 Q146.191 1444.42 148.113 1442.64 Q150.034 1440.83 150.034 1437.73 Q150.034 1434.6 148.113 1432.82 Q146.215 1431.04 142.858 1431.04 M138.182 1429.05 Q135.173 1428.31 133.483 1426.25 Q131.816 1424.19 131.816 1421.22 Q131.816 1417.08 134.756 1414.67 Q137.719 1412.27 142.858 1412.27 Q148.02 1412.27 150.96 1414.67 Q153.9 1417.08 153.9 1421.22 Q153.9 1424.19 152.21 1426.25 Q150.543 1428.31 147.557 1429.05 Q150.937 1429.83 152.812 1432.13 Q154.71 1434.42 154.71 1437.73 Q154.71 1442.75 151.631 1445.44 Q148.576 1448.12 142.858 1448.12 Q137.141 1448.12 134.062 1445.44 Q131.006 1442.75 131.006 1437.73 Q131.006 1434.42 132.904 1432.13 Q134.803 1429.83 138.182 1429.05 M136.469 1421.66 Q136.469 1424.35 138.136 1425.85 Q139.826 1427.36 142.858 1427.36 Q145.867 1427.36 147.557 1425.85 Q149.27 1424.35 149.27 1421.66 Q149.27 1418.98 147.557 1417.47 Q145.867 1415.97 142.858 1415.97 Q139.826 1415.97 138.136 1417.47 Q136.469 1418.98 136.469 1421.66 Z" fill="#000000" fill-rule="nonzero" fill-opacity="1" /><path clip-path="url(#clip970)" d="M173.02 1415.97 Q169.409 1415.97 167.58 1419.53 Q165.775 1423.08 165.775 1430.2 Q165.775 1437.31 167.58 1440.88 Q169.409 1444.42 173.02 1444.42 Q176.654 1444.42 178.46 1440.88 Q180.288 1437.31 180.288 1430.2 Q180.288 1423.08 178.46 1419.53 Q176.654 1415.97 173.02 1415.97 M173.02 1412.27 Q178.83 1412.27 181.886 1416.87 Q184.964 1421.45 184.964 1430.2 Q184.964 1438.93 181.886 1443.54 Q178.83 1448.12 173.02 1448.12 Q167.21 1448.12 164.131 1443.54 Q161.076 1438.93 161.076 1430.2 Q161.076 1421.45 164.131 1416.87 Q167.21 1412.27 173.02 1412.27 Z" fill="#000000" fill-rule="nonzero" fill-opacity="1" /><path clip-path="url(#clip970)" d="M103.506 1175.49 L111.145 1175.49 L111.145 1149.12 L102.835 1150.79 L102.835 1146.53 L111.099 1144.86 L115.775 1144.86 L115.775 1175.49 L123.414 1175.49 L123.414 1179.42 L103.506 1179.42 L103.506 1175.49 Z" fill="#000000" fill-rule="nonzero" fill-opacity="1" /><path clip-path="url(#clip970)" d="M142.858 1147.94 Q139.247 1147.94 137.418 1151.51 Q135.613 1155.05 135.613 1162.18 Q135.613 1169.28 137.418 1172.85 Q139.247 1176.39 142.858 1176.39 Q146.492 1176.39 148.298 1172.85 Q150.127 1169.28 150.127 1162.18 Q150.127 1155.05 148.298 1151.51 Q146.492 1147.94 142.858 1147.94 M142.858 1144.24 Q148.668 1144.24 151.724 1148.84 Q154.802 1153.43 154.802 1162.18 Q154.802 1170.9 151.724 1175.51 Q148.668 1180.09 142.858 1180.09 Q137.048 1180.09 133.969 1175.51 Q130.914 1170.9 130.914 1162.18 Q130.914 1153.43 133.969 1148.84 Q137.048 1144.24 142.858 1144.24 Z" fill="#000000" fill-rule="nonzero" fill-opacity="1" /><path clip-path="url(#clip970)" d="M173.02 1147.94 Q169.409 1147.94 167.58 1151.51 Q165.775 1155.05 165.775 1162.18 Q165.775 1169.28 167.58 1172.85 Q169.409 1176.39 173.02 1176.39 Q176.654 1176.39 178.46 1172.85 Q180.288 1169.28 180.288 1162.18 Q180.288 1155.05 178.46 1151.51 Q176.654 1147.94 173.02 1147.94 M173.02 1144.24 Q178.83 1144.24 181.886 1148.84 Q184.964 1153.43 184.964 1162.18 Q184.964 1170.9 181.886 1175.51 Q178.83 1180.09 173.02 1180.09 Q167.21 1180.09 164.131 1175.51 Q161.076 1170.9 161.076 1162.18 Q161.076 1153.43 164.131 1148.84 Q167.21 1144.24 173.02 1144.24 Z" fill="#000000" fill-rule="nonzero" fill-opacity="1" /><path clip-path="url(#clip970)" d="M103.506 907.46 L111.145 907.46 L111.145 881.095 L102.835 882.761 L102.835 878.502 L111.099 876.836 L115.775 876.836 L115.775 907.46 L123.414 907.46 L123.414 911.396 L103.506 911.396 L103.506 907.46 Z" fill="#000000" fill-rule="nonzero" fill-opacity="1" /><path clip-path="url(#clip970)" d="M136.886 907.46 L153.205 907.46 L153.205 911.396 L131.261 911.396 L131.261 907.46 Q133.923 904.706 138.506 900.076 Q143.113 895.423 144.293 894.081 Q146.539 891.558 147.418 889.822 Q148.321 888.062 148.321 886.373 Q148.321 883.618 146.377 881.882 Q144.455 880.146 141.353 880.146 Q139.154 880.146 136.701 880.91 Q134.27 881.673 131.492 883.224 L131.492 878.502 Q134.316 877.368 136.77 876.789 Q139.224 876.211 141.261 876.211 Q146.631 876.211 149.826 878.896 Q153.02 881.581 153.02 886.072 Q153.02 888.201 152.21 890.122 Q151.423 892.021 149.316 894.613 Q148.738 895.285 145.636 898.502 Q142.534 901.697 136.886 907.46 Z" fill="#000000" fill-rule="nonzero" fill-opacity="1" /><path clip-path="url(#clip970)" d="M173.02 879.914 Q169.409 879.914 167.58 883.479 Q165.775 887.021 165.775 894.15 Q165.775 901.257 167.58 904.821 Q169.409 908.363 173.02 908.363 Q176.654 908.363 178.46 904.821 Q180.288 901.257 180.288 894.15 Q180.288 887.021 178.46 883.479 Q176.654 879.914 173.02 879.914 M173.02 876.211 Q178.83 876.211 181.886 880.817 Q184.964 885.4 184.964 894.15 Q184.964 902.877 181.886 907.484 Q178.83 912.067 173.02 912.067 Q167.21 912.067 164.131 907.484 Q161.076 902.877 161.076 894.15 Q161.076 885.4 164.131 880.817 Q167.21 876.211 173.02 876.211 Z" fill="#000000" fill-rule="nonzero" fill-opacity="1" /><path clip-path="url(#clip970)" d="M103.506 639.433 L111.145 639.433 L111.145 613.067 L102.835 614.734 L102.835 610.475 L111.099 608.808 L115.775 608.808 L115.775 639.433 L123.414 639.433 L123.414 643.368 L103.506 643.368 L103.506 639.433 Z" fill="#000000" fill-rule="nonzero" fill-opacity="1" /><path clip-path="url(#clip970)" d="M145.705 612.882 L133.9 631.331 L145.705 631.331 L145.705 612.882 M144.478 608.808 L150.358 608.808 L150.358 631.331 L155.289 631.331 L155.289 635.22 L150.358 635.22 L150.358 643.368 L145.705 643.368 L145.705 635.22 L130.104 635.22 L130.104 630.706 L144.478 608.808 Z" fill="#000000" fill-rule="nonzero" fill-opacity="1" /><path clip-path="url(#clip970)" d="M173.02 611.887 Q169.409 611.887 167.58 615.452 Q165.775 618.993 165.775 626.123 Q165.775 633.229 167.58 636.794 Q169.409 640.336 173.02 640.336 Q176.654 640.336 178.46 636.794 Q180.288 633.229 180.288 626.123 Q180.288 618.993 178.46 615.452 Q176.654 611.887 173.02 611.887 M173.02 608.183 Q178.83 608.183 181.886 612.79 Q184.964 617.373 184.964 626.123 Q184.964 634.85 181.886 639.456 Q178.83 644.04 173.02 644.04 Q167.21 644.04 164.131 639.456 Q161.076 634.85 161.076 626.123 Q161.076 617.373 164.131 612.79 Q167.21 608.183 173.02 608.183 Z" fill="#000000" fill-rule="nonzero" fill-opacity="1" /><path clip-path="url(#clip970)" d="M103.506 371.406 L111.145 371.406 L111.145 345.04 L102.835 346.707 L102.835 342.448 L111.099 340.781 L115.775 340.781 L115.775 371.406 L123.414 371.406 L123.414 375.341 L103.506 375.341 L103.506 371.406 Z" fill="#000000" fill-rule="nonzero" fill-opacity="1" /><path clip-path="url(#clip970)" d="M143.437 356.198 Q140.289 356.198 138.437 358.35 Q136.608 360.503 136.608 364.253 Q136.608 367.98 138.437 370.156 Q140.289 372.309 143.437 372.309 Q146.585 372.309 148.414 370.156 Q150.265 367.98 150.265 364.253 Q150.265 360.503 148.414 358.35 Q146.585 356.198 143.437 356.198 M152.719 341.545 L152.719 345.804 Q150.96 344.971 149.154 344.531 Q147.372 344.091 145.613 344.091 Q140.983 344.091 138.529 347.216 Q136.099 350.341 135.752 356.661 Q137.117 354.647 139.178 353.582 Q141.238 352.494 143.715 352.494 Q148.923 352.494 151.932 355.665 Q154.965 358.813 154.965 364.253 Q154.965 369.577 151.816 372.795 Q148.668 376.012 143.437 376.012 Q137.441 376.012 134.27 371.429 Q131.099 366.822 131.099 358.096 Q131.099 349.901 134.988 345.04 Q138.877 340.156 145.428 340.156 Q147.187 340.156 148.969 340.503 Q150.775 340.85 152.719 341.545 Z" fill="#000000" fill-rule="nonzero" fill-opacity="1" /><path clip-path="url(#clip970)" d="M173.02 343.86 Q169.409 343.86 167.58 347.424 Q165.775 350.966 165.775 358.096 Q165.775 365.202 167.58 368.767 Q169.409 372.309 173.02 372.309 Q176.654 372.309 178.46 368.767 Q180.288 365.202 180.288 358.096 Q180.288 350.966 178.46 347.424 Q176.654 343.86 173.02 343.86 M173.02 340.156 Q178.83 340.156 181.886 344.762 Q184.964 349.346 184.964 358.096 Q184.964 366.822 181.886 371.429 Q178.83 376.012 173.02 376.012 Q167.21 376.012 164.131 371.429 Q161.076 366.822 161.076 358.096 Q161.076 349.346 164.131 344.762 Q167.21 340.156 173.02 340.156 Z" fill="#000000" fill-rule="nonzero" fill-opacity="1" /><path clip-path="url(#clip970)" d="M-2.58033 1064.01 Q-2.58033 1071.02 2.63955 1075.15 Q7.85943 1079.26 16.8669 1079.26 Q25.8425 1079.26 31.0624 1075.15 Q36.2823 1071.02 36.2823 1064.01 Q36.2823 1057.01 31.0624 1052.94 Q25.8425 1048.83 16.8669 1048.83 Q7.85943 1048.83 2.63955 1052.94 Q-2.58033 1057.01 -2.58033 1064.01 M-7.80021 1064.01 Q-7.80021 1054.02 -1.08439 1048.04 Q5.5996 1042.05 16.8669 1042.05 Q28.1024 1042.05 34.8182 1048.04 Q41.5022 1054.02 41.5022 1064.01 Q41.5022 1074.04 34.8182 1080.06 Q28.1342 1086.04 16.8669 1086.04 Q5.5996 1086.04 -1.08439 1080.06 Q-7.80021 1074.04 -7.80021 1064.01 Z" fill="#000000" fill-rule="nonzero" fill-opacity="1" /><path clip-path="url(#clip970)" d="M22.787 1006.66 Q16.3258 1006.66 12.6655 1009.33 Q8.97342 1011.97 8.97342 1016.62 Q8.97342 1021.27 12.6655 1023.94 Q16.3258 1026.58 22.787 1026.58 Q29.2482 1026.58 32.9403 1023.94 Q36.6006 1021.27 36.6006 1016.62 Q36.6006 1011.97 32.9403 1009.33 Q29.2482 1006.66 22.787 1006.66 M10.3421 1026.58 Q7.1592 1024.74 5.63143 1021.94 Q4.07183 1019.1 4.07183 1015.19 Q4.07183 1008.7 9.22805 1004.65 Q14.3843 1000.58 22.787 1000.58 Q31.1897 1000.58 36.346 1004.65 Q41.5022 1008.7 41.5022 1015.19 Q41.5022 1019.1 39.9744 1021.94 Q38.4148 1024.74 35.232 1026.58 L40.5792 1026.58 L40.5792 1032.47 L-8.94604 1032.47 L-8.94604 1026.58 L10.3421 1026.58 Z" fill="#000000" fill-rule="nonzero" fill-opacity="1" /><path clip-path="url(#clip970)" d="M5.98154 968.146 L11.5197 968.146 Q10.2466 970.629 9.60999 973.303 Q8.97342 975.976 8.97342 978.841 Q8.97342 983.201 10.3102 985.397 Q11.647 987.562 14.3206 987.562 Q16.3576 987.562 17.5353 986.002 Q18.6811 984.443 19.7315 979.732 L20.1771 977.727 Q21.5139 971.488 23.9647 968.878 Q26.3836 966.237 30.7441 966.237 Q35.7094 966.237 38.6058 970.183 Q41.5022 974.098 41.5022 980.973 Q41.5022 983.838 40.9293 986.957 Q40.3882 990.044 39.2742 993.482 L33.2268 993.482 Q34.9137 990.235 35.773 987.084 Q36.6006 983.933 36.6006 980.846 Q36.6006 976.708 35.2001 974.48 Q33.7679 972.252 31.1897 972.252 Q28.8026 972.252 27.5295 973.876 Q26.2563 975.467 25.0787 980.91 L24.6012 982.947 Q23.4554 988.389 21.1001 990.808 Q18.713 993.227 14.5752 993.227 Q9.54634 993.227 6.80908 989.662 Q4.07183 986.098 4.07183 979.541 Q4.07183 976.294 4.54926 973.43 Q5.02669 970.565 5.98154 968.146 Z" fill="#000000" fill-rule="nonzero" fill-opacity="1" /><path clip-path="url(#clip970)" d="M21.2911 926.419 L24.1556 926.419 L24.1556 953.346 Q30.2031 952.964 33.3859 949.718 Q36.5369 946.439 36.5369 940.615 Q36.5369 937.241 35.7094 934.09 Q34.8819 930.907 33.2268 927.788 L38.7649 927.788 Q40.1017 930.939 40.802 934.249 Q41.5022 937.559 41.5022 940.965 Q41.5022 949.495 36.5369 954.492 Q31.5717 959.457 23.1053 959.457 Q14.3524 959.457 9.22805 954.747 Q4.07183 950.004 4.07183 941.983 Q4.07183 934.79 8.7188 930.621 Q13.3339 926.419 21.2911 926.419 M19.5723 932.276 Q14.7662 932.339 11.9016 934.981 Q9.03708 937.591 9.03708 941.92 Q9.03708 946.821 11.8062 949.781 Q14.5752 952.71 19.6042 953.155 L19.5723 932.276 Z" fill="#000000" fill-rule="nonzero" fill-opacity="1" /><path clip-path="url(#clip970)" d="M10.4057 896.15 Q9.83279 897.137 9.57817 898.315 Q9.29171 899.46 9.29171 900.861 Q9.29171 905.826 12.5382 908.5 Q15.7529 911.141 21.8003 911.141 L40.5792 911.141 L40.5792 917.03 L4.9312 917.03 L4.9312 911.141 L10.4694 911.141 Q7.22285 909.295 5.66326 906.335 Q4.07183 903.375 4.07183 899.142 Q4.07183 898.537 4.16732 897.805 Q4.23097 897.073 4.39012 896.182 L10.4057 896.15 Z" fill="#000000" fill-rule="nonzero" fill-opacity="1" /><path clip-path="url(#clip970)" d="M4.9312 894.209 L4.9312 888.002 L34.85 876.862 L4.9312 865.722 L4.9312 859.516 L40.5792 872.884 L40.5792 880.841 L4.9312 894.209 Z" fill="#000000" fill-rule="nonzero" fill-opacity="1" /><path clip-path="url(#clip970)" d="M22.6597 835.23 Q22.6597 842.328 24.2829 845.065 Q25.9062 847.803 29.8211 847.803 Q32.9403 847.803 34.7864 845.766 Q36.6006 843.697 36.6006 840.164 Q36.6006 835.294 33.1631 832.366 Q29.6938 829.406 23.9647 829.406 L22.6597 829.406 L22.6597 835.23 M20.2407 823.549 L40.5792 823.549 L40.5792 829.406 L35.1683 829.406 Q38.4148 831.411 39.9744 834.403 Q41.5022 837.395 41.5022 841.723 Q41.5022 847.198 38.4466 850.444 Q35.3593 853.659 30.2031 853.659 Q24.1875 853.659 21.1319 849.649 Q18.0764 845.607 18.0764 837.618 L18.0764 829.406 L17.5035 829.406 Q13.4612 829.406 11.2651 832.079 Q9.03708 834.721 9.03708 839.527 Q9.03708 842.583 9.76914 845.479 Q10.5012 848.376 11.9653 851.049 L6.55446 851.049 Q5.31314 847.835 4.7084 844.811 Q4.07183 841.787 4.07183 838.923 Q4.07183 831.188 8.08223 827.369 Q12.0926 823.549 20.2407 823.549 Z" fill="#000000" fill-rule="nonzero" fill-opacity="1" /><path clip-path="url(#clip970)" d="M-5.19027 805.694 L4.9312 805.694 L4.9312 793.631 L9.48268 793.631 L9.48268 805.694 L28.8344 805.694 Q33.1949 805.694 34.4363 804.516 Q35.6776 803.306 35.6776 799.646 L35.6776 793.631 L40.5792 793.631 L40.5792 799.646 Q40.5792 806.426 38.0647 809.004 Q35.5184 811.582 28.8344 811.582 L9.48268 811.582 L9.48268 815.879 L4.9312 815.879 L4.9312 811.582 L-5.19027 811.582 L-5.19027 805.694 Z" fill="#000000" fill-rule="nonzero" fill-opacity="1" /><path clip-path="url(#clip970)" d="M4.9312 785.928 L4.9312 780.072 L40.5792 780.072 L40.5792 785.928 L4.9312 785.928 M-8.94604 785.928 L-8.94604 780.072 L-1.52999 780.072 L-1.52999 785.928 L-8.94604 785.928 Z" fill="#000000" fill-rule="nonzero" fill-opacity="1" /><path clip-path="url(#clip970)" d="M9.03708 754.004 Q9.03708 758.715 12.7292 761.452 Q16.3895 764.189 22.787 764.189 Q29.1845 764.189 32.8767 761.484 Q36.5369 758.746 36.5369 754.004 Q36.5369 749.325 32.8448 746.588 Q29.1527 743.851 22.787 743.851 Q16.4531 743.851 12.761 746.588 Q9.03708 749.325 9.03708 754.004 M4.07183 754.004 Q4.07183 746.365 9.03708 742.005 Q14.0023 737.644 22.787 737.644 Q31.5399 737.644 36.5369 742.005 Q41.5022 746.365 41.5022 754.004 Q41.5022 761.675 36.5369 766.035 Q31.5399 770.364 22.787 770.364 Q14.0023 770.364 9.03708 766.035 Q4.07183 761.675 4.07183 754.004 Z" fill="#000000" fill-rule="nonzero" fill-opacity="1" /><path clip-path="url(#clip970)" d="M19.0631 698.304 L40.5792 698.304 L40.5792 704.161 L19.254 704.161 Q14.1933 704.161 11.6788 706.134 Q9.1644 708.107 9.1644 712.054 Q9.1644 716.796 12.1881 719.534 Q15.2118 722.271 20.4317 722.271 L40.5792 722.271 L40.5792 728.159 L4.9312 728.159 L4.9312 722.271 L10.4694 722.271 Q7.25468 720.17 5.66326 717.338 Q4.07183 714.473 4.07183 710.749 Q4.07183 704.606 7.89125 701.455 Q11.6788 698.304 19.0631 698.304 Z" fill="#000000" fill-rule="nonzero" fill-opacity="1" /><path clip-path="url(#clip970)" d="M5.98154 663.897 L11.5197 663.897 Q10.2466 666.38 9.60999 669.054 Q8.97342 671.727 8.97342 674.592 Q8.97342 678.952 10.3102 681.148 Q11.647 683.313 14.3206 683.313 Q16.3576 683.313 17.5353 681.753 Q18.6811 680.194 19.7315 675.483 L20.1771 673.478 Q21.5139 667.239 23.9647 664.629 Q26.3836 661.988 30.7441 661.988 Q35.7094 661.988 38.6058 665.934 Q41.5022 669.849 41.5022 676.724 Q41.5022 679.589 40.9293 682.708 Q40.3882 685.795 39.2742 689.233 L33.2268 689.233 Q34.9137 685.986 35.773 682.835 Q36.6006 679.684 36.6006 676.597 Q36.6006 672.459 35.2001 670.231 Q33.7679 668.003 31.1897 668.003 Q28.8026 668.003 27.5295 669.627 Q26.2563 671.218 25.0787 676.661 L24.6012 678.698 Q23.4554 684.14 21.1001 686.559 Q18.713 688.978 14.5752 688.978 Q9.54634 688.978 6.80908 685.414 Q4.07183 681.849 4.07183 675.292 Q4.07183 672.046 4.54926 669.181 Q5.02669 666.316 5.98154 663.897 Z" fill="#000000" fill-rule="nonzero" fill-opacity="1" /><path clip-path="url(#clip970)" d="M983.385 14.0809 L983.385 22.0612 Q978.726 19.8332 974.594 18.7395 Q970.462 17.6457 966.614 17.6457 Q959.93 17.6457 956.284 20.2383 Q952.679 22.8309 952.679 27.611 Q952.679 31.6214 955.069 33.6873 Q957.499 35.7128 964.224 36.9686 L969.166 37.9813 Q978.321 39.7232 982.656 44.1387 Q987.031 48.5136 987.031 55.8863 Q987.031 64.6767 981.116 69.2137 Q975.242 73.7508 963.859 73.7508 Q959.565 73.7508 954.704 72.7785 Q949.884 71.8063 944.699 69.9024 L944.699 61.4765 Q949.681 64.2716 954.461 65.6895 Q959.241 67.1073 963.859 67.1073 Q970.867 67.1073 974.675 64.3527 Q978.483 61.598 978.483 56.4939 Q978.483 52.0379 975.729 49.5264 Q973.014 47.0148 966.776 45.759 L961.793 44.7868 Q952.638 42.9639 948.547 39.075 Q944.456 35.1862 944.456 28.2591 Q944.456 20.2383 950.086 15.6203 Q955.758 11.0023 965.682 11.0023 Q969.936 11.0023 974.351 11.7719 Q978.767 12.5416 983.385 14.0809 Z" fill="#000000" fill-rule="nonzero" fill-opacity="1" /><path clip-path="url(#clip970)" d="M1006.84 14.324 L1006.84 27.2059 L1022.19 27.2059 L1022.19 32.9987 L1006.84 32.9987 L1006.84 57.6282 Q1006.84 63.1779 1008.34 64.7578 Q1009.88 66.3376 1014.54 66.3376 L1022.19 66.3376 L1022.19 72.576 L1014.54 72.576 Q1005.91 72.576 1002.63 69.3758 Q999.345 66.1351 999.345 57.6282 L999.345 32.9987 L993.877 32.9987 L993.877 27.2059 L999.345 27.2059 L999.345 14.324 L1006.84 14.324 Z" fill="#000000" fill-rule="nonzero" fill-opacity="1" /><path clip-path="url(#clip970)" d="M1052.61 49.7694 Q1043.58 49.7694 1040.1 51.8354 Q1036.61 53.9013 1036.61 58.8839 Q1036.61 62.8538 1039.21 65.2034 Q1041.84 67.5124 1046.34 67.5124 Q1052.53 67.5124 1056.26 63.1374 Q1060.03 58.7219 1060.03 51.4303 L1060.03 49.7694 L1052.61 49.7694 M1067.48 46.6907 L1067.48 72.576 L1060.03 72.576 L1060.03 65.6895 Q1057.48 69.8214 1053.67 71.8063 Q1049.86 73.7508 1044.35 73.7508 Q1037.38 73.7508 1033.25 69.8619 Q1029.16 65.9325 1029.16 59.3701 Q1029.16 51.7138 1034.26 47.825 Q1039.41 43.9361 1049.58 43.9361 L1060.03 43.9361 L1060.03 43.2069 Q1060.03 38.0623 1056.63 35.2672 Q1053.26 32.4315 1047.15 32.4315 Q1043.26 32.4315 1039.57 33.3632 Q1035.88 34.295 1032.48 36.1584 L1032.48 29.2718 Q1036.57 27.692 1040.42 26.9223 Q1044.27 26.1121 1047.92 26.1121 Q1057.76 26.1121 1062.62 31.2163 Q1067.48 36.3204 1067.48 46.6907 Z" fill="#000000" fill-rule="nonzero" fill-opacity="1" /><path clip-path="url(#clip970)" d="M1090.21 14.324 L1090.21 27.2059 L1105.56 27.2059 L1105.56 32.9987 L1090.21 32.9987 L1090.21 57.6282 Q1090.21 63.1779 1091.71 64.7578 Q1093.25 66.3376 1097.9 66.3376 L1105.56 66.3376 L1105.56 72.576 L1097.9 72.576 Q1089.28 72.576 1085.99 69.3758 Q1082.71 66.1351 1082.71 57.6282 L1082.71 32.9987 L1077.24 32.9987 L1077.24 27.2059 L1082.71 27.2059 L1082.71 14.324 L1090.21 14.324 Z" fill="#000000" fill-rule="nonzero" fill-opacity="1" /><path clip-path="url(#clip970)" d="M1144.29 28.5427 L1144.29 35.5912 Q1141.13 33.9709 1137.72 33.1607 Q1134.32 32.3505 1130.68 32.3505 Q1125.13 32.3505 1122.33 34.0519 Q1119.58 35.7533 1119.58 39.156 Q1119.58 41.7486 1121.56 43.2475 Q1123.55 44.7058 1129.54 46.0426 L1132.09 46.6097 Q1140.03 48.3111 1143.35 51.4303 Q1146.72 54.509 1146.72 60.0587 Q1146.72 66.3781 1141.69 70.0644 Q1136.71 73.7508 1127.96 73.7508 Q1124.32 73.7508 1120.35 73.0216 Q1116.42 72.3329 1112.04 70.9151 L1112.04 63.2184 Q1116.17 65.3654 1120.18 66.4591 Q1124.19 67.5124 1128.12 67.5124 Q1133.39 67.5124 1136.23 65.73 Q1139.06 63.9071 1139.06 60.6258 Q1139.06 57.5877 1137 55.9673 Q1134.97 54.3469 1128.04 52.8481 L1125.45 52.2405 Q1118.52 50.7821 1115.44 47.7845 Q1112.37 44.7463 1112.37 39.4801 Q1112.37 33.0797 1116.9 29.5959 Q1121.44 26.1121 1129.78 26.1121 Q1133.92 26.1121 1137.56 26.7198 Q1141.21 27.3274 1144.29 28.5427 Z" fill="#000000" fill-rule="nonzero" fill-opacity="1" /><path clip-path="url(#clip970)" d="M1167.09 18.8205 L1167.09 41.5461 L1177.38 41.5461 Q1183.09 41.5461 1186.21 38.5889 Q1189.33 35.6318 1189.33 30.163 Q1189.33 24.7348 1186.21 21.7777 Q1183.09 18.8205 1177.38 18.8205 L1167.09 18.8205 M1158.91 12.096 L1177.38 12.096 Q1187.55 12.096 1192.74 16.714 Q1197.96 21.2916 1197.96 30.163 Q1197.96 39.1155 1192.74 43.6931 Q1187.55 48.2706 1177.38 48.2706 L1167.09 48.2706 L1167.09 72.576 L1158.91 72.576 L1158.91 12.096 Z" fill="#000000" fill-rule="nonzero" fill-opacity="1" /><path clip-path="url(#clip970)" d="M1208.62 9.54393 L1216.07 9.54393 L1216.07 72.576 L1208.62 72.576 L1208.62 9.54393 Z" fill="#000000" fill-rule="nonzero" fill-opacity="1" /><path clip-path="url(#clip970)" d="M1249.25 32.4315 Q1243.25 32.4315 1239.77 37.1306 Q1236.28 41.7891 1236.28 49.9314 Q1236.28 58.0738 1239.73 62.7728 Q1243.21 67.4314 1249.25 67.4314 Q1255.2 67.4314 1258.68 62.7323 Q1262.17 58.0333 1262.17 49.9314 Q1262.17 41.8701 1258.68 37.1711 Q1255.2 32.4315 1249.25 32.4315 M1249.25 26.1121 Q1258.97 26.1121 1264.52 32.4315 Q1270.07 38.7509 1270.07 49.9314 Q1270.07 61.0714 1264.52 67.4314 Q1258.97 73.7508 1249.25 73.7508 Q1239.48 73.7508 1233.93 67.4314 Q1228.42 61.0714 1228.42 49.9314 Q1228.42 38.7509 1233.93 32.4315 Q1239.48 26.1121 1249.25 26.1121 Z" fill="#000000" fill-rule="nonzero" fill-opacity="1" /><path clip-path="url(#clip970)" d="M1289.8 14.324 L1289.8 27.2059 L1305.15 27.2059 L1305.15 32.9987 L1289.8 32.9987 L1289.8 57.6282 Q1289.8 63.1779 1291.29 64.7578 Q1292.83 66.3376 1297.49 66.3376 L1305.15 66.3376 L1305.15 72.576 L1297.49 72.576 Q1288.86 72.576 1285.58 69.3758 Q1282.3 66.1351 1282.3 57.6282 L1282.3 32.9987 L1276.83 32.9987 L1276.83 27.2059 L1282.3 27.2059 L1282.3 14.324 L1289.8 14.324 Z" fill="#000000" fill-rule="nonzero" fill-opacity="1" /><path clip-path="url(#clip970)" d="M1343.87 28.5427 L1343.87 35.5912 Q1340.72 33.9709 1337.31 33.1607 Q1333.91 32.3505 1330.26 32.3505 Q1324.71 32.3505 1321.92 34.0519 Q1319.16 35.7533 1319.16 39.156 Q1319.16 41.7486 1321.15 43.2475 Q1323.13 44.7058 1329.13 46.0426 L1331.68 46.6097 Q1339.62 48.3111 1342.94 51.4303 Q1346.31 54.509 1346.31 60.0587 Q1346.31 66.3781 1341.28 70.0644 Q1336.3 73.7508 1327.55 73.7508 Q1323.9 73.7508 1319.93 73.0216 Q1316 72.3329 1311.63 70.9151 L1311.63 63.2184 Q1315.76 65.3654 1319.77 66.4591 Q1323.78 67.5124 1327.71 67.5124 Q1332.98 67.5124 1335.81 65.73 Q1338.65 63.9071 1338.65 60.6258 Q1338.65 57.5877 1336.58 55.9673 Q1334.56 54.3469 1327.63 52.8481 L1325.04 52.2405 Q1318.11 50.7821 1315.03 47.7845 Q1311.95 44.7463 1311.95 39.4801 Q1311.95 33.0797 1316.49 29.5959 Q1321.03 26.1121 1329.37 26.1121 Q1333.5 26.1121 1337.15 26.7198 Q1340.8 27.3274 1343.87 28.5427 Z" fill="#000000" fill-rule="nonzero" fill-opacity="1" /><path clip-path="url(#clip970)" d="M1371.42 12.096 L1378.31 12.096 L1357.24 80.2727 L1350.36 80.2727 L1371.42 12.096 Z" fill="#000000" fill-rule="nonzero" fill-opacity="1" /><path clip-path="url(#clip970)" d="M1394.63 18.8205 L1394.63 41.5461 L1404.92 41.5461 Q1410.63 41.5461 1413.75 38.5889 Q1416.87 35.6318 1416.87 30.163 Q1416.87 24.7348 1413.75 21.7777 Q1410.63 18.8205 1404.92 18.8205 L1394.63 18.8205 M1386.45 12.096 L1404.92 12.096 Q1415.09 12.096 1420.27 16.714 Q1425.5 21.2916 1425.5 30.163 Q1425.5 39.1155 1420.27 43.6931 Q1415.09 48.2706 1404.92 48.2706 L1394.63 48.2706 L1394.63 72.576 L1386.45 72.576 L1386.45 12.096 Z" fill="#000000" fill-rule="nonzero" fill-opacity="1" /><path clip-path="url(#clip970)" d="M1436.15 9.54393 L1443.61 9.54393 L1443.61 72.576 L1436.15 72.576 L1436.15 9.54393 Z" fill="#000000" fill-rule="nonzero" fill-opacity="1" /><path clip-path="url(#clip970)" d="M1476.78 32.4315 Q1470.79 32.4315 1467.31 37.1306 Q1463.82 41.7891 1463.82 49.9314 Q1463.82 58.0738 1467.27 62.7728 Q1470.75 67.4314 1476.78 67.4314 Q1482.74 67.4314 1486.22 62.7323 Q1489.71 58.0333 1489.71 49.9314 Q1489.71 41.8701 1486.22 37.1711 Q1482.74 32.4315 1476.78 32.4315 M1476.78 26.1121 Q1486.51 26.1121 1492.06 32.4315 Q1497.61 38.7509 1497.61 49.9314 Q1497.61 61.0714 1492.06 67.4314 Q1486.51 73.7508 1476.78 73.7508 Q1467.02 73.7508 1461.47 67.4314 Q1455.96 61.0714 1455.96 49.9314 Q1455.96 38.7509 1461.47 32.4315 Q1467.02 26.1121 1476.78 26.1121 Z" fill="#000000" fill-rule="nonzero" fill-opacity="1" /><path clip-path="url(#clip970)" d="M1517.33 14.324 L1517.33 27.2059 L1532.69 27.2059 L1532.69 32.9987 L1517.33 32.9987 L1517.33 57.6282 Q1517.33 63.1779 1518.83 64.7578 Q1520.37 66.3376 1525.03 66.3376 L1532.69 66.3376 L1532.69 72.576 L1525.03 72.576 Q1516.4 72.576 1513.12 69.3758 Q1509.84 66.1351 1509.84 57.6282 L1509.84 32.9987 L1504.37 32.9987 L1504.37 27.2059 L1509.84 27.2059 L1509.84 14.324 L1517.33 14.324 Z" fill="#000000" fill-rule="nonzero" fill-opacity="1" /><path clip-path="url(#clip970)" d="M1542.49 9.54393 L1549.94 9.54393 L1549.94 72.576 L1542.49 72.576 L1542.49 9.54393 Z" fill="#000000" fill-rule="nonzero" fill-opacity="1" /><path clip-path="url(#clip970)" d="M1584.42 76.7889 Q1581.26 84.8907 1578.26 87.3618 Q1575.26 89.8329 1570.24 89.8329 L1564.28 89.8329 L1564.28 83.5945 L1568.66 83.5945 Q1571.74 83.5945 1573.44 82.1361 Q1575.14 80.6778 1577.21 75.2496 L1578.54 71.8468 L1560.19 27.2059 L1568.09 27.2059 L1582.27 62.6918 L1596.45 27.2059 L1604.35 27.2059 L1584.42 76.7889 Z" fill="#000000" fill-rule="nonzero" fill-opacity="1" /><path clip-path="url(#clip970)" d="M1614.96 12.096 L1623.14 12.096 L1623.14 68.3631 Q1623.14 79.3005 1618.97 84.2426 Q1614.84 89.1847 1605.64 89.1847 L1602.52 89.1847 L1602.52 82.2982 L1605.08 82.2982 Q1610.51 82.2982 1612.73 79.26 Q1614.96 76.2218 1614.96 68.3631 L1614.96 12.096 Z" fill="#000000" fill-rule="nonzero" fill-opacity="1" /><path clip-path="url(#clip970)" d="M1675.68 14.0809 L1675.68 22.0612 Q1671.03 19.8332 1666.89 18.7395 Q1662.76 17.6457 1658.91 17.6457 Q1652.23 17.6457 1648.58 20.2383 Q1644.98 22.8309 1644.98 27.611 Q1644.98 31.6214 1647.37 33.6873 Q1649.8 35.7128 1656.52 36.9686 L1661.47 37.9813 Q1670.62 39.7232 1674.96 44.1387 Q1679.33 48.5136 1679.33 55.8863 Q1679.33 64.6767 1673.42 69.2137 Q1667.54 73.7508 1656.16 73.7508 Q1651.86 73.7508 1647 72.7785 Q1642.18 71.8063 1637 69.9024 L1637 61.4765 Q1641.98 64.2716 1646.76 65.6895 Q1651.54 67.1073 1656.16 67.1073 Q1663.17 67.1073 1666.97 64.3527 Q1670.78 61.598 1670.78 56.4939 Q1670.78 52.0379 1668.03 49.5264 Q1665.31 47.0148 1659.08 45.759 L1654.09 44.7868 Q1644.94 42.9639 1640.85 39.075 Q1636.76 35.1862 1636.76 28.2591 Q1636.76 20.2383 1642.39 15.6203 Q1648.06 11.0023 1657.98 11.0023 Q1662.24 11.0023 1666.65 11.7719 Q1671.07 12.5416 1675.68 14.0809 Z" fill="#000000" fill-rule="nonzero" fill-opacity="1" /><path clip-path="url(#clip970)" d="M1718.46 12.096 L1726.64 12.096 L1726.64 65.6895 L1756.09 65.6895 L1756.09 72.576 L1718.46 72.576 L1718.46 12.096 Z" fill="#000000" fill-rule="nonzero" fill-opacity="1" /><path clip-path="url(#clip970)" d="M1764.36 27.2059 L1771.81 27.2059 L1771.81 72.576 L1764.36 72.576 L1764.36 27.2059 M1764.36 9.54393 L1771.81 9.54393 L1771.81 18.9825 L1764.36 18.9825 L1764.36 9.54393 Z" fill="#000000" fill-rule="nonzero" fill-opacity="1" /><path clip-path="url(#clip970)" d="M1825.12 45.1919 L1825.12 72.576 L1817.67 72.576 L1817.67 45.4349 Q1817.67 38.994 1815.16 35.7938 Q1812.65 32.5936 1807.62 32.5936 Q1801.59 32.5936 1798.1 36.4419 Q1794.62 40.2903 1794.62 46.9338 L1794.62 72.576 L1787.12 72.576 L1787.12 27.2059 L1794.62 27.2059 L1794.62 34.2544 Q1797.29 30.163 1800.9 28.1376 Q1804.54 26.1121 1809.28 26.1121 Q1817.1 26.1121 1821.11 30.9732 Q1825.12 35.7938 1825.12 45.1919 Z" fill="#000000" fill-rule="nonzero" fill-opacity="1" /><path clip-path="url(#clip970)" d="M1878.8 48.0275 L1878.8 51.6733 L1844.53 51.6733 Q1845.01 59.3701 1849.14 63.421 Q1853.32 67.4314 1860.73 67.4314 Q1865.02 67.4314 1869.03 66.3781 Q1873.08 65.3249 1877.05 63.2184 L1877.05 70.267 Q1873.04 71.9684 1868.83 72.8596 Q1864.62 73.7508 1860.28 73.7508 Q1849.43 73.7508 1843.07 67.4314 Q1836.75 61.1119 1836.75 50.3365 Q1836.75 39.1965 1842.74 32.6746 Q1848.78 26.1121 1858.99 26.1121 Q1868.14 26.1121 1873.45 32.0264 Q1878.8 37.9003 1878.8 48.0275 M1871.34 45.84 Q1871.26 39.7232 1867.9 36.0774 Q1864.58 32.4315 1859.07 32.4315 Q1852.83 32.4315 1849.06 35.9558 Q1845.34 39.4801 1844.77 45.8805 L1871.34 45.84 Z" fill="#000000" fill-rule="nonzero" fill-opacity="1" /><path clip-path="url(#clip970)" d="M1911.65 49.7694 Q1902.62 49.7694 1899.13 51.8354 Q1895.65 53.9013 1895.65 58.8839 Q1895.65 62.8538 1898.24 65.2034 Q1900.87 67.5124 1905.37 67.5124 Q1911.57 67.5124 1915.3 63.1374 Q1919.06 58.7219 1919.06 51.4303 L1919.06 49.7694 L1911.65 49.7694 M1926.52 46.6907 L1926.52 72.576 L1919.06 72.576 L1919.06 65.6895 Q1916.51 69.8214 1912.7 71.8063 Q1908.89 73.7508 1903.39 73.7508 Q1896.42 73.7508 1892.29 69.8619 Q1888.19 65.9325 1888.19 59.3701 Q1888.19 51.7138 1893.3 47.825 Q1898.44 43.9361 1908.61 43.9361 L1919.06 43.9361 L1919.06 43.2069 Q1919.06 38.0623 1915.66 35.2672 Q1912.3 32.4315 1906.18 32.4315 Q1902.29 32.4315 1898.61 33.3632 Q1894.92 34.295 1891.52 36.1584 L1891.52 29.2718 Q1895.61 27.692 1899.46 26.9223 Q1903.3 26.1121 1906.95 26.1121 Q1916.79 26.1121 1921.66 31.2163 Q1926.52 36.3204 1926.52 46.6907 Z" fill="#000000" fill-rule="nonzero" fill-opacity="1" /><path clip-path="url(#clip970)" d="M1968.16 34.1734 Q1966.9 33.4443 1965.4 33.1202 Q1963.95 32.7556 1962.16 32.7556 Q1955.84 32.7556 1952.44 36.8875 Q1949.08 40.9789 1949.08 48.6757 L1949.08 72.576 L1941.59 72.576 L1941.59 27.2059 L1949.08 27.2059 L1949.08 34.2544 Q1951.43 30.1225 1955.2 28.1376 Q1958.96 26.1121 1964.35 26.1121 Q1965.12 26.1121 1966.05 26.2337 Q1966.98 26.3147 1968.12 26.5172 L1968.16 34.1734 Z" fill="#000000" fill-rule="nonzero" fill-opacity="1" /><path clip-path="url(#clip970)" d="M2031.35 44.2197 Q2033.99 45.1109 2036.46 48.0275 Q2038.97 50.9442 2041.48 56.0483 L2049.79 72.576 L2040.99 72.576 L2033.26 57.061 Q2030.26 50.9847 2027.42 48.9997 Q2024.63 47.0148 2019.77 47.0148 L2010.86 47.0148 L2010.86 72.576 L2002.67 72.576 L2002.67 12.096 L2021.15 12.096 Q2031.52 12.096 2036.62 16.4305 Q2041.72 20.7649 2041.72 29.5149 Q2041.72 35.2267 2039.05 38.994 Q2036.42 42.7613 2031.35 44.2197 M2010.86 18.8205 L2010.86 40.2903 L2021.15 40.2903 Q2027.06 40.2903 2030.06 37.5762 Q2033.1 34.8216 2033.1 29.5149 Q2033.1 24.2082 2030.06 21.5346 Q2027.06 18.8205 2021.15 18.8205 L2010.86 18.8205 Z" fill="#000000" fill-rule="nonzero" fill-opacity="1" /><path clip-path="url(#clip970)" d="M2095.07 48.0275 L2095.07 51.6733 L2060.8 51.6733 Q2061.29 59.3701 2065.42 63.421 Q2069.59 67.4314 2077.01 67.4314 Q2081.3 67.4314 2085.31 66.3781 Q2089.36 65.3249 2093.33 63.2184 L2093.33 70.267 Q2089.32 71.9684 2085.11 72.8596 Q2080.9 73.7508 2076.56 73.7508 Q2065.71 73.7508 2059.35 67.4314 Q2053.03 61.1119 2053.03 50.3365 Q2053.03 39.1965 2059.02 32.6746 Q2065.06 26.1121 2075.27 26.1121 Q2084.42 26.1121 2089.73 32.0264 Q2095.07 37.9003 2095.07 48.0275 M2087.62 45.84 Q2087.54 39.7232 2084.18 36.0774 Q2080.86 32.4315 2075.35 32.4315 Q2069.11 32.4315 2065.34 35.9558 Q2061.61 39.4801 2061.05 45.8805 L2087.62 45.84 Z" fill="#000000" fill-rule="nonzero" fill-opacity="1" /><path clip-path="url(#clip970)" d="M2137.16 49.3643 Q2137.16 41.2625 2133.8 36.8065 Q2130.48 32.3505 2124.44 32.3505 Q2118.45 32.3505 2115.09 36.8065 Q2111.76 41.2625 2111.76 49.3643 Q2111.76 57.4256 2115.09 61.8816 Q2118.45 66.3376 2124.44 66.3376 Q2130.48 66.3376 2133.8 61.8816 Q2137.16 57.4256 2137.16 49.3643 M2144.62 66.9452 Q2144.62 78.5308 2139.47 84.1616 Q2134.33 89.8329 2123.71 89.8329 Q2119.78 89.8329 2116.3 89.2252 Q2112.82 88.6581 2109.54 87.4428 L2109.54 80.1917 Q2112.82 81.9741 2116.02 82.8248 Q2119.22 83.6755 2122.54 83.6755 Q2129.87 83.6755 2133.52 79.8271 Q2137.16 76.0193 2137.16 68.282 L2137.16 64.5957 Q2134.85 68.6061 2131.25 70.5911 Q2127.64 72.576 2122.62 72.576 Q2114.28 72.576 2109.17 66.2161 Q2104.07 59.8562 2104.07 49.3643 Q2104.07 38.832 2109.17 32.472 Q2114.28 26.1121 2122.62 26.1121 Q2127.64 26.1121 2131.25 28.0971 Q2134.85 30.082 2137.16 34.0924 L2137.16 27.2059 L2144.62 27.2059 L2144.62 66.9452 Z" fill="#000000" fill-rule="nonzero" fill-opacity="1" /><path clip-path="url(#clip970)" d="M2186.26 34.1734 Q2185 33.4443 2183.51 33.1202 Q2182.05 32.7556 2180.26 32.7556 Q2173.95 32.7556 2170.54 36.8875 Q2167.18 40.9789 2167.18 48.6757 L2167.18 72.576 L2159.69 72.576 L2159.69 27.2059 L2167.18 27.2059 L2167.18 34.2544 Q2169.53 30.1225 2173.3 28.1376 Q2177.06 26.1121 2182.45 26.1121 Q2183.22 26.1121 2184.15 26.2337 Q2185.09 26.3147 2186.22 26.5172 L2186.26 34.1734 Z" fill="#000000" fill-rule="nonzero" fill-opacity="1" /><path clip-path="url(#clip970)" d="M2231.06 48.0275 L2231.06 51.6733 L2196.79 51.6733 Q2197.28 59.3701 2201.41 63.421 Q2205.58 67.4314 2213 67.4314 Q2217.29 67.4314 2221.3 66.3781 Q2225.35 65.3249 2229.32 63.2184 L2229.32 70.267 Q2225.31 71.9684 2221.1 72.8596 Q2216.89 73.7508 2212.55 73.7508 Q2201.69 73.7508 2195.33 67.4314 Q2189.01 61.1119 2189.01 50.3365 Q2189.01 39.1965 2195.01 32.6746 Q2201.05 26.1121 2211.25 26.1121 Q2220.41 26.1121 2225.72 32.0264 Q2231.06 37.9003 2231.06 48.0275 M2223.61 45.84 Q2223.53 39.7232 2220.17 36.0774 Q2216.84 32.4315 2211.34 32.4315 Q2205.1 32.4315 2201.33 35.9558 Q2197.6 39.4801 2197.04 45.8805 L2223.61 45.84 Z" fill="#000000" fill-rule="nonzero" fill-opacity="1" /><path clip-path="url(#clip970)" d="M2272.22 28.5427 L2272.22 35.5912 Q2269.06 33.9709 2265.66 33.1607 Q2262.26 32.3505 2258.61 32.3505 Q2253.06 32.3505 2250.26 34.0519 Q2247.51 35.7533 2247.51 39.156 Q2247.51 41.7486 2249.49 43.2475 Q2251.48 44.7058 2257.48 46.0426 L2260.03 46.6097 Q2267.97 48.3111 2271.29 51.4303 Q2274.65 54.509 2274.65 60.0587 Q2274.65 66.3781 2269.63 70.0644 Q2264.65 73.7508 2255.9 73.7508 Q2252.25 73.7508 2248.28 73.0216 Q2244.35 72.3329 2239.98 70.9151 L2239.98 63.2184 Q2244.11 65.3654 2248.12 66.4591 Q2252.13 67.5124 2256.06 67.5124 Q2261.32 67.5124 2264.16 65.73 Q2266.99 63.9071 2266.99 60.6258 Q2266.99 57.5877 2264.93 55.9673 Q2262.9 54.3469 2255.98 52.8481 L2253.38 52.2405 Q2246.46 50.7821 2243.38 47.7845 Q2240.3 44.7463 2240.3 39.4801 Q2240.3 33.0797 2244.84 29.5959 Q2249.37 26.1121 2257.72 26.1121 Q2261.85 26.1121 2265.5 26.7198 Q2269.14 27.3274 2272.22 28.5427 Z" fill="#000000" fill-rule="nonzero" fill-opacity="1" /><path clip-path="url(#clip970)" d="M2315.44 28.5427 L2315.44 35.5912 Q2312.28 33.9709 2308.88 33.1607 Q2305.48 32.3505 2301.83 32.3505 Q2296.28 32.3505 2293.49 34.0519 Q2290.73 35.7533 2290.73 39.156 Q2290.73 41.7486 2292.72 43.2475 Q2294.7 44.7058 2300.7 46.0426 L2303.25 46.6097 Q2311.19 48.3111 2314.51 51.4303 Q2317.87 54.509 2317.87 60.0587 Q2317.87 66.3781 2312.85 70.0644 Q2307.87 73.7508 2299.12 73.7508 Q2295.47 73.7508 2291.5 73.0216 Q2287.57 72.3329 2283.2 70.9151 L2283.2 63.2184 Q2287.33 65.3654 2291.34 66.4591 Q2295.35 67.5124 2299.28 67.5124 Q2304.55 67.5124 2307.38 65.73 Q2310.22 63.9071 2310.22 60.6258 Q2310.22 57.5877 2308.15 55.9673 Q2306.13 54.3469 2299.2 52.8481 L2296.61 52.2405 Q2289.68 50.7821 2286.6 47.7845 Q2283.52 44.7463 2283.52 39.4801 Q2283.52 33.0797 2288.06 29.5959 Q2292.6 26.1121 2300.94 26.1121 Q2305.07 26.1121 2308.72 26.7198 Q2312.36 27.3274 2315.44 28.5427 Z" fill="#000000" fill-rule="nonzero" fill-opacity="1" /><path clip-path="url(#clip970)" d="M2329.74 27.2059 L2337.2 27.2059 L2337.2 72.576 L2329.74 72.576 L2329.74 27.2059 M2329.74 9.54393 L2337.2 9.54393 L2337.2 18.9825 L2329.74 18.9825 L2329.74 9.54393 Z" fill="#000000" fill-rule="nonzero" fill-opacity="1" /><path clip-path="url(#clip970)" d="M2370.37 32.4315 Q2364.38 32.4315 2360.89 37.1306 Q2357.41 41.7891 2357.41 49.9314 Q2357.41 58.0738 2360.85 62.7728 Q2364.34 67.4314 2370.37 67.4314 Q2376.33 67.4314 2379.81 62.7323 Q2383.3 58.0333 2383.3 49.9314 Q2383.3 41.8701 2379.81 37.1711 Q2376.33 32.4315 2370.37 32.4315 M2370.37 26.1121 Q2380.1 26.1121 2385.65 32.4315 Q2391.2 38.7509 2391.2 49.9314 Q2391.2 61.0714 2385.65 67.4314 Q2380.1 73.7508 2370.37 73.7508 Q2360.61 73.7508 2355.06 67.4314 Q2349.55 61.0714 2349.55 49.9314 Q2349.55 38.7509 2355.06 32.4315 Q2360.61 26.1121 2370.37 26.1121 Z" fill="#000000" fill-rule="nonzero" fill-opacity="1" /><path clip-path="url(#clip970)" d="M2441.26 45.1919 L2441.26 72.576 L2433.81 72.576 L2433.81 45.4349 Q2433.81 38.994 2431.3 35.7938 Q2428.79 32.5936 2423.76 32.5936 Q2417.73 32.5936 2414.25 36.4419 Q2410.76 40.2903 2410.76 46.9338 L2410.76 72.576 L2403.27 72.576 L2403.27 27.2059 L2410.76 27.2059 L2410.76 34.2544 Q2413.43 30.163 2417.04 28.1376 Q2420.69 26.1121 2425.43 26.1121 Q2433.24 26.1121 2437.25 30.9732 Q2441.26 35.7938 2441.26 45.1919 Z" fill="#000000" fill-rule="nonzero" fill-opacity="1" /><circle clip-path="url(#clip972)" cx="315.6" cy="572.483" r="14.4" fill="#1e90ff" fill-rule="evenodd" fill-opacity="0.5" stroke="#000000" stroke-opacity="0.5" stroke-width="3.6"/>
<circle clip-path="url(#clip972)" cx="460.575" cy="478.673" r="14.4" fill="#1e90ff" fill-rule="evenodd" fill-opacity="0.5" stroke="#000000" stroke-opacity="0.5" stroke-width="3.6"/>
<circle clip-path="url(#clip972)" cx="605.549" cy="398.265" r="14.4" fill="#1e90ff" fill-rule="evenodd" fill-opacity="0.5" stroke="#000000" stroke-opacity="0.5" stroke-width="3.6"/>
<circle clip-path="url(#clip972)" cx="750.524" cy="224.047" r="14.4" fill="#1e90ff" fill-rule="evenodd" fill-opacity="0.5" stroke="#000000" stroke-opacity="0.5" stroke-width="3.6"/>
<circle clip-path="url(#clip972)" cx="895.499" cy="465.272" r="14.4" fill="#1e90ff" fill-rule="evenodd" fill-opacity="0.5" stroke="#000000" stroke-opacity="0.5" stroke-width="3.6"/>
<circle clip-path="url(#clip972)" cx="1040.47" cy="559.081" r="14.4" fill="#1e90ff" fill-rule="evenodd" fill-opacity="0.5" stroke="#000000" stroke-opacity="0.5" stroke-width="3.6"/>
<circle clip-path="url(#clip972)" cx="1185.45" cy="157.041" r="14.4" fill="#1e90ff" fill-rule="evenodd" fill-opacity="0.5" stroke="#000000" stroke-opacity="0.5" stroke-width="3.6"/>
<circle clip-path="url(#clip972)" cx="1330.42" cy="505.476" r="14.4" fill="#1e90ff" fill-rule="evenodd" fill-opacity="0.5" stroke="#000000" stroke-opacity="0.5" stroke-width="3.6"/>
<circle clip-path="url(#clip972)" cx="1475.4" cy="1175.54" r="14.4" fill="#1e90ff" fill-rule="evenodd" fill-opacity="0.5" stroke="#000000" stroke-opacity="0.5" stroke-width="3.6"/>
<circle clip-path="url(#clip972)" cx="1620.37" cy="987.925" r="14.4" fill="#1e90ff" fill-rule="evenodd" fill-opacity="0.5" stroke="#000000" stroke-opacity="0.5" stroke-width="3.6"/>
<circle clip-path="url(#clip972)" cx="1765.35" cy="626.088" r="14.4" fill="#1e90ff" fill-rule="evenodd" fill-opacity="0.5" stroke="#000000" stroke-opacity="0.5" stroke-width="3.6"/>
<circle clip-path="url(#clip972)" cx="1910.32" cy="1135.34" r="14.4" fill="#1e90ff" fill-rule="evenodd" fill-opacity="0.5" stroke="#000000" stroke-opacity="0.5" stroke-width="3.6"/>
<circle clip-path="url(#clip972)" cx="2055.3" cy="693.095" r="14.4" fill="#1e90ff" fill-rule="evenodd" fill-opacity="0.5" stroke="#000000" stroke-opacity="0.5" stroke-width="3.6"/>
<circle clip-path="url(#clip972)" cx="2200.27" cy="505.476" r="14.4" fill="#1e90ff" fill-rule="evenodd" fill-opacity="0.5" stroke="#000000" stroke-opacity="0.5" stroke-width="3.6"/>
<circle clip-path="url(#clip972)" cx="2345.25" cy="505.476" r="14.4" fill="#1e90ff" fill-rule="evenodd" fill-opacity="0.5" stroke="#000000" stroke-opacity="0.5" stroke-width="3.6"/>
<circle clip-path="url(#clip972)" cx="2490.22" cy="1590.99" r="14.4" fill="#1e90ff" fill-rule="evenodd" fill-opacity="0.5" stroke="#000000" stroke-opacity="0.5" stroke-width="3.6"/>
<circle clip-path="url(#clip972)" cx="2635.2" cy="679.694" r="14.4" fill="#1e90ff" fill-rule="evenodd" fill-opacity="0.5" stroke="#000000" stroke-opacity="0.5" stroke-width="3.6"/>
<circle clip-path="url(#clip972)" cx="2780.17" cy="572.483" r="14.4" fill="#1e90ff" fill-rule="evenodd" fill-opacity="0.5" stroke="#000000" stroke-opacity="0.5" stroke-width="3.6"/>
<circle clip-path="url(#clip972)" cx="2925.15" cy="1537.38" r="14.4" fill="#1e90ff" fill-rule="evenodd" fill-opacity="0.5" stroke="#000000" stroke-opacity="0.5" stroke-width="3.6"/>
<circle clip-path="url(#clip972)" cx="3070.12" cy="1202.35" r="14.4" fill="#1e90ff" fill-rule="evenodd" fill-opacity="0.5" stroke="#000000" stroke-opacity="0.5" stroke-width="3.6"/>
<polyline clip-path="url(#clip972)" style="stroke:#1e90ff; stroke-linecap:round; stroke-linejoin:round; stroke-width:4; stroke-opacity:0.5; fill:none" points="315.6,347.914 3070.12,1109.3 "/>
<polyline clip-path="url(#clip972)" style="stroke:#008000; stroke-linecap:round; stroke-linejoin:round; stroke-width:4; stroke-opacity:1; fill:none" stroke-dasharray="16, 10" points="-2686.83,1133.7 6072.55,1133.7 "/>
<polyline clip-path="url(#clip972)" style="stroke:#008000; stroke-linecap:round; stroke-linejoin:round; stroke-width:4; stroke-opacity:1; fill:none" stroke-dasharray="16, 10" points="-2686.83,728.609 6072.55,728.609 "/>
<polyline clip-path="url(#clip972)" style="stroke:#008000; stroke-linecap:round; stroke-linejoin:round; stroke-width:4; stroke-opacity:1; fill:none" stroke-dasharray="16, 10" points="-2686.83,323.516 6072.55,323.516 "/>
</svg>
